<svg xmlns="http://www.w3.org/2000/svg" width="70.812" height="44.874" viewBox="0 0 70.812 44.874">
  <g id="Group_158492" data-name="Group 158492" transform="translate(-23.111 -204.08)">
    <g id="Shape_Abstract_Rain_by_Streamlinehq" data-name="Shape Abstract Rain by Streamlinehq" transform="translate(94.816 227.995) rotate(90)">
      <path id="Path_214891" data-name="Path 214891" d="M3.091,13.83c.187-.561.353-.546.834-.638,1.112,0,1.117,1.258,1.218,2.139a2.16,2.16,0,0,1-.1,1.485c-.148.2-.146.29-.419.29a2.444,2.444,0,0,1-.7-.161,1.35,1.35,0,0,1-.837-1.06A6.949,6.949,0,0,1,3.056,14.7,2.943,2.943,0,0,1,3.091,13.83Z" fill="#2e3120"/>
      <path id="Path_214892" data-name="Path 214892" d="M17.833,11.361c.2-.779.379-.758.9-.886.331,0,1,.165,1,.729,0,.76.245,1.487.312,2.241a3.816,3.816,0,0,1-.111,2.062c-.319.571-.653.375-1.2.179a1.855,1.855,0,0,1-.9-1.472,12.457,12.457,0,0,1-.035-1.646A5.262,5.262,0,0,1,17.833,11.361Z" fill="#2e3120"/>
      <path id="Path_214893" data-name="Path 214893" d="M9.866,12.569c.256-.561.484-.546,1.144-.638,1.323,0,1.49.988,1.67,2.139.074.474.263,1.077-.141,1.485-.2.2-.2.29-.574.29a4.426,4.426,0,0,1-.954-.161,1.523,1.523,0,0,1-1.149-1.06,5.078,5.078,0,0,1-.044-1.185A2.16,2.16,0,0,1,9.866,12.569Z" fill="#2e3120"/>
      <path id="Path_214894" data-name="Path 214894" d="M6.657,7.617c0-.767-.009-1.682,1.044-1.845,1.652,0,1.16,2.072,1.16,3.208a1.633,1.633,0,0,1-.551,1.36c-.338.227-1.146-.142-1.35-.372C6.509,9.46,6.657,8.208,6.657,7.617Z" fill="#2e3120"/>
      <path id="Path_214895" data-name="Path 214895" d="M14.829,20.313c0-.767-.01-1.682,1.044-1.845,1.652,0,1.159,2.072,1.159,3.208a1.633,1.633,0,0,1-.551,1.36c-.338.227-1.146-.142-1.35-.372C14.681,22.156,14.829,20.9,14.829,20.313Z" fill="#2e3120"/>
      <path id="Path_214896" data-name="Path 214896" d="M8.015,18.695c.1-.153.4-.176.549-.226.368,0,.713-.031.986.3a2.312,2.312,0,0,1,.188.675,6.2,6.2,0,0,1,.013,1.573c-.014.321-.181.884-.5.961a1.244,1.244,0,0,1-1.226-.442,1.748,1.748,0,0,1-.188-.807c-.018-.323-.06-.634-.058-.959A2.131,2.131,0,0,1,8.015,18.695Z" fill="#2e3120"/>
      <path id="Path_214897" data-name="Path 214897" d="M19.484,1.161c.087-.181.33-.208.454-.266.3,0,.59-.037.815.36a3.663,3.663,0,0,1,.156.8,10.406,10.406,0,0,1,.011,1.855c-.012.378-.15,1.043-.412,1.134A.888.888,0,0,1,19.5,4.519a2.8,2.8,0,0,1-.156-.952c-.015-.381-.05-.748-.048-1.132A3.432,3.432,0,0,1,19.484,1.161Z" fill="#2e3120"/>
      <path id="Path_214898" data-name="Path 214898" d="M13.023,4.762c.1-.229.4-.263.549-.337.368,0,.713-.046.986.456a4.846,4.846,0,0,1,.188,1.01,13.838,13.838,0,0,1,.013,2.351c-.014.48-.181,1.322-.5,1.437a1.06,1.06,0,0,1-1.226-.661,3.707,3.707,0,0,1-.188-1.206c-.019-.483-.061-.948-.058-1.434A4.543,4.543,0,0,1,13.023,4.762Z" fill="#2e3120"/>
    </g>
    <g id="black-beans" transform="translate(22.111 197.097)">
      <path id="Path_216418" data-name="Path 216418" d="M42.967,18.853c-1.618,1.8-6.369.673-9.338-2s-3.937-7.28-2.321-9.077,5.523-.334,8.493,2.339S44.585,17.057,42.967,18.853Z" transform="translate(4.786 0)" fill="#3b4042"/>
      <path id="Path_216419" data-name="Path 216419" d="M35.632,10.241c-.99.152-2-.053-2.245-.458s.35-.856,1.34-1.009,2,.053,2.245.458S36.622,10.088,35.632,10.241Z" transform="translate(5.239 0.282)" fill="#ebb488"/>
      <path id="Path_216420" data-name="Path 216420" d="M27.259,15.8c0,4.039-4.283,7.958-8.28,7.958s-7.8-4.641-7.8-8.682S15.064,8.48,19.06,8.48,27.259,11.756,27.259,15.8Z" transform="translate(1.65 0.243)" fill="#3b4042"/>
      <ellipse id="Ellipse_3312" data-name="Ellipse 3312" cx="2.612" cy="0.92" rx="2.612" ry="0.92" transform="translate(15.42 14.925) rotate(-63.927)" fill="#ebb488"/>
      <path id="Path_216421" data-name="Path 216421" d="M26.631,11.287c2.439-2.121,7.33-1.272,9.686,1.437s1.8,7.724-.644,9.845-6.268.827-8.624-1.881S24.192,13.408,26.631,11.287Z" transform="translate(3.894 0.504)" fill="#5f6566"/>
      <path id="Path_216422" data-name="Path 216422" d="M31.278,18.606c1.156-.25,2.2-.107,2.337.32s-.694.976-1.85,1.226-2.2.107-2.337-.32S30.122,18.856,31.278,18.606Z" transform="translate(4.605 1.864)" fill="#eca86b"/>
      <path id="Path_216423" data-name="Path 216423" d="M17.783,17.707c2.379-2.187,7.292-1.475,9.722,1.168s2.009,7.671-.371,9.859-6.243,1-8.672-1.642S15.4,19.895,17.783,17.707Z" transform="translate(2.477 1.528)" fill="#5f6566"/>
      <path id="Path_216424" data-name="Path 216424" d="M24.991,25.141c.35,1.011-3.809,2.037-4.16,1.023S24.64,24.126,24.991,25.141Z" transform="translate(3.21 2.875)" fill="#eca86b"/>
      <path id="Path_216425" data-name="Path 216425" d="M41.094,22.326c0,2.417-4.283,4.761-8.28,4.761s-7.8-2.777-7.8-5.194,3.882-3.944,7.878-3.944S41.094,19.909,41.094,22.326Z" transform="translate(3.892 1.777)" fill="#3b4042"/>
      <path id="Path_216426" data-name="Path 216426" d="M29.967,20.582c-.634.775-1.519,1.3-1.975,1.162s-.313-.87.321-1.645,1.519-1.3,1.976-1.162S30.6,19.807,29.967,20.582Z" transform="translate(4.331 1.934)" fill="#ebb488"/>
      <path id="Path_216427" data-name="Path 216427" d="M27.681,30.808c-1.618,1.8-6.369.673-9.338-2s-3.937-7.28-2.319-9.077,5.523-.334,8.493,2.339S29.3,29.012,27.681,30.808Z" transform="translate(2.309 1.937)" fill="#3b4042"/>
      <path id="Path_216428" data-name="Path 216428" d="M18.1,21.738c-.6-.968,2.985-1.522,3.585-.551S18.7,22.709,18.1,21.738Z" transform="translate(2.761 2.219)" fill="#ebb488"/>
      <path id="Path_216429" data-name="Path 216429" d="M11.345,23.242c2.439-2.121,7.33-1.272,9.686,1.437s1.8,7.724-.644,9.845-6.268.827-8.624-1.881S8.906,25.363,11.345,23.242Z" transform="translate(1.416 2.442)" fill="#5f6566"/>
      <path id="Path_216430" data-name="Path 216430" d="M15.991,30.561c1.156-.25,2.2-.107,2.337.32s-.694.976-1.85,1.226C13.678,32.713,13.224,31.16,15.991,30.561Z" transform="translate(2.128 3.801)" fill="#eca86b"/>
      <path id="Path_216431" data-name="Path 216431" d="M2.5,29.662c2.379-2.187,7.292-1.475,9.722,1.168s2.009,7.671-.371,9.859-6.243,1-8.672-1.642S.118,31.849,2.5,29.662Z" transform="translate(0 3.465)" fill="#5f6566"/>
      <path id="Path_216432" data-name="Path 216432" d="M7.36,36.84c1.149-.282,2.2-.168,2.345.254s-.667.995-1.815,1.277-2.2.168-2.345-.254S6.211,37.122,7.36,36.84Z" transform="translate(0.734 4.813)" fill="#eca86b"/>
      <path id="Path_216433" data-name="Path 216433" d="M25.808,34.281c0,2.417-4.283,4.761-8.28,4.761s-7.8-2.777-7.8-5.194S13.613,29.9,17.609,29.9,25.808,31.864,25.808,34.281Z" transform="translate(1.415 3.714)" fill="#3b4042"/>
      <path id="Path_216434" data-name="Path 216434" d="M14.683,32.538c-1.54,1.884-3.161,1.358-1.654-.485.634-.775,1.519-1.3,1.975-1.162S15.317,31.761,14.683,32.538Z" transform="translate(1.852 3.871)" fill="#ebb488"/>
      <g id="Group_158508" data-name="Group 158508" transform="translate(1.175 19.93)">
        <path id="Path_216435" data-name="Path 216435" d="M23.915,41.146c2.3.747,5.852-2.6,7.089-6.4s-.23-8.274-2.529-9.021S23.525,28.2,22.288,32,21.616,40.4,23.915,41.146Z" transform="translate(2.172 -16.911)" fill="#3b4042"/>
        <path id="Path_216436" data-name="Path 216436" d="M25.376,30.082c.933-.364,1.7-1.044,1.715-1.519s-.731-.567-1.665-.2-1.7,1.044-1.715,1.519S24.443,30.446,25.376,30.082Z" transform="translate(2.506 -16.502)" fill="#ebb488"/>
        <path id="Path_216437" data-name="Path 216437" d="M36.545,30.405c2.02,3.5,7.688,4.75,11.149,2.753s4.433-7.917,2.414-11.416-6.657-3.769-10.118-1.771S34.525,26.906,36.545,30.405Z" transform="translate(4.455 -18.028)" fill="#3b4042"/>
        <ellipse id="Ellipse_3313" data-name="Ellipse 3313" cx="0.92" cy="2.612" rx="0.92" ry="2.612" transform="matrix(0.558, -0.83, 0.83, 0.558, 46.763, 3.276)" fill="#ebb488"/>
        <path id="Path_216438" data-name="Path 216438" d="M34.486,26.316C31.313,25.7,27.5,28.878,26.815,32.4s2.306,7.587,5.478,8.2,5.843-2.417,6.528-5.94S37.658,26.934,34.486,26.316Z" transform="translate(2.993 -16.81)" fill="#5f6566"/>
        <path id="Path_216439" data-name="Path 216439" d="M33.4,35.111c-1.126.361-1.962,1.009-1.864,1.446s1.089.5,2.216.137,1.962-1.009,1.864-1.446S34.529,34.749,33.4,35.111Z" transform="translate(3.773 -15.41)" fill="#eca86b"/>
        <path id="Path_216440" data-name="Path 216440" d="M45.365,27.452c-3.154-.705-7.053,2.368-7.837,5.872s2.1,7.648,5.249,8.353,5.907-2.253,6.691-5.758S48.519,28.158,45.365,27.452Z" transform="translate(4.724 -16.629)" fill="#5f6566"/>
        <path id="Path_216441" data-name="Path 216441" d="M44.016,36.228c-1.136.33-1.988.954-1.9,1.393s1.075.529,2.211.2,1.988-.954,1.9-1.393S45.153,35.9,44.016,36.228Z" transform="translate(5.487 -15.223)" fill="#eca86b"/>
        <path id="Path_216442" data-name="Path 216442" d="M27.961,43.058c1.209,2.093,6.09,1.982,9.551-.015s5.365-6.3,4.157-8.4-5.334-1.475-8.794.522S26.753,40.964,27.961,43.058Z" transform="translate(3.147 -15.658)" fill="#3b4042"/>
        <path id="Path_216443" data-name="Path 216443" d="M35.371,36.134c.937.354,1.963.363,2.292.019s-.164-.91-1.1-1.265-1.963-.363-2.292-.019S34.433,35.779,35.371,36.134Z" transform="translate(4.2 -15.452)" fill="#ebb488"/>
        <g id="Group_158507" data-name="Group 158507">
          <path id="Path_216444" data-name="Path 216444" d="M1.446,27.838C2.655,29.93,7.537,29.82,11,27.822s5.365-6.3,4.157-8.4-5.334-1.475-8.794.522S.238,25.745,1.446,27.838Z" transform="translate(-1.15 -18.125)" fill="#3b4042"/>
          <path id="Path_216445" data-name="Path 216445" d="M8.856,20.915c2.275.861,3.416-.4,1.19-1.246-.937-.354-1.963-.363-2.292-.019S7.919,20.56,8.856,20.915Z" transform="translate(-0.096 -17.918)" fill="#ebb488"/>
        </g>
      </g>
    </g>
  </g>
</svg>
