<svg xmlns="http://www.w3.org/2000/svg" width="79.542" height="68.393" viewBox="0 0 79.542 68.393">
  <g id="Group_158489" data-name="Group 158489" transform="translate(-26.38 -194.607)">
    <g id="Group_158358" data-name="Group 158358" transform="translate(-2 3)">
      <g id="Shape_Abstract_Rain_by_Streamlinehq" data-name="Shape Abstract Rain by Streamlinehq" transform="translate(108.816 229.02) rotate(90)">
        <path id="Path_214891" data-name="Path 214891" d="M3.091,13.83c.187-.561.353-.546.834-.638,1.112,0,1.117,1.258,1.218,2.139a2.16,2.16,0,0,1-.1,1.485c-.148.2-.146.29-.419.29a2.444,2.444,0,0,1-.7-.161,1.35,1.35,0,0,1-.837-1.06A6.949,6.949,0,0,1,3.056,14.7,2.943,2.943,0,0,1,3.091,13.83Z" fill="#2e3120"/>
        <path id="Path_214892" data-name="Path 214892" d="M17.833,11.361c.2-.779.379-.758.9-.886.331,0,1,.165,1,.729,0,.76.245,1.487.312,2.241a3.816,3.816,0,0,1-.111,2.062c-.319.571-.653.375-1.2.179a1.855,1.855,0,0,1-.9-1.472,12.457,12.457,0,0,1-.035-1.646A5.262,5.262,0,0,1,17.833,11.361Z" fill="#2e3120"/>
        <path id="Path_214893" data-name="Path 214893" d="M9.866,12.569c.256-.561.484-.546,1.144-.638,1.323,0,1.49.988,1.67,2.139.074.474.263,1.077-.141,1.485-.2.2-.2.29-.574.29a4.426,4.426,0,0,1-.954-.161,1.523,1.523,0,0,1-1.149-1.06,5.078,5.078,0,0,1-.044-1.185A2.16,2.16,0,0,1,9.866,12.569Z" fill="#2e3120"/>
        <path id="Path_214894" data-name="Path 214894" d="M6.657,7.617c0-.767-.009-1.682,1.044-1.845,1.652,0,1.16,2.072,1.16,3.208a1.633,1.633,0,0,1-.551,1.36c-.338.227-1.146-.142-1.35-.372C6.509,9.46,6.657,8.208,6.657,7.617Z" fill="#2e3120"/>
        <path id="Path_214895" data-name="Path 214895" d="M14.829,20.313c0-.767-.01-1.682,1.044-1.845,1.652,0,1.159,2.072,1.159,3.208a1.633,1.633,0,0,1-.551,1.36c-.338.227-1.146-.142-1.35-.372C14.681,22.156,14.829,20.9,14.829,20.313Z" fill="#2e3120"/>
        <path id="Path_214896" data-name="Path 214896" d="M8.015,18.695c.1-.153.4-.176.549-.226.368,0,.713-.031.986.3a2.312,2.312,0,0,1,.188.675,6.2,6.2,0,0,1,.013,1.573c-.014.321-.181.884-.5.961a1.244,1.244,0,0,1-1.226-.442,1.748,1.748,0,0,1-.188-.807c-.018-.323-.06-.634-.058-.959A2.131,2.131,0,0,1,8.015,18.695Z" fill="#2e3120"/>
        <path id="Path_214897" data-name="Path 214897" d="M19.484,1.161c.087-.181.33-.208.454-.266.3,0,.59-.037.815.36a3.663,3.663,0,0,1,.156.8,10.406,10.406,0,0,1,.011,1.855c-.012.378-.15,1.043-.412,1.134A.888.888,0,0,1,19.5,4.519a2.8,2.8,0,0,1-.156-.952c-.015-.381-.05-.748-.048-1.132A3.432,3.432,0,0,1,19.484,1.161Z" fill="#2e3120"/>
        <path id="Path_214898" data-name="Path 214898" d="M13.023,4.762c.1-.229.4-.263.549-.337.368,0,.713-.046.986.456a4.846,4.846,0,0,1,.188,1.01,13.838,13.838,0,0,1,.013,2.351c-.014.48-.181,1.322-.5,1.437a1.06,1.06,0,0,1-1.226-.661,3.707,3.707,0,0,1-.188-1.206c-.019-.483-.061-.948-.058-1.434A4.543,4.543,0,0,1,13.023,4.762Z" fill="#2e3120"/>
      </g>
    </g>
    <g id="Chilli" transform="translate(878.64 11659.443)">
      <g id="chilli-2" data-name="chilli" transform="matrix(0.839, -0.545, 0.545, 0.839, -854.54, -11453.069)">
        <path id="Path_216283" data-name="Path 216283" d="M2.647,0C1.6,3.288-10.785,44.846,28.813,48.764c0,0,3.988.49,3.988-2.029a3.6,3.6,0,0,0-1.889-3.358s-.21,3.428-4.757,1.539S14.821,36.381,14.4,28.755c-.35-7.486,4.058-19.869.77-28.685" transform="translate(0.876 17.839)" fill="#e31d17"/>
        <path id="Path_216284" data-name="Path 216284" d="M1.469,3.5,0,0H3.568C6.856,8.815,2.449,21.2,2.8,28.685,3.148,36.311,10,42.957,14.482,44.846s4.757-1.539,4.757-1.539a3.6,3.6,0,0,1,1.889,3.358c0,1.4-1.259,1.889-2.379,2.029-1.609,0-1.679-.7-2.659-.07a47.466,47.466,0,0,1-4.9-.84C6.786,45.336.979,39.179.7,32.253.35,24.7,4.757,12.383,1.469,3.5Z" transform="translate(12.618 17.909)" fill="#f08d8f"/>
        <path id="Path_216285" data-name="Path 216285" d="M30.458,50.554a7.594,7.594,0,0,1-.864-.046c-11.4-1.13-19.653-5.458-24.522-12.863C-4.221,23.512,1.955,2.911,2.69.609a.875.875,0,0,1,1.666.532c-.709,2.221-6.67,22.088,2.177,35.544,4.566,6.944,12.386,11.01,23.242,12.084l.02,0a4.341,4.341,0,0,0,2.73-.48.835.835,0,0,0,.276-.681,3,3,0,0,0-.594-1.887,2.957,2.957,0,0,1-.987,1.032c-1.1.687-2.624.634-4.527-.156a21.5,21.5,0,0,1-7.768-6.185,22.137,22.137,0,0,1-3.075-4.952A16.483,16.483,0,0,1,14.4,29.677V29.67a54.938,54.938,0,0,1,.9-9.767c.914-6.2,1.949-13.223-.076-18.653A.875.875,0,1,1,16.866.639c2.183,5.851,1.112,13.113.168,19.52a53.932,53.932,0,0,0-.883,9.426,17.42,17.42,0,0,0,4.134,9.725,19.99,19.99,0,0,0,7.082,5.673c1.313.545,2.353.647,2.93.288a1.535,1.535,0,0,0,.619-1.073.875.875,0,0,1,1.228-.746,4.465,4.465,0,0,1,2.408,4.157,2.579,2.579,0,0,1-.868,1.992A5.017,5.017,0,0,1,30.458,50.554Z" transform="translate(0 16.965)" fill="#901915"/>
        <path id="Path_216286" data-name="Path 216286" d="M6.227,21.232c0-4.268,6.227-4.478,6.227-4.478-5.177.42-4.9-6.3-4.9-6.3l-.07-.42c0-.07-.56-3.778,1.4-5.877.979-1.119,2.589-1.539,4.757-1.4A1.31,1.31,0,0,0,15.112,1.5,1.347,1.347,0,0,0,13.853.034c-3.008-.21-5.317.56-6.926,2.239-2.8,3.008-2.1,7.906-2.029,8.116,0,0,.28,6.786-4.9,6.3C0,16.755,6.227,16.965,6.227,21.232Z" transform="translate(3.593 0.875)" fill="#76ae43"/>
        <path id="Path_216287" data-name="Path 216287" d="M.49,11.824h0Zm-.42,0h0Zm6.786,2.449a3.674,3.674,0,0,0-.63,2.029,3.147,3.147,0,0,0-.42-1.679A3.1,3.1,0,0,1,6.856,14.272Zm5.6-2.449h0ZM4.268,9.305a9.856,9.856,0,0,0,.7-3.778,12.754,12.754,0,0,1,0-3.5,4.247,4.247,0,0,1,.49-.7A4.448,4.448,0,0,1,8.4,0a9.031,9.031,0,0,0-.84,5.107l.07.42s-.28,6.716,4.827,6.3c-.49,0-3.568.28-5.177,1.959C5.177,13.083,4.478,10.844,4.268,9.305Z" transform="translate(3.593 5.806)" fill="#accd69"/>
        <path id="Path_216288" data-name="Path 216288" d="M7.1,22.982a.875.875,0,0,1-.875-.875c0-2.487-2.847-3.354-5.235-3.644L.8,18.439a.887.887,0,0,1-.8-.879.875.875,0,0,1,.957-.871c.15.014.3.021.439.021a2.81,2.81,0,0,0,2.142-.851,5.518,5.518,0,0,0,1.224-2.823A9.592,9.592,0,0,0,4.9,11.36a12.639,12.639,0,0,1-.059-3.195,9.549,9.549,0,0,1,2.32-5.614l.009-.009A8.764,8.764,0,0,1,13.781,0c.327,0,.665.012,1.007.036h.018a2.277,2.277,0,0,1,1.526.77,2.189,2.189,0,0,1,.528,1.61,2.182,2.182,0,0,1-2.213,2.1c-.065,0-.131,0-.2-.008-.245-.016-.484-.024-.709-.024a4.19,4.19,0,0,0-3.324,1.127l-.019.021C8.941,7.2,9.131,9.957,9.224,10.767l0,.032.065.39a.875.875,0,0,1,.011.18c0,.029-.1,3.014,1.366,4.536a2.891,2.891,0,0,0,2.2.869c.059,0,.119,0,.179,0,.148-.011.237-.014.247-.015a.875.875,0,0,1,.1,1.746c-.081.007-.162.012-.242.015-.9.072-5.181.573-5.181,3.591A.875.875,0,0,1,7.1,22.982ZM4.367,17.468c.173.068.347.142.52.223A5.765,5.765,0,0,1,7.1,19.4,5.725,5.725,0,0,1,9.315,17.7c.163-.076.328-.146.493-.21a4.716,4.716,0,0,1-.4-.375c-1.825-1.9-1.861-5.107-1.851-5.718L7.5,11.057q-.006-.035-.009-.071l0-.019a11.521,11.521,0,0,1-.01-2.534A6.787,6.787,0,0,1,9.111,4.45a4.7,4.7,0,0,1,2-1.319,7.968,7.968,0,0,1,2.626-.394c.266,0,.546.009.832.028l.023,0,.051,0a.435.435,0,0,0,.465-.391q0-.04,0-.079a.449.449,0,0,0-.1-.345.536.536,0,0,0-.355-.173c-.3-.021-.592-.031-.875-.031a7.09,7.09,0,0,0-5.344,2A7.9,7.9,0,0,0,6.6,8.2a11.188,11.188,0,0,0,.021,2.837.875.875,0,0,1,.029.189c.006.153.132,3.782-1.846,5.843A4.65,4.65,0,0,1,4.367,17.468Z" transform="translate(2.719 0)" fill="#557f2e"/>
      </g>
      <g id="chilli-3" data-name="chilli" transform="translate(-843.089 -11456.241) rotate(-30)">
        <path id="Path_216283-2" data-name="Path 216283" d="M2.292,0C1.383,2.847-9.337,38.823,24.944,42.215c0,0,3.452.424,3.452-1.756a3.119,3.119,0,0,0-1.635-2.907s-.182,2.968-4.119,1.332S12.83,31.494,12.467,24.893c-.3-6.481,3.513-17.2.666-24.832" transform="translate(0.875 15.561)" fill="#e31d17"/>
        <path id="Path_216284-2" data-name="Path 216284" d="M1.272,3.028,0,0H3.089c2.847,7.631-.969,18.352-.666,24.832.3,6.6,6.238,12.356,10.115,13.991s4.119-1.332,4.119-1.332A3.119,3.119,0,0,1,18.291,40.4c0,1.211-1.09,1.635-2.059,1.756-1.393,0-1.454-.606-2.3-.061a41.087,41.087,0,0,1-4.24-.727C5.875,39.247.848,33.917.606,27.921c-.3-6.541,3.513-17.2.666-24.893Z" transform="translate(11.04 15.621)" fill="#f08d8f"/>
        <path id="Path_216285-2" data-name="Path 216285" d="M26.479,44a6.668,6.668,0,0,1-.756-.04c-9.908-.982-17.079-4.746-21.314-11.188C-3.665,20.49,1.7,2.608,2.334.609A.875.875,0,1,1,4,1.141C3.388,3.058-1.758,20.207,5.871,31.81,9.8,37.791,16.543,41.293,25.9,42.219l.02,0a3.641,3.641,0,0,0,2.271-.387.6.6,0,0,0,.2-.5,2.543,2.543,0,0,0-.387-1.419,2.639,2.639,0,0,1-.8.778c-.987.616-2.341.573-4.026-.126a18.734,18.734,0,0,1-6.771-5.389,16.688,16.688,0,0,1-3.942-9.361v-.007a47.632,47.632,0,0,1,.78-8.477c.789-5.352,1.683-11.418-.06-16.09A.875.875,0,0,1,14.827.63c1.9,5.094.971,11.4.151,16.956a46.636,46.636,0,0,0-.764,8.137,14.964,14.964,0,0,0,3.553,8.351,17.183,17.183,0,0,0,6.084,4.877,2.967,2.967,0,0,0,2.419.264,1.208,1.208,0,0,0,.492-.848.854.854,0,0,1,.409-.694.872.872,0,0,1,.818-.046,3.986,3.986,0,0,1,2.155,3.706,2.347,2.347,0,0,1-.791,1.812A4.466,4.466,0,0,1,26.479,44Z" transform="translate(0 14.686)" fill="#901915"/>
        <path id="Path_216286-2" data-name="Path 216286" d="M5.39,18.381c0-3.695,5.39-3.876,5.39-3.876-4.482.363-4.24-5.451-4.24-5.451L6.481,8.69C6.481,8.63,6,5.42,7.692,3.6,8.54,2.634,9.933,2.27,11.81,2.391A1.134,1.134,0,0,0,13.082,1.3,1.166,1.166,0,0,0,11.992.029,7.188,7.188,0,0,0,6,1.967C3.573,4.572,4.179,8.811,4.24,8.993c0,0,.242,5.875-4.24,5.451,0,.061,5.39.242,5.39,3.937Z" transform="translate(3.227 0.875)" fill="#76ae43"/>
        <path id="Path_216287-2" data-name="Path 216287" d="M.424,10.236h0Zm-.363,0h0Zm5.875,2.12a3.18,3.18,0,0,0-.545,1.756,2.725,2.725,0,0,0-.363-1.454A2.679,2.679,0,0,1,5.936,12.356Zm4.845-2.12h0ZM3.695,8.055A8.532,8.532,0,0,0,4.3,4.785a11.041,11.041,0,0,1,0-3.028,3.676,3.676,0,0,1,.424-.606A3.85,3.85,0,0,1,7.268,0a7.818,7.818,0,0,0-.727,4.421l.061.363s-.242,5.814,4.179,5.451c-.424,0-3.089.242-4.482,1.7C4.482,11.326,3.876,9.388,3.695,8.055Z" transform="translate(3.227 5.143)" fill="#accd69"/>
        <path id="Path_216288-2" data-name="Path 216288" d="M6.265,20.13a.875.875,0,0,1-.875-.875c0-2.067-2.408-2.793-4.429-3.038L.8,16.2a.878.878,0,1,1,.16-1.748c.126.012.25.018.369.018a2.321,2.321,0,0,0,1.766-.7C4.217,12.6,4.246,10.358,4.241,9.962a10.952,10.952,0,0,1-.05-2.788A8.382,8.382,0,0,1,6.23,2.246l.009-.009A7.7,7.7,0,0,1,12.047,0c.285,0,.582.011.88.031h.018a2.088,2.088,0,0,1,1.4.707,2.011,2.011,0,0,1,.486,1.476A2.007,2.007,0,0,1,12.8,4.146c-.059,0-.119,0-.178-.008-.209-.013-.413-.02-.605-.02a3.521,3.521,0,0,0-2.789.935l-.019.021C7.978,6.39,8.141,8.737,8.22,9.425l0,.025.056.335a.875.875,0,0,1,.011.18c0,.024-.082,2.561,1.15,3.841a2.444,2.444,0,0,0,1.97.713c.13-.01.208-.013.216-.013a.875.875,0,0,1,.1,1.746c-.071.006-.142.01-.212.013-.765.061-4.375.484-4.375,2.991A.875.875,0,0,1,6.265,20.13ZM4.122,15.2q.138.058.276.122a5.208,5.208,0,0,1,1.867,1.4,5.172,5.172,0,0,1,1.868-1.392q.127-.059.254-.112-.109-.1-.212-.206c-1.6-1.667-1.643-4.455-1.635-5.023l-.047-.281q-.006-.035-.009-.069l0-.015A10.1,10.1,0,0,1,6.473,7.4,5.99,5.99,0,0,1,7.918,3.891a5.2,5.2,0,0,1,4.1-1.522c.233,0,.478.008.728.024l.023,0,.033,0c.137,0,.285-.084.285-.221q0-.04,0-.079a.272.272,0,0,0-.062-.211.347.347,0,0,0-.229-.11c-.254-.017-.506-.026-.747-.026A6.026,6.026,0,0,0,7.507,3.442,6.72,6.72,0,0,0,5.946,7.218a9.471,9.471,0,0,0,.016,2.433.875.875,0,0,1,.027.181c.006.135.116,3.325-1.631,5.145Q4.243,15.1,4.122,15.2Z" transform="translate(2.353 0)" fill="#557f2e"/>
      </g>
    </g>
  </g>
</svg>
