<svg xmlns="http://www.w3.org/2000/svg" width="77.9" height="55.44" viewBox="0 0 77.9 55.44">
  <g id="Group_158490" data-name="Group 158490" transform="translate(-195.998 -195.546)">
    <g id="Group_158359" data-name="Group 158359" transform="translate(-7)">
      <g id="Shape_Abstract_Rain_by_Streamlinehq" data-name="Shape Abstract Rain by Streamlinehq" transform="translate(281.792 229.506) rotate(90)">
        <path id="Path_214891" data-name="Path 214891" d="M3.091,13.83c.187-.561.353-.546.834-.638,1.112,0,1.117,1.258,1.218,2.139a2.16,2.16,0,0,1-.1,1.485c-.148.2-.146.29-.419.29a2.444,2.444,0,0,1-.7-.161,1.35,1.35,0,0,1-.837-1.06A6.949,6.949,0,0,1,3.056,14.7,2.943,2.943,0,0,1,3.091,13.83Z" fill="#2e3120"/>
        <path id="Path_214892" data-name="Path 214892" d="M17.833,11.361c.2-.779.379-.758.9-.886.331,0,1,.165,1,.729,0,.76.245,1.487.312,2.241a3.816,3.816,0,0,1-.111,2.062c-.319.571-.653.375-1.2.179a1.855,1.855,0,0,1-.9-1.472,12.457,12.457,0,0,1-.035-1.646A5.262,5.262,0,0,1,17.833,11.361Z" fill="#2e3120"/>
        <path id="Path_214893" data-name="Path 214893" d="M9.866,12.569c.256-.561.484-.546,1.144-.638,1.323,0,1.49.988,1.67,2.139.074.474.263,1.077-.141,1.485-.2.2-.2.29-.574.29a4.426,4.426,0,0,1-.954-.161,1.523,1.523,0,0,1-1.149-1.06,5.078,5.078,0,0,1-.044-1.185A2.16,2.16,0,0,1,9.866,12.569Z" fill="#2e3120"/>
        <path id="Path_214894" data-name="Path 214894" d="M6.657,7.617c0-.767-.009-1.682,1.044-1.845,1.652,0,1.16,2.072,1.16,3.208a1.633,1.633,0,0,1-.551,1.36c-.338.227-1.146-.142-1.35-.372C6.509,9.46,6.657,8.208,6.657,7.617Z" fill="#2e3120"/>
        <path id="Path_214895" data-name="Path 214895" d="M14.829,20.313c0-.767-.01-1.682,1.044-1.845,1.652,0,1.159,2.072,1.159,3.208a1.633,1.633,0,0,1-.551,1.36c-.338.227-1.146-.142-1.35-.372C14.681,22.156,14.829,20.9,14.829,20.313Z" fill="#2e3120"/>
        <path id="Path_214896" data-name="Path 214896" d="M8.015,18.695c.1-.153.4-.176.549-.226.368,0,.713-.031.986.3a2.312,2.312,0,0,1,.188.675,6.2,6.2,0,0,1,.013,1.573c-.014.321-.181.884-.5.961a1.244,1.244,0,0,1-1.226-.442,1.748,1.748,0,0,1-.188-.807c-.018-.323-.06-.634-.058-.959A2.131,2.131,0,0,1,8.015,18.695Z" fill="#2e3120"/>
        <path id="Path_214897" data-name="Path 214897" d="M19.484,1.161c.087-.181.33-.208.454-.266.3,0,.59-.037.815.36a3.663,3.663,0,0,1,.156.8,10.406,10.406,0,0,1,.011,1.855c-.012.378-.15,1.043-.412,1.134A.888.888,0,0,1,19.5,4.519a2.8,2.8,0,0,1-.156-.952c-.015-.381-.05-.748-.048-1.132A3.432,3.432,0,0,1,19.484,1.161Z" fill="#2e3120"/>
        <path id="Path_214898" data-name="Path 214898" d="M13.023,4.762c.1-.229.4-.263.549-.337.368,0,.713-.046.986.456a4.846,4.846,0,0,1,.188,1.01,13.838,13.838,0,0,1,.013,2.351c-.014.48-.181,1.322-.5,1.437a1.06,1.06,0,0,1-1.226-.661,3.707,3.707,0,0,1-.188-1.206c-.019-.483-.061-.948-.058-1.434A4.543,4.543,0,0,1,13.023,4.762Z" fill="#2e3120"/>
      </g>
    </g>
    <g id="cotton" transform="matrix(0.891, -0.454, 0.454, 0.891, 41.762, 186.39)">
      <path id="Path_216288" data-name="Path 216288" d="M157.689,109.424a10.683,10.683,0,0,0,.245-2.346,12.343,12.343,0,0,0-24.66,0,11.553,11.553,0,0,0,.2,2.07A11.82,11.82,0,0,0,125.3,120.22,12.065,12.065,0,0,0,137.63,132a12.6,12.6,0,0,0,7.637-2.546,12.587,12.587,0,0,0,7.775,2.638c6.809,0,12.345-5.275,12.345-11.778A11.8,11.8,0,0,0,157.689,109.424Z" fill="#dfd8b6" stroke="#c1bca2" stroke-width="1"/>
      <path id="Path_216289" data-name="Path 216289" d="M133.834,125.854a11.8,11.8,0,0,1,8.174-11.072,11.554,11.554,0,0,1-.2-2.07,12.065,12.065,0,0,1,12.33-11.778,6.761,6.761,0,0,1,4.095,1.442.257.257,0,0,0,.322-.4A8.616,8.616,0,0,0,152.6,99.4a12.065,12.065,0,0,0-12.33,11.778,11.554,11.554,0,0,0,.2,2.07A11.82,11.82,0,0,0,132.3,124.32a11.3,11.3,0,0,0,1.764,6.073.335.335,0,0,0,.6-.291A11.271,11.271,0,0,1,133.834,125.854Z" transform="translate(-5.927 -3.471)" fill="#fffbe9"/>
      <path id="Path_216290" data-name="Path 216290" d="M238.982,252.8a5.721,5.721,0,0,0,0,10.152,5.721,5.721,0,0,0,0-10.152Z" transform="translate(-93.639 -133.346)" fill="#d5b371"/>
      <path id="Path_216291" data-name="Path 216291" d="M190.8,289.334a5.946,5.946,0,0,0,4.064,4.4,6.326,6.326,0,0,0,6.012-1.2,5.946,5.946,0,0,0-4.064-4.4A6.334,6.334,0,0,0,190.8,289.334Z" transform="translate(-55.455 -163.01)" fill="#d5b371"/>
      <path id="Path_216292" data-name="Path 216292" d="M265.037,291.654a6.394,6.394,0,0,0-5.981-1.38,5.864,5.864,0,0,0-4.156,4.279,6.394,6.394,0,0,0,5.981,1.38A5.889,5.889,0,0,0,265.037,291.654Z" transform="translate(-109.725 -164.87)" fill="#bc9d66"/>
      <path id="Path_216293" data-name="Path 216293" d="M248.074,331.6a9.45,9.45,0,0,1-6.681-16.132l.868.868a8.222,8.222,0,0,0,7.15,13.928l.2,1.211A9.49,9.49,0,0,1,248.074,331.6Z" transform="translate(-95.946 -186.407)" fill="#bc9d66"/>
    </g>
    <g id="cotton-2" data-name="cotton" transform="translate(259.919 252.876) rotate(-173)">
      <path id="Path_216288-2" data-name="Path 216288" d="M32.389,22.666a10.684,10.684,0,0,1,.245,2.346A12.065,12.065,0,0,1,20.3,36.79,12.065,12.065,0,0,1,7.975,25.012a11.552,11.552,0,0,1,.2-2.07A11.82,11.82,0,0,1,0,11.87,12.065,12.065,0,0,1,12.33.092a12.6,12.6,0,0,1,7.637,2.546A12.587,12.587,0,0,1,27.742,0c6.809,0,12.345,5.275,12.345,11.778A11.8,11.8,0,0,1,32.389,22.666Z" transform="translate(0 13.106)" fill="#dfd8b6" stroke="#c1bca2" stroke-width="1"/>
      <path id="Path_216289-2" data-name="Path 216289" d="M1.534,4.7A11.8,11.8,0,0,0,9.708,15.768a11.554,11.554,0,0,0-.2,2.07,12.065,12.065,0,0,0,12.33,11.778,6.762,6.762,0,0,0,4.095-1.442.257.257,0,0,1,.322.4,8.616,8.616,0,0,1-5.95,2.576A12.065,12.065,0,0,1,7.975,19.372a11.555,11.555,0,0,1,.2-2.07A11.82,11.82,0,0,1,0,6.229,11.3,11.3,0,0,1,1.764.156a.335.335,0,0,1,.6.291A11.271,11.271,0,0,0,1.534,4.7Z" transform="translate(1.073 18.118)" fill="#fffbe9"/>
      <path id="Path_216290-2" data-name="Path 216290" d="M3.082,10.152A5.824,5.824,0,0,1,0,5.076,5.855,5.855,0,0,1,3.083,0,5.824,5.824,0,0,1,6.165,5.076,5.806,5.806,0,0,1,3.082,10.152Z" transform="translate(16.961 15.59)" fill="#d5b371"/>
      <path id="Path_216291-2" data-name="Path 216291" d="M0,4.7A5.946,5.946,0,0,1,4.064.3a6.326,6.326,0,0,1,6.012,1.2A5.946,5.946,0,0,1,6.012,5.9,6.334,6.334,0,0,1,0,4.7Z" transform="translate(10.045 14.17)" fill="#d5b371"/>
      <path id="Path_216292-2" data-name="Path 216292" d="M10.137,4.519A6.394,6.394,0,0,1,4.156,5.9,5.864,5.864,0,0,1,0,1.62,6.394,6.394,0,0,1,5.981.24,5.889,5.889,0,0,1,10.137,4.519Z" transform="translate(19.875 13.893)" fill="#bc9d66"/>
      <path id="Path_216293-2" data-name="Path 216293" d="M9.449,0A9.45,9.45,0,0,0,2.768,16.131l.868-.868a8.222,8.222,0,0,1,7.15-13.928l.2-1.211A9.49,9.49,0,0,0,9.449,0Z" transform="translate(17.379 0)" fill="#bc9d66"/>
    </g>
  </g>
</svg>
