<svg xmlns="http://www.w3.org/2000/svg" width="76.188" height="56.351" viewBox="0 0 76.188 56.351">
  <g id="Group_158358" data-name="Group 158358" transform="translate(-31.734 -193.628)">
    <g id="Shape_Abstract_Rain_by_Streamlinehq" data-name="Shape Abstract Rain by Streamlinehq" transform="translate(108.816 229.02) rotate(90)">
      <path id="Path_214891" data-name="Path 214891" d="M3.091,13.83c.187-.561.353-.546.834-.638,1.112,0,1.117,1.258,1.218,2.139a2.16,2.16,0,0,1-.1,1.485c-.148.2-.146.29-.419.29a2.444,2.444,0,0,1-.7-.161,1.35,1.35,0,0,1-.837-1.06A6.949,6.949,0,0,1,3.056,14.7,2.943,2.943,0,0,1,3.091,13.83Z" fill="#2e3120"/>
      <path id="Path_214892" data-name="Path 214892" d="M17.833,11.361c.2-.779.379-.758.9-.886.331,0,1,.165,1,.729,0,.76.245,1.487.312,2.241a3.816,3.816,0,0,1-.111,2.062c-.319.571-.653.375-1.2.179a1.855,1.855,0,0,1-.9-1.472,12.457,12.457,0,0,1-.035-1.646A5.262,5.262,0,0,1,17.833,11.361Z" fill="#2e3120"/>
      <path id="Path_214893" data-name="Path 214893" d="M9.866,12.569c.256-.561.484-.546,1.144-.638,1.323,0,1.49.988,1.67,2.139.074.474.263,1.077-.141,1.485-.2.2-.2.29-.574.29a4.426,4.426,0,0,1-.954-.161,1.523,1.523,0,0,1-1.149-1.06,5.078,5.078,0,0,1-.044-1.185A2.16,2.16,0,0,1,9.866,12.569Z" fill="#2e3120"/>
      <path id="Path_214894" data-name="Path 214894" d="M6.657,7.617c0-.767-.009-1.682,1.044-1.845,1.652,0,1.16,2.072,1.16,3.208a1.633,1.633,0,0,1-.551,1.36c-.338.227-1.146-.142-1.35-.372C6.509,9.46,6.657,8.208,6.657,7.617Z" fill="#2e3120"/>
      <path id="Path_214895" data-name="Path 214895" d="M14.829,20.313c0-.767-.01-1.682,1.044-1.845,1.652,0,1.159,2.072,1.159,3.208a1.633,1.633,0,0,1-.551,1.36c-.338.227-1.146-.142-1.35-.372C14.681,22.156,14.829,20.9,14.829,20.313Z" fill="#2e3120"/>
      <path id="Path_214896" data-name="Path 214896" d="M8.015,18.695c.1-.153.4-.176.549-.226.368,0,.713-.031.986.3a2.312,2.312,0,0,1,.188.675,6.2,6.2,0,0,1,.013,1.573c-.014.321-.181.884-.5.961a1.244,1.244,0,0,1-1.226-.442,1.748,1.748,0,0,1-.188-.807c-.018-.323-.06-.634-.058-.959A2.131,2.131,0,0,1,8.015,18.695Z" fill="#2e3120"/>
      <path id="Path_214897" data-name="Path 214897" d="M19.484,1.161c.087-.181.33-.208.454-.266.3,0,.59-.037.815.36a3.663,3.663,0,0,1,.156.8,10.406,10.406,0,0,1,.011,1.855c-.012.378-.15,1.043-.412,1.134A.888.888,0,0,1,19.5,4.519a2.8,2.8,0,0,1-.156-.952c-.015-.381-.05-.748-.048-1.132A3.432,3.432,0,0,1,19.484,1.161Z" fill="#2e3120"/>
      <path id="Path_214898" data-name="Path 214898" d="M13.023,4.762c.1-.229.4-.263.549-.337.368,0,.713-.046.986.456a4.846,4.846,0,0,1,.188,1.01,13.838,13.838,0,0,1,.013,2.351c-.014.48-.181,1.322-.5,1.437a1.06,1.06,0,0,1-1.226-.661,3.707,3.707,0,0,1-.188-1.206c-.019-.483-.061-.948-.058-1.434A4.543,4.543,0,0,1,13.023,4.762Z" fill="#2e3120"/>
    </g>
    <g id="garlic" transform="matrix(0.978, 0.208, -0.208, 0.978, 13.327, 187.287)">
      <path id="Path_214770" data-name="Path 214770" d="M100.531,100.7a40.159,40.159,0,0,1-.48,7.222c-.175.6-.464,1.469-.794,2.426-.752,2.175-1.717,4.793-2.037,5.665-1.506,4.1-2.075,10.386,0,13.552q.1.155.208.3l-.006,0a5.962,5.962,0,0,1-8.317-3.136q-.069-.184-.129-.374c-1.131-3.654,1.085-9.292,5.121-12.876a26.087,26.087,0,0,0,4.747-6.328,13.351,13.351,0,0,0,.848-2.04A19.923,19.923,0,0,0,100.531,100.7Z" transform="translate(-31.578 -88.094)" fill="#fff5cc"/>
      <path id="Path_214771" data-name="Path 214771" d="M90.694,126.734q-.069-.184-.129-.374c-1.131-3.654,1.085-9.292,5.121-12.876a25.83,25.83,0,0,0,4.4-5.7,43.592,43.592,0,0,0,.444-7.088,19.923,19.923,0,0,1-.84,4.417,13.352,13.352,0,0,1-.848,2.04,26.087,26.087,0,0,1-4.747,6.328c-4.036,3.584-6.252,9.222-5.121,12.876q.06.191.129.374a5.944,5.944,0,0,0,6.37,3.757A5.889,5.889,0,0,1,90.694,126.734Z" transform="translate(-31.578 -88.094)" fill="#efecb4"/>
      <path id="Path_214772" data-name="Path 214772" d="M190.188,87.375a13.685,13.685,0,0,1,0,13.552q-.207.329-.434.621c-2.554,3.308-6.672,2.969-9.048-.319q-.107-.147-.208-.3c-2.075-3.165-1.506-9.456,0-13.552.32-.872,1.286-3.49,2.037-5.665,1.73-4.785,3.367-6.061,4.055-12.12.02.66.041,1.355.061,2.059.094,3.085.2,6.343.252,7.635C187.082,83.374,188.99,85.319,190.188,87.375Z" transform="translate(-114.856 -59.456)" fill="#fff5cc"/>
      <path id="Path_214773" data-name="Path 214773" d="M183.884,101.228q-.107-.147-.208-.3c-2.075-3.165-1.506-9.456,0-13.552.32-.872,1.286-3.49,2.037-5.665.4-1.1.794-2.021,1.173-2.854-.058-1.493-.15-4.42-.234-7.207-.021-.7-.041-1.4-.061-2.059-.688,6.059-2.325,7.335-4.055,12.12-.752,2.175-1.717,4.793-2.037,5.665-1.506,4.1-2.075,10.386,0,13.552q.1.155.208.3a5.547,5.547,0,0,0,6.284,2.377A6.349,6.349,0,0,1,183.884,101.228Z" transform="translate(-114.856 -59.456)" fill="#efecb4"/>
      <path id="Path_214774" data-name="Path 214774" d="M73.615,156.29a13.353,13.353,0,0,1-.848,2.04,26.087,26.087,0,0,1-4.747,6.328c-4.036,3.584-6.252,9.222-5.121,12.876q.06.191.129.374l-.016.006a5.838,5.838,0,0,1-2.567-4.107c-.529-3.788,1.192-8.007,6.675-11.1a15.23,15.23,0,0,0,6.495-6.415Z" transform="translate(-5.502 -139.267)" fill="#fff5cc"/>
      <path id="Path_214775" data-name="Path 214775" d="M66.677,244.738A18.407,18.407,0,0,1,67,237.892c-5.389,3.089-7.082,7.274-6.556,11.034a5.838,5.838,0,0,0,2.567,4.107l.016-.006a5.962,5.962,0,0,0,8.317,3.136l.006,0a5.554,5.554,0,0,0,6.241,2.392C72.087,256.893,67.619,251.562,66.677,244.738Z" transform="translate(-5.502 -214.385)" fill="#b7b391" opacity="0.5"/>
      <path id="Path_214776" data-name="Path 214776" d="M279.938,109.033c4.036,3.584,6.251,9.222,5.12,12.876,0,.01-.006.021-.01.032A5.859,5.859,0,0,1,276.7,125.4a7.548,7.548,0,0,0,.434-.621,13.685,13.685,0,0,0,0-13.552c-1.2-2.056-3.107-4-3.285-8.091-.056-1.293-.158-4.55-.252-7.635h0c.28,1.648.6,3.374.968,4.83a17.877,17.877,0,0,0,.623,2.04A21.672,21.672,0,0,0,279.938,109.033Z" transform="translate(-201.805 -83.307)" fill="#fff5cc"/>
      <path id="Path_214777" data-name="Path 214777" d="M278.292,125.4a7.556,7.556,0,0,0,.434-.621,13.685,13.685,0,0,0,0-13.552c-1.2-2.056-3.107-4-3.285-8.091,0-.064-.006-.135-.009-.208q-.13-.274-.241-.557a17.889,17.889,0,0,1-.623-2.04c-.366-1.456-.687-3.182-.968-4.83h0c.094,3.085.2,6.343.252,7.635.178,4.089,2.086,6.034,3.285,8.091a13.685,13.685,0,0,1,0,13.552q-.207.329-.434.621a5.839,5.839,0,0,0,3.531.623A5.761,5.761,0,0,1,278.292,125.4Z" transform="translate(-201.805 -83.307)" fill="#efecb4"/>
      <path id="Path_214778" data-name="Path 214778" d="M292.2,162.705c5.483,3.1,7.2,7.314,6.675,11.1a5.838,5.838,0,0,1-2.567,4.107l-.041-.013c0-.01.007-.021.01-.032,1.131-3.654-1.084-9.292-5.12-12.876a21.673,21.673,0,0,1-4.747-6.664,17.875,17.875,0,0,1-.623-2.04,15.122,15.122,0,0,0,6.412,6.415Z" transform="translate(-213.026 -139.267)" fill="#fff5cc"/>
      <path id="Path_214779" data-name="Path 214779" d="M225.845,15.654h0c-.688,6.059-2.325,7.335-4.055,12.12.33-.957.619-1.827.794-2.426a40.155,40.155,0,0,0,.48-7.222c.033-3.121-.032-6.007-.032-6.007L225.71,11S225.769,13.063,225.845,15.654Z" transform="translate(-154.111 -5.521)" fill="#50dd5a"/>
      <path id="Path_214780" data-name="Path 214780" d="M67.669,16.847c-.446.928-1.779,3.632-6.285,6.176A14.455,14.455,0,0,0,55.608,28.5a9.8,9.8,0,0,0-1.137,6.106,6.3,6.3,0,0,0,2.677,4.369A6.28,6.28,0,0,0,60.8,42.51a6.581,6.581,0,0,0,2.309.421,6.3,6.3,0,0,0,2.6-.557,6.292,6.292,0,0,0,4.758,2.514h.087a5.862,5.862,0,0,0,4.474-2.2,6.274,6.274,0,0,0,2.6.564,6.425,6.425,0,0,0,2.431-.48,6.234,6.234,0,0,0,3.563-3.781,6.3,6.3,0,0,0,2.7-4.384A9.8,9.8,0,0,0,85.187,28.5a14.454,14.454,0,0,0-5.776-5.478,14.347,14.347,0,0,1-6.2-6.164c-.392-1.57-.725-3.437-.944-4.72-.02-.689-.04-1.369-.06-2.016v0c-.076-2.592-.135-4.654-.135-4.654a.477.477,0,0,0-.661-.426L68.738,6.16a.477.477,0,0,0-.293.45c0,.029.064,2.9.032,5.971A19.582,19.582,0,0,1,67.669,16.847ZM55.416,34.474a8.853,8.853,0,0,1,1.029-5.515,13.525,13.525,0,0,1,5.408-5.106,19.408,19.408,0,0,0,3.289-2.272,21.4,21.4,0,0,1-2.94,3.453,17.721,17.721,0,0,0-4.625,6.593,11.5,11.5,0,0,0-.874,5.689A5.4,5.4,0,0,1,55.416,34.474Zm5.719,7.143a5.344,5.344,0,0,1-3.162-3.144q-.065-.172-.119-.347c-1.083-3.5,1.105-8.936,4.982-12.379a26.491,26.491,0,0,0,4.853-6.465A13.65,13.65,0,0,0,68.27,18a9.7,9.7,0,0,1-.254,1.695c-.154.529-.419,1.338-.787,2.4-.706,2.044-1.593,4.457-1.972,5.487l-.062.169a23.947,23.947,0,0,0-1.372,7.276,12.418,12.418,0,0,0,1.323,6.547,5.491,5.491,0,0,1-4.012.039Zm9.348,2.317a5.449,5.449,0,0,1-4.247-2.443q-.1-.138-.194-.281c-1.915-2.923-1.479-8.969.049-13.126l.062-.169c.379-1.032,1.268-3.449,1.977-5.5.558-1.542,1.1-2.7,1.619-3.814a26.821,26.821,0,0,0,1.641-4.116c.071,2.275.139,4.377.182,5.365a12.737,12.737,0,0,0,2.58,7.1c.276.419.536.814.769,1.213a13.246,13.246,0,0,1,.009,13.057q-.189.3-.408.583a5,5,0,0,1-4.039,2.134Zm12.312-5.462-.006.019a5.315,5.315,0,0,1-3.087,3.4,5.391,5.391,0,0,1-4.081.015q.058-.087.115-.178a13.17,13.17,0,0,0,1.858-6.477,14.015,14.015,0,0,0-1.849-7.569c-.246-.422-.513-.828-.8-1.258a11.923,11.923,0,0,1-2.423-6.614c-.021-.479-.048-1.222-.078-2.121a15.949,15.949,0,0,0,.5,1.548,21.959,21.959,0,0,0,4.875,6.848c3.877,3.442,6.065,8.88,4.981,12.379l0,.01ZM78.941,23.853a13.524,13.524,0,0,1,5.408,5.106,8.853,8.853,0,0,1,1.029,5.515,5.392,5.392,0,0,1-1.4,2.968,11.688,11.688,0,0,0-.9-5.479A17.716,17.716,0,0,0,78.45,25.37a21.966,21.966,0,0,1-3.726-4.71,18.081,18.081,0,0,0,4.217,3.193Zm-7.8-17.666c.023.811.065,2.257.114,3.926a21.18,21.18,0,0,1-1.982,7.24c.083-1.226.135-2.81.154-4.742.026-2.489-.01-4.853-.026-5.7Z" transform="translate(0)" fill="#b0ad7e"/>
    </g>
    <g id="garlic-2" data-name="garlic" transform="translate(-22.644 188.625)">
      <path id="Path_214770-2" data-name="Path 214770" d="M105.423,100.7c-.043,4.144-.207,8.583-.678,10.2-.247.845-.656,2.076-1.121,3.427-1.062,3.072-2.426,6.772-2.878,8-2.127,5.787-2.931,14.674,0,19.146q.143.219.294.425l-.009.007a8.423,8.423,0,0,1-11.751-4.431q-.1-.259-.182-.529c-1.6-5.162,1.532-13.128,7.235-18.192a36.857,36.857,0,0,0,6.706-8.94,18.862,18.862,0,0,0,1.2-2.882A28.147,28.147,0,0,0,105.423,100.7Z" transform="translate(-30.453 -84.955)" fill="#fff5cc"/>
      <path id="Path_214771-2" data-name="Path 214771" d="M91.525,137.482q-.1-.259-.182-.529c-1.6-5.162,1.532-13.128,7.235-18.192a36.492,36.492,0,0,0,6.217-8.048,61.587,61.587,0,0,0,.628-10.014,28.147,28.147,0,0,1-1.187,6.24,18.864,18.864,0,0,1-1.2,2.882,36.857,36.857,0,0,1-6.706,8.94c-5.7,5.064-8.833,13.029-7.235,18.192q.084.269.182.529a8.4,8.4,0,0,0,9,5.308A8.32,8.32,0,0,1,91.525,137.482Z" transform="translate(-30.453 -84.955)" fill="#efecb4"/>
      <path id="Path_214772-2" data-name="Path 214772" d="M194.746,94.717a19.334,19.334,0,0,1,0,19.146q-.293.465-.613.877c-3.608,4.673-9.427,4.195-12.783-.451q-.152-.207-.294-.425c-2.931-4.472-2.127-13.359,0-19.146.452-1.231,1.816-4.931,2.878-8,2.445-6.76,4.757-8.563,5.729-17.123.028.933.057,1.914.086,2.908.132,4.359.276,8.961.356,10.787C190.357,89.064,193.053,91.812,194.746,94.717Z" transform="translate(-110.764 -57.337)" fill="#fff5cc"/>
      <path id="Path_214773-2" data-name="Path 214773" d="M185.84,114.288q-.152-.207-.294-.425c-2.931-4.472-2.127-13.359,0-19.146.452-1.231,1.816-4.931,2.878-8,.564-1.56,1.121-2.856,1.657-4.032-.083-2.109-.211-6.245-.331-10.183-.029-.995-.058-1.976-.086-2.908-.972,8.56-3.284,10.363-5.729,17.123-1.062,3.072-2.426,6.772-2.878,8-2.127,5.787-2.931,14.674,0,19.146q.143.219.294.425c2.3,3.188,5.766,4.414,8.878,3.359A8.97,8.97,0,0,1,185.84,114.288Z" transform="translate(-110.764 -57.337)" fill="#efecb4"/>
      <path id="Path_214774-2" data-name="Path 214774" d="M79.089,156.29a18.865,18.865,0,0,1-1.2,2.882,36.856,36.856,0,0,1-6.706,8.94c-5.7,5.064-8.833,13.029-7.235,18.192q.084.269.182.529l-.022.009a8.248,8.248,0,0,1-3.627-5.8c-.748-5.351,1.684-11.312,9.43-15.685,2.486-1.4,6.815-4.145,9.176-9.063Z" transform="translate(-5.306 -134.305)" fill="#fff5cc"/>
      <path id="Path_214775-2" data-name="Path 214775" d="M69.287,247.564a26.006,26.006,0,0,1,.459-9.672c-7.613,4.364-10.005,10.277-9.263,15.589a8.248,8.248,0,0,0,3.627,5.8l.022-.009a8.423,8.423,0,0,0,11.751,4.431l.009-.007c2.288,3.168,5.721,4.4,8.817,3.379C76.93,264.736,70.617,257.205,69.287,247.564Z" transform="translate(-5.306 -206.747)" fill="#b7b391" opacity="0.5"/>
      <path id="Path_214776-2" data-name="Path 214776" d="M282.554,114.62c5.7,5.064,8.832,13.029,7.234,18.192,0,.015-.009.03-.015.045a8.278,8.278,0,0,1-11.79,4.884,10.669,10.669,0,0,0,.613-.877,19.334,19.334,0,0,0,0-19.146c-1.693-2.905-4.389-5.653-4.641-11.431-.08-1.826-.223-6.429-.356-10.787h0c.4,2.328.85,4.766,1.367,6.824a25.251,25.251,0,0,0,.88,2.882A30.618,30.618,0,0,0,282.554,114.62Z" transform="translate(-194.614 -80.339)" fill="#fff5cc"/>
      <path id="Path_214777-2" data-name="Path 214777" d="M280.229,137.741a10.684,10.684,0,0,0,.613-.877,19.334,19.334,0,0,0,0-19.146c-1.693-2.905-4.389-5.653-4.641-11.431,0-.091-.008-.191-.012-.295q-.184-.388-.34-.788a25.282,25.282,0,0,1-.88-2.882c-.518-2.058-.971-4.5-1.367-6.824h0c.132,4.359.276,8.961.356,10.787.251,5.778,2.948,8.526,4.641,11.431a19.334,19.334,0,0,1,0,19.146q-.293.465-.613.877a8.25,8.25,0,0,0,4.988.88A8.139,8.139,0,0,1,280.229,137.741Z" transform="translate(-194.614 -80.339)" fill="#efecb4"/>
      <path id="Path_214778-2" data-name="Path 214778" d="M294.849,165.353c7.747,4.373,10.178,10.334,9.43,15.685a8.248,8.248,0,0,1-3.627,5.8l-.057-.018c.006-.015.01-.03.015-.045,1.6-5.163-1.531-13.128-7.234-18.192a30.62,30.62,0,0,1-6.706-9.415,25.266,25.266,0,0,1-.88-2.882,21.364,21.364,0,0,0,9.059,9.063Z" transform="translate(-205.436 -134.305)" fill="#fff5cc"/>
      <path id="Path_214779-2" data-name="Path 214779" d="M227.519,17.576h0c-.972,8.56-3.285,10.363-5.729,17.123.466-1.352.874-2.582,1.121-3.427.471-1.621.635-6.059.678-10.2.046-4.409-.045-8.486-.045-8.486L227.329,11S227.412,13.914,227.519,17.576Z" transform="translate(-148.62 -5.324)" fill="#50dd5a"/>
      <path id="Path_214780-2" data-name="Path 214780" d="M73.155,21.736c-.63,1.311-2.514,5.131-8.879,8.726a20.423,20.423,0,0,0-8.16,7.739,13.846,13.846,0,0,0-1.606,8.626A8.9,8.9,0,0,0,58.292,53a8.873,8.873,0,0,0,5.159,4.994,9.3,9.3,0,0,0,3.262.595,8.9,8.9,0,0,0,3.674-.787,8.889,8.889,0,0,0,6.722,3.551h.123a8.281,8.281,0,0,0,6.321-3.109,8.864,8.864,0,0,0,3.677.8,9.077,9.077,0,0,0,3.435-.679A8.808,8.808,0,0,0,95.7,53.021a8.9,8.9,0,0,0,3.812-6.193A13.845,13.845,0,0,0,97.905,38.2a20.421,20.421,0,0,0-8.16-7.739c-4.2-2.371-7.061-5.22-8.754-8.709-.554-2.218-1.025-4.855-1.333-6.668-.029-.974-.057-1.934-.085-2.848v-.006c-.108-3.661-.191-6.575-.191-6.575a.674.674,0,0,0-.933-.6L74.666,6.638a.674.674,0,0,0-.413.636c0,.041.09,4.1.045,8.436A27.666,27.666,0,0,1,73.155,21.736ZM55.844,46.64A12.508,12.508,0,0,1,57.3,38.848a19.109,19.109,0,0,1,7.641-7.213,27.42,27.42,0,0,0,4.647-3.21A30.235,30.235,0,0,1,65.432,33.3,25.036,25.036,0,0,0,58.9,42.617a16.243,16.243,0,0,0-1.235,8.037A7.634,7.634,0,0,1,55.844,46.64Zm8.08,10.092a7.551,7.551,0,0,1-4.467-4.442q-.091-.243-.168-.49c-1.53-4.943,1.561-12.625,7.038-17.489a37.426,37.426,0,0,0,6.857-9.134A19.284,19.284,0,0,0,74,23.366a13.7,13.7,0,0,1-.359,2.394c-.218.747-.592,1.89-1.111,3.4-1,2.888-2.251,6.3-2.786,7.752l-.088.239a33.833,33.833,0,0,0-1.938,10.279c-.079,2.728.189,6.512,1.869,9.25a7.758,7.758,0,0,1-5.668.056Zm13.207,3.274a7.7,7.7,0,0,1-6-3.452q-.142-.195-.274-.4c-2.706-4.129-2.09-12.671.069-18.544l.088-.239c.536-1.459,1.791-4.873,2.793-7.772.788-2.178,1.55-3.81,2.288-5.388A37.893,37.893,0,0,0,78.411,18.4c.1,3.214.2,6.184.257,7.58.209,4.81,2.035,7.581,3.645,10.026.39.592.758,1.151,1.086,1.714a18.714,18.714,0,0,1,.012,18.447q-.268.426-.576.824a7.065,7.065,0,0,1-5.706,3.015Zm17.4-7.716-.009.026a7.509,7.509,0,0,1-4.361,4.8,7.616,7.616,0,0,1-5.766.021q.082-.123.163-.251a18.607,18.607,0,0,0,2.625-9.151,19.8,19.8,0,0,0-2.613-10.693c-.347-.6-.725-1.17-1.125-1.777a16.845,16.845,0,0,1-3.424-9.344c-.03-.677-.067-1.727-.11-3a22.531,22.531,0,0,0,.7,2.187,31.024,31.024,0,0,0,6.887,9.675c5.477,4.864,8.568,12.545,7.037,17.49a.086.086,0,0,0-.005.014ZM89.081,31.635a19.107,19.107,0,0,1,7.641,7.213,12.508,12.508,0,0,1,1.454,7.792,7.618,7.618,0,0,1-1.984,4.193,16.513,16.513,0,0,0-1.271-7.741,25.029,25.029,0,0,0-6.533-9.314,31.034,31.034,0,0,1-5.264-6.655,25.545,25.545,0,0,0,5.958,4.512ZM78.063,6.676c.033,1.146.092,3.189.161,5.547a29.923,29.923,0,0,1-2.8,10.229c.117-1.733.19-3.97.218-6.7.037-3.517-.014-6.857-.036-8.049Z" transform="translate(0)" fill="#b0ad7e"/>
    </g>
  </g>
</svg>
