<svg xmlns="http://www.w3.org/2000/svg" width="72.922" height="51.921" viewBox="0 0 72.922 51.921">
  <g id="Group_158361" data-name="Group 158361" transform="translate(-28 -198.867)">
    <g id="Shape_Abstract_Rain_by_Streamlinehq" data-name="Shape Abstract Rain by Streamlinehq" transform="translate(101.816 220.02) rotate(90)">
      <path id="Path_214891" data-name="Path 214891" d="M3.091,13.83c.187-.561.353-.546.834-.638,1.112,0,1.117,1.258,1.218,2.139a2.16,2.16,0,0,1-.1,1.485c-.148.2-.146.29-.419.29a2.444,2.444,0,0,1-.7-.161,1.35,1.35,0,0,1-.837-1.06A6.949,6.949,0,0,1,3.056,14.7,2.943,2.943,0,0,1,3.091,13.83Z" fill="#2e3120"/>
      <path id="Path_214892" data-name="Path 214892" d="M17.833,11.361c.2-.779.379-.758.9-.886.331,0,1,.165,1,.729,0,.76.245,1.487.312,2.241a3.816,3.816,0,0,1-.111,2.062c-.319.571-.653.375-1.2.179a1.855,1.855,0,0,1-.9-1.472,12.457,12.457,0,0,1-.035-1.646A5.262,5.262,0,0,1,17.833,11.361Z" fill="#2e3120"/>
      <path id="Path_214893" data-name="Path 214893" d="M9.866,12.569c.256-.561.484-.546,1.144-.638,1.323,0,1.49.988,1.67,2.139.074.474.263,1.077-.141,1.485-.2.2-.2.29-.574.29a4.426,4.426,0,0,1-.954-.161,1.523,1.523,0,0,1-1.149-1.06,5.078,5.078,0,0,1-.044-1.185A2.16,2.16,0,0,1,9.866,12.569Z" fill="#2e3120"/>
      <path id="Path_214894" data-name="Path 214894" d="M6.657,7.617c0-.767-.009-1.682,1.044-1.845,1.652,0,1.16,2.072,1.16,3.208a1.633,1.633,0,0,1-.551,1.36c-.338.227-1.146-.142-1.35-.372C6.509,9.46,6.657,8.208,6.657,7.617Z" fill="#2e3120"/>
      <path id="Path_214895" data-name="Path 214895" d="M14.829,20.313c0-.767-.01-1.682,1.044-1.845,1.652,0,1.159,2.072,1.159,3.208a1.633,1.633,0,0,1-.551,1.36c-.338.227-1.146-.142-1.35-.372C14.681,22.156,14.829,20.9,14.829,20.313Z" fill="#2e3120"/>
      <path id="Path_214896" data-name="Path 214896" d="M8.015,18.695c.1-.153.4-.176.549-.226.368,0,.713-.031.986.3a2.312,2.312,0,0,1,.188.675,6.2,6.2,0,0,1,.013,1.573c-.014.321-.181.884-.5.961a1.244,1.244,0,0,1-1.226-.442,1.748,1.748,0,0,1-.188-.807c-.018-.323-.06-.634-.058-.959A2.131,2.131,0,0,1,8.015,18.695Z" fill="#2e3120"/>
      <path id="Path_214897" data-name="Path 214897" d="M19.484,1.161c.087-.181.33-.208.454-.266.3,0,.59-.037.815.36a3.663,3.663,0,0,1,.156.8,10.406,10.406,0,0,1,.011,1.855c-.012.378-.15,1.043-.412,1.134A.888.888,0,0,1,19.5,4.519a2.8,2.8,0,0,1-.156-.952c-.015-.381-.05-.748-.048-1.132A3.432,3.432,0,0,1,19.484,1.161Z" fill="#2e3120"/>
      <path id="Path_214898" data-name="Path 214898" d="M13.023,4.762c.1-.229.4-.263.549-.337.368,0,.713-.046.986.456a4.846,4.846,0,0,1,.188,1.01,13.838,13.838,0,0,1,.013,2.351c-.014.48-.181,1.322-.5,1.437a1.06,1.06,0,0,1-1.226-.661,3.707,3.707,0,0,1-.188-1.206c-.019-.483-.061-.948-.058-1.434A4.543,4.543,0,0,1,13.023,4.762Z" fill="#2e3120"/>
    </g>
    <g id="Group_157927" data-name="Group 157927" transform="translate(355.993 8076.86)">
      <g id="bean" transform="matrix(0.719, 0.695, -0.695, 0.719, -293.862, -7867.991)">
        <path id="Path_214886" data-name="Path 214886" d="M28.679,6.062C31.938,15.448,18.573,31.24,8.353,28.955a11.226,11.226,0,0,1-8.13-8.13C-2.062,10.605,13.731-2.759,23.116.5A9.212,9.212,0,0,1,28.679,6.062Z" transform="translate(0.233 0.233)" fill="#89a25b"/>
        <ellipse id="Ellipse_3219" data-name="Ellipse 3219" cx="6.354" cy="2.421" rx="6.354" ry="2.421" transform="matrix(0.707, -0.707, 0.707, 0.707, 10.512, 19.561)" fill="#607042"/>
        <path id="Path_214887" data-name="Path 214887" d="M4.233,1.353c.035.8-.884,1.485-2.052,1.537S.036,2.338,0,1.54.885.055,2.053,0,4.2.555,4.233,1.353Z" transform="translate(16.61 2.013)" fill="#607042"/>
        <path id="Path_214888" data-name="Path 214888" d="M27.678,3.98c3.259,9.385-10.105,25.178-20.325,22.893A11.3,11.3,0,0,1,0,20.923a10.677,10.677,0,0,0,4.806,2.583C15.026,25.791,28.39,10,25.131.613Q25.023.3,24.89,0A9.15,9.15,0,0,1,27.678,3.98Z" transform="translate(1.233 2.316)" fill="#607042"/>
        <path id="Path_214889" data-name="Path 214889" d="M8.535,29.418a9.621,9.621,0,0,0,2.1.226A13.55,13.55,0,0,0,16.5,28.173a23.98,23.98,0,0,0,7.263-5.653,25.037,25.037,0,0,0,4.957-8.147,12.4,12.4,0,0,0,.413-8.154A9.456,9.456,0,0,0,23.426.511a12.4,12.4,0,0,0-8.154.413A25.037,25.037,0,0,0,7.124,5.882a23.98,23.98,0,0,0-5.653,7.263A12.246,12.246,0,0,0,.226,21.11,11.463,11.463,0,0,0,8.535,29.418ZM7.437,6.233a24.913,24.913,0,0,1,7.991-4.865,14.468,14.468,0,0,1,4.794-.9,9.267,9.267,0,0,1,3.049.485,8.975,8.975,0,0,1,5.418,5.418,11.937,11.937,0,0,1-.413,7.843,24.913,24.913,0,0,1-4.865,7.991c-3.953,4.432-8.676,6.966-12.78,6.966a9.131,9.131,0,0,1-1.995-.214A10.971,10.971,0,0,1,.686,21.007C-.321,16.506,2.266,10.845,7.437,6.233Zm5.688,15.59a4.351,4.351,0,0,0,1.72-.441,13.31,13.31,0,0,0,3.748-2.724,13.31,13.31,0,0,0,2.724-3.748c.568-1.267.588-2.258.057-2.789s-1.522-.511-2.789.057A13.31,13.31,0,0,0,14.838,14.9a13.31,13.31,0,0,0-2.724,3.748c-.568,1.267-.588,2.258-.057,2.789A1.455,1.455,0,0,0,13.125,21.823Zm2.046-6.589a12.835,12.835,0,0,1,3.608-2.627,3.925,3.925,0,0,1,1.527-.4,1.009,1.009,0,0,1,.737.248c.746.746-.193,3.284-2.781,5.872a12.836,12.836,0,0,1-3.608,2.627c-1.061.476-1.886.532-2.264.154C11.643,20.36,12.583,17.823,15.171,15.235ZM18.655,5.142c.049,0,.1,0,.147,0,1.3-.057,2.318-.857,2.277-1.783S19.95,1.723,18.653,1.781s-2.318.857-2.277,1.783C16.416,4.455,17.424,5.142,18.655,5.142Zm.019-2.891.124,0c.966,0,1.782.5,1.81,1.128.029.655-.808,1.247-1.827,1.292s-1.905-.47-1.934-1.125S17.654,2.3,18.674,2.251Z" transform="translate(0 0)" fill="#4a5436"/>
      </g>
      <g id="bean-2" data-name="bean" transform="translate(-327.993 -7877.994)">
        <path id="Path_214886-2" data-name="Path 214886" d="M41.072,11.814C45.29,23.96,28,44.4,14.77,41.439A14.528,14.528,0,0,1,4.249,30.918C1.291,17.693,21.728.4,33.874,4.616A11.921,11.921,0,0,1,41.072,11.814Z" transform="translate(-3.658 -3.667)" fill="#89a25b"/>
        <ellipse id="Ellipse_3219-2" data-name="Ellipse 3219" cx="8.223" cy="3.132" rx="8.223" ry="3.132" transform="matrix(0.707, -0.707, 0.707, 0.707, 13.603, 25.314)" fill="#607042"/>
        <path id="Path_214887-2" data-name="Path 214887" d="M287.837,35.972c.046,1.032-1.143,1.922-2.655,1.989s-2.776-.715-2.821-1.747,1.143-1.922,2.655-1.989S287.792,34.939,287.837,35.972Z" transform="translate(-260.864 -31.615)" fill="#607042"/>
        <path id="Path_214888-2" data-name="Path 214888" d="M56.784,44.514C61,56.659,43.707,77.1,30.481,74.139a14.625,14.625,0,0,1-9.515-7.7,13.817,13.817,0,0,0,6.219,3.342C40.41,72.739,57.7,52.3,53.487,40.156q-.139-.4-.311-.793A11.841,11.841,0,0,1,56.784,44.514Z" transform="translate(-19.37 -36.366)" fill="#607042"/>
        <path id="Path_214889-2" data-name="Path 214889" d="M11.045,38.07a12.451,12.451,0,0,0,2.721.293,17.535,17.535,0,0,0,7.587-1.9,31.033,31.033,0,0,0,9.4-7.315A32.4,32.4,0,0,0,37.166,18.6c1.387-3.917,1.572-7.566.535-10.552A12.236,12.236,0,0,0,30.315.661C27.329-.375,23.68-.19,19.763,1.2A32.4,32.4,0,0,0,9.219,7.612a31.033,31.033,0,0,0-7.315,9.4A15.847,15.847,0,0,0,.293,27.318,14.834,14.834,0,0,0,11.045,38.07Zm-1.42-30a32.24,32.24,0,0,1,10.341-6.3A18.723,18.723,0,0,1,26.17.609a11.993,11.993,0,0,1,3.945.628,11.614,11.614,0,0,1,7.011,7.011c.991,2.854.806,6.364-.534,10.149a32.24,32.24,0,0,1-6.3,10.341c-5.115,5.736-11.228,9.015-16.538,9.015a11.817,11.817,0,0,1-2.581-.277A14.2,14.2,0,0,1,.887,27.185C-.415,21.36,2.933,14.034,9.625,8.066Zm7.361,20.175a5.631,5.631,0,0,0,2.226-.571,17.225,17.225,0,0,0,4.851-3.525,17.224,17.224,0,0,0,3.525-4.851c.735-1.64.761-2.922.074-3.609s-1.969-.661-3.609.074A17.225,17.225,0,0,0,19.2,19.284a17.224,17.224,0,0,0-3.525,4.851c-.735,1.64-.762,2.922-.074,3.609A1.883,1.883,0,0,0,16.985,28.241Zm2.647-8.526a16.609,16.609,0,0,1,4.669-3.4,5.079,5.079,0,0,1,1.975-.52,1.306,1.306,0,0,1,.954.321c.966.966-.25,4.249-3.6,7.6a16.611,16.611,0,0,1-4.669,3.4c-1.373.615-2.441.688-2.929.2C15.068,26.347,16.283,23.064,19.632,19.715ZM24.14,6.654c.063,0,.127,0,.191,0,1.678-.074,3-1.109,2.946-2.307S25.816,2.23,24.139,2.3s-3,1.109-2.946,2.307C21.244,5.765,22.548,6.654,24.14,6.654Zm.025-3.741q.081,0,.161,0c1.25,0,2.306.647,2.342,1.46.038.848-1.045,1.613-2.365,1.672s-2.466-.608-2.5-1.456S22.846,2.972,24.166,2.913Z" transform="translate(0 0)" fill="#4a5436"/>
      </g>
    </g>
  </g>
</svg>
