<svg xmlns="http://www.w3.org/2000/svg" width="69.922" height="62.93" viewBox="0 0 69.922 62.93">
  <g id="Group_158491" data-name="Group 158491" transform="translate(-28 -196.071)">
    <g id="Group_158360" data-name="Group 158360">
      <g id="Shape_Abstract_Rain_by_Streamlinehq" data-name="Shape Abstract Rain by Streamlinehq" transform="translate(98.816 226.041) rotate(90)">
        <path id="Path_214891" data-name="Path 214891" d="M3.091,13.83c.187-.561.353-.546.834-.638,1.112,0,1.117,1.258,1.218,2.139a2.16,2.16,0,0,1-.1,1.485c-.148.2-.146.29-.419.29a2.444,2.444,0,0,1-.7-.161,1.35,1.35,0,0,1-.837-1.06A6.949,6.949,0,0,1,3.056,14.7,2.943,2.943,0,0,1,3.091,13.83Z" fill="#2e3120"/>
        <path id="Path_214892" data-name="Path 214892" d="M17.833,11.361c.2-.779.379-.758.9-.886.331,0,1,.165,1,.729,0,.76.245,1.487.312,2.241a3.816,3.816,0,0,1-.111,2.062c-.319.571-.653.375-1.2.179a1.855,1.855,0,0,1-.9-1.472,12.457,12.457,0,0,1-.035-1.646A5.262,5.262,0,0,1,17.833,11.361Z" fill="#2e3120"/>
        <path id="Path_214893" data-name="Path 214893" d="M9.866,12.569c.256-.561.484-.546,1.144-.638,1.323,0,1.49.988,1.67,2.139.074.474.263,1.077-.141,1.485-.2.2-.2.29-.574.29a4.426,4.426,0,0,1-.954-.161,1.523,1.523,0,0,1-1.149-1.06,5.078,5.078,0,0,1-.044-1.185A2.16,2.16,0,0,1,9.866,12.569Z" fill="#2e3120"/>
        <path id="Path_214894" data-name="Path 214894" d="M6.657,7.617c0-.767-.009-1.682,1.044-1.845,1.652,0,1.16,2.072,1.16,3.208a1.633,1.633,0,0,1-.551,1.36c-.338.227-1.146-.142-1.35-.372C6.509,9.46,6.657,8.208,6.657,7.617Z" fill="#2e3120"/>
        <path id="Path_214895" data-name="Path 214895" d="M14.829,20.313c0-.767-.01-1.682,1.044-1.845,1.652,0,1.159,2.072,1.159,3.208a1.633,1.633,0,0,1-.551,1.36c-.338.227-1.146-.142-1.35-.372C14.681,22.156,14.829,20.9,14.829,20.313Z" fill="#2e3120"/>
        <path id="Path_214896" data-name="Path 214896" d="M8.015,18.695c.1-.153.4-.176.549-.226.368,0,.713-.031.986.3a2.312,2.312,0,0,1,.188.675,6.2,6.2,0,0,1,.013,1.573c-.014.321-.181.884-.5.961a1.244,1.244,0,0,1-1.226-.442,1.748,1.748,0,0,1-.188-.807c-.018-.323-.06-.634-.058-.959A2.131,2.131,0,0,1,8.015,18.695Z" fill="#2e3120"/>
        <path id="Path_214897" data-name="Path 214897" d="M19.484,1.161c.087-.181.33-.208.454-.266.3,0,.59-.037.815.36a3.663,3.663,0,0,1,.156.8,10.406,10.406,0,0,1,.011,1.855c-.012.378-.15,1.043-.412,1.134A.888.888,0,0,1,19.5,4.519a2.8,2.8,0,0,1-.156-.952c-.015-.381-.05-.748-.048-1.132A3.432,3.432,0,0,1,19.484,1.161Z" fill="#2e3120"/>
        <path id="Path_214898" data-name="Path 214898" d="M13.023,4.762c.1-.229.4-.263.549-.337.368,0,.713-.046.986.456a4.846,4.846,0,0,1,.188,1.01,13.838,13.838,0,0,1,.013,2.351c-.014.48-.181,1.322-.5,1.437a1.06,1.06,0,0,1-1.226-.661,3.707,3.707,0,0,1-.188-1.206c-.019-.483-.061-.948-.058-1.434A4.543,4.543,0,0,1,13.023,4.762Z" fill="#2e3120"/>
      </g>
    </g>
    <g id="peanut" transform="matrix(0.695, -0.719, 0.719, 0.695, 22.739, 227.506)">
      <path id="Path_216293" data-name="Path 216293" d="M26.578,50.424a9.1,9.1,0,0,1-5.6-2.881c-4.771-5.134-3.7-14.713,2.153-19.851A8.03,8.03,0,0,0,25.8,20.725c-1-8.322,5.794-17.173,13.646-16.194,9.752,1.086,11.547,15.623,3.447,22.731a7.954,7.954,0,0,0-2.665,6.968C41.25,42.748,34.307,51.387,26.578,50.424Z" fill="#ab604b"/>
      <path id="Path_216294" data-name="Path 216294" d="M27.7,48.494c-8.472,0-10.564-12.881-3.254-19.3a10.024,10.024,0,0,0,3.333-8.7C26.939,13.456,32.666,5.7,39.194,6.515c7.785.87,9.38,13.09,2.376,19.244a9.959,9.959,0,0,0-3.333,8.7C39.05,41.229,33.936,48.494,27.7,48.494Z" fill="#8b4f4f"/>
      <ellipse id="Ellipse_3310" data-name="Ellipse 3310" cx="9.8" cy="6.463" rx="9.8" ry="6.463" transform="matrix(0.357, -0.934, 0.934, 0.357, 27.104, 24.79)" fill="#fcb73e"/>
      <ellipse id="Ellipse_3311" data-name="Ellipse 3311" cx="9.8" cy="6.463" rx="9.8" ry="6.463" transform="matrix(0.357, -0.934, 0.934, 0.357, 19.813, 43.852)" fill="#fcb73e"/>
      <path id="Path_216295" data-name="Path 216295" d="M41.547,9.671c-3.14-.4-6.78,2.54-8.52,7.09-1.63,4.26-1.08,8.58,1.13,10.59a4.472,4.472,0,0,1-1.02-.25c-3.33-1.28-4.47-6.41-2.53-11.46s6.2-8.12,9.54-6.85A4.361,4.361,0,0,1,41.547,9.671Zm-7.29,19.06c-3.14-.4-6.78,2.54-8.52,7.09-1.64,4.27-1.08,8.59,1.13,10.59a4.005,4.005,0,0,1-1.02-.25c-3.33-1.27-4.47-6.41-2.53-11.46s6.2-8.12,9.53-6.85A4.3,4.3,0,0,1,34.257,28.731Z" fill="#fd982e"/>
      <path id="Path_216296" data-name="Path 216296" d="M25.094,44.184c-2.652,5.425-8.415,7.8-13.32,5.35-5.6-2.751-7.882-10.136-6.25-16.28a14.921,14.921,0,0,1,1.17-3.03,8.018,8.018,0,0,0,.89-4.38c-.19-2.516-1.234-3.081-2.06-6.11a15.9,15.9,0,0,1-.4-6.11A14.878,14.878,0,0,1,6.584,8.8a13.765,13.765,0,0,1,.75-1.3C10.374,2.8,15.6,1.3,19.914,3.454a11.211,11.211,0,0,1,4.43,4.05,10.437,10.437,0,0,1,.75,1.3,15.686,15.686,0,0,1-.1,13.96,7.962,7.962,0,0,0,0,7.46A15.687,15.687,0,0,1,25.094,44.184Z" fill="#c7754f"/>
      <path id="Path_216297" data-name="Path 216297" d="M16.944,50.419a8.932,8.932,0,0,1-5.17-.88c-5.465-2.686-7.931-9.95-6.25-16.28a14.918,14.918,0,0,1,1.17-3.03,8.018,8.018,0,0,0,.89-4.38c-.19-2.516-1.234-3.081-2.06-6.11a15.892,15.892,0,0,1-.4-6.11,14.878,14.878,0,0,1,1.46-4.82,13.774,13.774,0,0,1,.75-1.3c2.021-3.128,5.441-5.318,9.16-4.98a3.448,3.448,0,0,1,.45.05,10.344,10.344,0,0,0-7.42,4.93c-.26.41-.51.85-.75,1.3a15.658,15.658,0,0,0-1.06,10.93c.825,3.026,1.869,3.579,2.06,6.11a7.987,7.987,0,0,1-.89,4.38,15.39,15.39,0,0,0-1.17,3.03C5.378,42.319,11.106,49.945,16.944,50.419Z" fill="#ab604b"/>
      <path id="Path_216298" data-name="Path 216298" d="M11.264,33.254c.209-1.314.386-2.062.51-2.57,1.212-4.889-.11-8.376-.51-10.95a34.913,34.913,0,0,1,.19-10.93c.08-.45.18-.88.27-1.3a14.592,14.592,0,0,1,1.93-4.74,9.318,9.318,0,0,0-1.89.69,19.187,19.187,0,0,0-1.37,4.05c-.1.42-.19.85-.27,1.3a36.114,36.114,0,0,0-.16,10.93c.354,2.593,1.179,4.564.98,7.41-.07,2.6-.6,3.306-.98,6.11-.709,4.932-.374,11.873,1.81,16.28a9.017,9.017,0,0,0,1.88.69C10.9,46.219,10.536,38.315,11.264,33.254Zm10.45-13.52a36.117,36.117,0,0,0-.16-10.93c-.08-.45-.17-.88-.27-1.3a19.183,19.183,0,0,0-1.37-4.05,9.019,9.019,0,0,0-1.88-.69,14.818,14.818,0,0,1,1.93,4.74c.09.42.19.85.27,1.3a34.454,34.454,0,0,1,.18,10.93c-.46,2.893-.9,3.471-.99,6.11-.207,4.451,1.3,5.567,1.34,12.22a34.547,34.547,0,0,1-.53,6.12c-.08.45-.18.88-.28,1.3a14.6,14.6,0,0,1-1.92,4.74,9.015,9.015,0,0,0,1.88-.69,19.361,19.361,0,0,0,1.37-4.05c.1-.42.19-.85.26-1.3a32.46,32.46,0,0,0,.49-4.82c.206-8.036-1.517-8.86-1.3-13.52C20.807,23.145,21.421,22.306,21.714,19.734Zm-5.22-17.21v47.94a7.052,7.052,0,0,1-1.3,0V2.524A7.037,7.037,0,0,1,16.494,2.524Z" fill="#ab604b"/>
      <path id="Path_216299" data-name="Path 216299" d="M24.094,27.144H7.584a7.05,7.05,0,0,0,0-1.3h16.51A8.064,8.064,0,0,0,24.094,27.144Zm2.06-7.41a11.489,11.489,0,0,1-.4,1.3H5.934c-.16-.42-.29-.86-.41-1.3Zm.51-4.81H5.014c.02-.44.06-.87.11-1.3h21.43C26.6,14.054,26.644,14.484,26.664,14.924ZM25.094,8.8H6.584a13.765,13.765,0,0,1,.75-1.3h17.01A10.443,10.443,0,0,1,25.094,8.8Zm0,35.38a10.437,10.437,0,0,1-.75,1.3H7.334a13.765,13.765,0,0,1-.75-1.3Zm1.57-6.12c-.02.44-.06.87-.11,1.3H5.124c-.05-.43-.09-.86-.11-1.3Zm-.51-4.81H5.524a13.125,13.125,0,0,1,.41-1.3h19.82A10.887,10.887,0,0,1,26.154,33.254Z" fill="#ab604b"/>
    </g>
  </g>
</svg>
