<svg xmlns="http://www.w3.org/2000/svg" width="52.528" height="58.011" viewBox="0 0 52.528 58.011">
  <g id="Group_158497" data-name="Group 158497" transform="translate(-41.395 -195.38)">
    <g id="Group_158361" data-name="Group 158361" transform="translate(-7 12.411)">
      <g id="Shape_Abstract_Rain_by_Streamlinehq" data-name="Shape Abstract Rain by Streamlinehq" transform="translate(101.816 220.02) rotate(90)">
        <path id="Path_214891" data-name="Path 214891" d="M3.091,13.83c.187-.561.353-.546.834-.638,1.112,0,1.117,1.258,1.218,2.139a2.16,2.16,0,0,1-.1,1.485c-.148.2-.146.29-.419.29a2.444,2.444,0,0,1-.7-.161,1.35,1.35,0,0,1-.837-1.06A6.949,6.949,0,0,1,3.056,14.7,2.943,2.943,0,0,1,3.091,13.83Z" fill="#2e3120"/>
        <path id="Path_214892" data-name="Path 214892" d="M17.833,11.361c.2-.779.379-.758.9-.886.331,0,1,.165,1,.729,0,.76.245,1.487.312,2.241a3.816,3.816,0,0,1-.111,2.062c-.319.571-.653.375-1.2.179a1.855,1.855,0,0,1-.9-1.472,12.457,12.457,0,0,1-.035-1.646A5.262,5.262,0,0,1,17.833,11.361Z" fill="#2e3120"/>
        <path id="Path_214893" data-name="Path 214893" d="M9.866,12.569c.256-.561.484-.546,1.144-.638,1.323,0,1.49.988,1.67,2.139.074.474.263,1.077-.141,1.485-.2.2-.2.29-.574.29a4.426,4.426,0,0,1-.954-.161,1.523,1.523,0,0,1-1.149-1.06,5.078,5.078,0,0,1-.044-1.185A2.16,2.16,0,0,1,9.866,12.569Z" fill="#2e3120"/>
        <path id="Path_214894" data-name="Path 214894" d="M6.657,7.617c0-.767-.009-1.682,1.044-1.845,1.652,0,1.16,2.072,1.16,3.208a1.633,1.633,0,0,1-.551,1.36c-.338.227-1.146-.142-1.35-.372C6.509,9.46,6.657,8.208,6.657,7.617Z" fill="#2e3120"/>
        <path id="Path_214895" data-name="Path 214895" d="M14.829,20.313c0-.767-.01-1.682,1.044-1.845,1.652,0,1.159,2.072,1.159,3.208a1.633,1.633,0,0,1-.551,1.36c-.338.227-1.146-.142-1.35-.372C14.681,22.156,14.829,20.9,14.829,20.313Z" fill="#2e3120"/>
        <path id="Path_214896" data-name="Path 214896" d="M8.015,18.695c.1-.153.4-.176.549-.226.368,0,.713-.031.986.3a2.312,2.312,0,0,1,.188.675,6.2,6.2,0,0,1,.013,1.573c-.014.321-.181.884-.5.961a1.244,1.244,0,0,1-1.226-.442,1.748,1.748,0,0,1-.188-.807c-.018-.323-.06-.634-.058-.959A2.131,2.131,0,0,1,8.015,18.695Z" fill="#2e3120"/>
        <path id="Path_214897" data-name="Path 214897" d="M19.484,1.161c.087-.181.33-.208.454-.266.3,0,.59-.037.815.36a3.663,3.663,0,0,1,.156.8,10.406,10.406,0,0,1,.011,1.855c-.012.378-.15,1.043-.412,1.134A.888.888,0,0,1,19.5,4.519a2.8,2.8,0,0,1-.156-.952c-.015-.381-.05-.748-.048-1.132A3.432,3.432,0,0,1,19.484,1.161Z" fill="#2e3120"/>
        <path id="Path_214898" data-name="Path 214898" d="M13.023,4.762c.1-.229.4-.263.549-.337.368,0,.713-.046.986.456a4.846,4.846,0,0,1,.188,1.01,13.838,13.838,0,0,1,.013,2.351c-.014.48-.181,1.322-.5,1.437a1.06,1.06,0,0,1-1.226-.661,3.707,3.707,0,0,1-.188-1.206c-.019-.483-.061-.948-.058-1.434A4.543,4.543,0,0,1,13.023,4.762Z" fill="#2e3120"/>
      </g>
    </g>
    <g id="maize" transform="translate(27.195 199.562)">
      <path id="Path_216361" data-name="Path 216361" d="M37.863,19.973a21.1,21.1,0,0,1-.081,2.255,21.222,21.222,0,0,1-.161,2.255c-.081.725-.161,1.53-.242,2.174-.081.805-.242,1.53-.322,2.255-.161.805-.322,1.53-.483,2.255-.161.564-.242,1.047-.4,1.53l-.242.725a13.583,13.583,0,0,1-.886,2.174,11.854,11.854,0,0,1-1.289,2.255,2.171,2.171,0,0,1-.564.644,4.166,4.166,0,0,1-2.98,1.53,4.166,4.166,0,0,1-2.98-1.53,4.6,4.6,0,0,1-.564-.644A11.854,11.854,0,0,1,25.38,35.6a17.523,17.523,0,0,1-.886-2.174l-.242-.725a8.495,8.495,0,0,1-.4-1.53c-.161-.725-.322-1.45-.483-2.255a8.057,8.057,0,0,1-.483-2.336L22.642,24.4c-.081-.725-.081-1.45-.161-2.255,0-.725-.081-1.45-.081-2.255a21.1,21.1,0,0,1,.081-2.255,18.374,18.374,0,0,1,.161-2.174c.081-.725.161-1.53.242-2.255.081-.805.242-1.53.322-2.255.161-.805.322-1.53.483-2.255.161-.564.242-1.047.4-1.53a5.55,5.55,0,0,1,.242-.644,18.756,18.756,0,0,1,.886-2.255,11.854,11.854,0,0,1,1.289-2.255,2.171,2.171,0,0,1,.564-.644A5.007,5.007,0,0,1,30.131,0a4.166,4.166,0,0,1,2.98,1.53,4.6,4.6,0,0,1,.564.644,15.022,15.022,0,0,1,1.289,2.255,14.622,14.622,0,0,1,.886,2.255,5.549,5.549,0,0,0,.242.644,8.495,8.495,0,0,1,.4,1.53c.161.725.322,1.45.483,2.255a18.989,18.989,0,0,1,.322,2.255c.081.725.161,1.45.242,2.255.081.725.081,1.45.161,2.174a9.539,9.539,0,0,1,.161,2.174Z" transform="translate(-1.596 -0.019)" fill="#fee8af" stroke="#f6d683" stroke-width="1"/>
      <path id="Path_216362" data-name="Path 216362" d="M37.757,19.953a2.411,2.411,0,0,0-.644-.322c-.242-.081-.483-.081-.725-.161v-.161a1.493,1.493,0,0,0-.161-.564c0-.081-.081-.242-.081-.322V18.1a4.042,4.042,0,0,0,.966-.161c.161-.081.322-.081.483-.242v-.081l-.483-.242a2.861,2.861,0,0,0-.805-.161v-.161a1.493,1.493,0,0,0-.161-.564c0-.081-.081-.161-.081-.322v-.4a4.042,4.042,0,0,0,.966-.161c.161-.081.242-.081.4-.161v-.081c-.161-.081-.242-.161-.4-.161a2.383,2.383,0,0,0-.805-.161v-.161a1.493,1.493,0,0,0-.161-.564.3.3,0,0,0-.081-.242v-.4a2.624,2.624,0,0,0,1.047-.322v-.081a2.389,2.389,0,0,0-.886-.322v-.161c0-.161-.161-.4-.161-.564v-.483c0-.081.081-.161.081-.242.161,0,.242-.081.4-.161.081-.081.161-.081.242-.161v-.081c-.081-.081-.161-.081-.242-.161s-.161-.081-.242-.161a.3.3,0,0,0-.081-.242,1.493,1.493,0,0,1-.161-.564c-.081-.161.081-.4.161-.564a.726.726,0,0,0,.081-.4c0-.081.081-.081.081-.161V8.759l-.081-.081a.609.609,0,0,0-.081-.322.079.079,0,0,0-.081-.081,3.488,3.488,0,0,0-.081-.4c.081-.081.161-.161.161-.242,0-.161-.081-.242-.322-.4h-.081a.714.714,0,0,0-.322.4c0,.081.081.161.161.242a3.488,3.488,0,0,1-.081.4.079.079,0,0,1-.081.081,5.277,5.277,0,0,0-1.127,0H33.006c0-.242-.081-.483-.081-.725V7.39a1.572,1.572,0,0,1,.081-.564l.483.081h.644A8.425,8.425,0,0,0,35.5,6.584V6.5a4.233,4.233,0,0,0-1.369-.322H33.086c-.081-.242-.081-.483-.161-.725V4.974a.3.3,0,0,1,.081-.242,1.117,1.117,0,0,0,.725,0,3.926,3.926,0,0,0,.886-.322V4.329a3.926,3.926,0,0,0-.886-.322h-.725V3.927A1.59,1.59,0,0,0,33.489,2.8V2.558a1.112,1.112,0,0,0,.242-.322V2.155c-.081-.161-.161-.322-.242-.322V1.672c0-.081-.081-.081-.242-.161h-.081c-.161.081-.242.081-.242.161s-.081.081,0,.161c-.161,0-.322-.081-.483-.081h-.725a4.247,4.247,0,0,0-.966.242H30.67a3.881,3.881,0,0,0,0-.966c0-.161-.081-.322-.081-.483A2.105,2.105,0,0,0,30.348-.1h-.081c-.081.242-.161.4-.242.644,0,.161-.081.322-.081.483a2.7,2.7,0,0,0,0,.805c-.322.081-.725.081-1.047.161a2.351,2.351,0,0,0-.725-.161h-.322c0-.081-.081-.242-.322-.322h-.081c-.242.081-.322.242-.322.322a.619.619,0,0,0-.161.242v.081a1,1,0,0,0,.161.242.3.3,0,0,1-.081.242V3.927h-.564a1.342,1.342,0,0,0-.886.322v.081a1.009,1.009,0,0,0,.886.483h.805c0,.242.081.483.081.644v.081a2.352,2.352,0,0,1-.161.725H26.16a8.425,8.425,0,0,0-1.369.322v.081a4.233,4.233,0,0,0,1.369.322h.886a2.23,2.23,0,0,0,.081.725,4.042,4.042,0,0,0,.161.966h-.242c-.242-.081-.564-.081-.886-.161a2.7,2.7,0,0,0-.805,0h-.4V8.437a.079.079,0,0,0-.081-.081.6.6,0,0,0-.081-.4c.081-.081.161-.161.161-.242,0-.161-.081-.242-.322-.4H24.55a.714.714,0,0,0-.322.4c0,.081.081.161.161.242a3.488,3.488,0,0,1-.081.4l-.081.081c0,.081-.081.161-.081.322l-.081.081V8.92A.079.079,0,0,0,24.147,9a1.963,1.963,0,0,0,0,.966,1.145,1.145,0,0,1,.161.483v.322h-.242a.7.7,0,0,0-.483.242v.081a.7.7,0,0,0,.483.242h.081v.242a1.371,1.371,0,0,0,.081.564c.081.161.081.322.161.483v.242a.484.484,0,0,0-.322.081h-.081a1.071,1.071,0,0,0-.644.242v.081a1.071,1.071,0,0,0,.644.242h.242a2.352,2.352,0,0,0,.161.725.876.876,0,0,1,.081.4v.242a1.371,1.371,0,0,0-.564.081,1.3,1.3,0,0,0-.725.242v.081a1.3,1.3,0,0,0,.725.242c.161,0,.242.081.4.081a2.352,2.352,0,0,0,.161.725.726.726,0,0,1,.081.4v.322a2.74,2.74,0,0,0-.805.081c-.242.081-.483.081-.644.242v.081a1.285,1.285,0,0,0,.644.242,1.773,1.773,0,0,0,.644.081,2.351,2.351,0,0,0,.161.725c0,.161.081.242.081.4v.322a1.593,1.593,0,0,0-.886.161c-.161.081-.4.081-.564.242v.081c.161.081.4.161.564.242.242.081.483.081.725.161v.161a1.493,1.493,0,0,0,.161.564c0,.081.081.242.081.322v.4a4.042,4.042,0,0,0-.966.161c-.161.081-.322.081-.483.242v.081l.483.242a2.861,2.861,0,0,0,.805.161v.161a1.493,1.493,0,0,0,.161.564c0,.081.081.161.081.242V23.9a4.042,4.042,0,0,0-.966.161c-.161.081-.242.081-.4.161V24.3c.161.081.242.161.4.161a2.383,2.383,0,0,0,.805.161v.161a1.493,1.493,0,0,0,.161.564.3.3,0,0,0,.081.242v.483a2.624,2.624,0,0,0-1.047.322v.081a2.389,2.389,0,0,0,.886.322v.161c0,.161.161.4.161.564v.483c0,.081-.081.161-.081.242-.161,0-.242.081-.4.161-.081.081-.161.081-.242.161v.081c.081.081.161.081.242.161s.161.081.242.161a.3.3,0,0,0,.081.242,1.493,1.493,0,0,1,.161.564c.081.161-.081.4-.161.564a.726.726,0,0,0-.081.4c0,.081-.081.081-.081.161v.081l.081.081a.609.609,0,0,0,.081.322.079.079,0,0,0,.081.081,3.488,3.488,0,0,0,.081.4c-.081.081-.161.161-.161.242,0,.161.081.242.322.4h.081a.714.714,0,0,0,.322-.4c0-.081-.081-.161-.161-.242a3.488,3.488,0,0,1,.081-.4.079.079,0,0,1,.081-.081,5.277,5.277,0,0,0,1.127,0h1.289a.726.726,0,0,0,.081.4v.322a2.23,2.23,0,0,1-.081.725l-.483-.081h-.644a8.425,8.425,0,0,0-1.369.322v.081a4.234,4.234,0,0,0,1.369.322h1.047c0,.161.081.242.081.4a4.953,4.953,0,0,0-.081,1.127h-.564a3.926,3.926,0,0,0-.886.322v.081a3.926,3.926,0,0,0,.886.322h.725V35.9a1.186,1.186,0,0,0-.886,1.127v.242a1.112,1.112,0,0,0-.242.322v.081a1.112,1.112,0,0,0,.242.322v.161c0,.081.081.081.242.161h.081c.161-.081.242-.081.242-.161s.081-.081,0-.161c.161,0,.322.081.483.081h.725a2.351,2.351,0,0,0,.725-.161c.081,0,.161-.081.242-.081h.242l.081.081a2.861,2.861,0,0,0-.161.805,1.371,1.371,0,0,0,.081.564c.081.161.081.4.242.564h.081a5.932,5.932,0,0,0,.322-1.127v-.242a1.145,1.145,0,0,0-.161-.483,1.773,1.773,0,0,0,.644-.081,1.773,1.773,0,0,0,.644.081,2.19,2.19,0,0,0,.725,0c.161,0,.322-.081.564-.081a.611.611,0,0,0,.161.322h.081a1.145,1.145,0,0,0,.161-.483c.081-.081.242-.081.322-.161V37.51c-.081-.081-.161-.081-.242-.161,0-.161.081-.242.081-.4V35.577h.564a1.342,1.342,0,0,0,.886-.322v-.081a1.982,1.982,0,0,0-.886-.322h-.805c0-.242-.081-.483-.081-.725a2.351,2.351,0,0,1,.161-.725h1.047a8.425,8.425,0,0,0,1.369-.322V33a4.233,4.233,0,0,0-1.369-.322H33.57a2.23,2.23,0,0,0-.081-.725,4.042,4.042,0,0,0-.161-.966h.242c.242.081.564.081.886.161a2.7,2.7,0,0,0,.805,0h.4v.081a.079.079,0,0,0,.081.081.6.6,0,0,0,.081.4c-.081.081-.161.161-.161.242,0,.161.081.242.322.4h.081a.714.714,0,0,0,.322-.4c0-.081-.081-.161-.161-.242a3.488,3.488,0,0,1,.081-.4l.081-.081c0-.081.081-.161.081-.322l.081-.081v-.081a.079.079,0,0,0-.081-.081,1.963,1.963,0,0,0,0-.966,1.145,1.145,0,0,1-.161-.483v-.242h.242a.7.7,0,0,0,.483-.242v-.081a.7.7,0,0,0-.483-.242h-.081v-.242a1.371,1.371,0,0,0-.081-.564c-.081-.161-.081-.322-.161-.483v-.242a.484.484,0,0,0,.322-.081h.081a1.071,1.071,0,0,0,.644-.242v-.081a1.071,1.071,0,0,0-.644-.242h-.242a2.351,2.351,0,0,0-.161-.725,1.021,1.021,0,0,1-.081-.483v-.242a1.371,1.371,0,0,0,.564-.081,1.3,1.3,0,0,0,.725-.242v-.081a1.3,1.3,0,0,0-.725-.242c-.161,0-.242-.081-.4-.081a2.351,2.351,0,0,0-.161-.725.876.876,0,0,1-.081-.4v-.242a2.74,2.74,0,0,0,.805-.081c.242-.081.483-.081.644-.242v-.081a1.285,1.285,0,0,0-.644-.242,1.773,1.773,0,0,0-.644-.081,2.351,2.351,0,0,0-.161-.725.726.726,0,0,1-.081-.4v-.322a2.043,2.043,0,0,0,.966-.161,7.483,7.483,0,0,0,.805-.4h0ZM34.7,30.745a4.042,4.042,0,0,0-.966.161h-.322c0-.161-.081-.322-.081-.564a6.318,6.318,0,0,0,.161-1.127h1.127a1.371,1.371,0,0,0,.564-.081,1.773,1.773,0,0,0,.644-.081l.081.081v.242a1.145,1.145,0,0,1-.161.483,2.483,2.483,0,0,0-.081.805h-.242a2.23,2.23,0,0,0-.725.081ZM25.838,9.162A5.542,5.542,0,0,0,26.885,9h.322c0,.161.081.322.081.564a6.318,6.318,0,0,0-.161,1.127H26a1.371,1.371,0,0,0-.564.081,1.773,1.773,0,0,0-.644.081l-.081-.081v-.242c0-.161.161-.322.161-.483a2.483,2.483,0,0,0,.081-.805h.242a2,2,0,0,0,.644-.081ZM35.905,20.678a.726.726,0,0,1-.081.4,2.861,2.861,0,0,0-.161.805H35.18a1.773,1.773,0,0,1-.644-.081,6.872,6.872,0,0,0-1.289,0v-.322a6.317,6.317,0,0,0,.161-1.127h1.127a1.371,1.371,0,0,0,.564-.081,1.371,1.371,0,0,0,.564-.081.281.281,0,0,0,.161.081.726.726,0,0,1,.081.4Zm0,2.174a3.488,3.488,0,0,1-.081.4c-.081.242-.081.564-.161.805H35.18a1.773,1.773,0,0,1-.644-.081,6.873,6.873,0,0,0-1.289,0v-.322a6.317,6.317,0,0,0,.161-1.127h1.127a1.371,1.371,0,0,0,.564-.081,1.371,1.371,0,0,0,.564-.081c0,.081.081.081.161.081a.726.726,0,0,1,.081.4Zm0,2.174c0,.161-.081.322-.081.483-.081.242-.081.564-.161.805H35.18a1.773,1.773,0,0,1-.644-.081,6.872,6.872,0,0,0-1.289,0v-.322a6.317,6.317,0,0,0,.161-1.127h1.127A1.371,1.371,0,0,0,35.1,24.7a1.371,1.371,0,0,0,.564-.081c0,.081.081.081.161.081a.609.609,0,0,1,.081.322Zm-2.9,9.262v.081a1.371,1.371,0,0,1-.081.564,18.982,18.982,0,0,0-2.336.242.173.173,0,0,0-.161-.161c0-.242.081-.564.081-.805v-.725h1.047a1.371,1.371,0,0,0,.564-.081,1.371,1.371,0,0,0,.564-.081A2.181,2.181,0,0,1,33.006,34.288Zm-8.215-7.973-.081-.081c0-.081,0-.081-.081-.161v-.322a.3.3,0,0,1,.081-.242c.081-.161.081-.4.161-.564V24.7h.483a1.773,1.773,0,0,1,.644.081,6.872,6.872,0,0,0,1.289,0v.322a6.318,6.318,0,0,0-.161,1.127H26a1.371,1.371,0,0,0-.564.081.889.889,0,0,0-.644,0Zm.081-3.866h.483A1.773,1.773,0,0,1,26,22.53a6.872,6.872,0,0,0,1.289,0v.322a6.318,6.318,0,0,0-.161,1.127H26a1.371,1.371,0,0,0-.564.081,1.371,1.371,0,0,0-.564.081.281.281,0,0,0-.161-.081v-.4a.484.484,0,0,1,.081-.322c.081-.161.081-.4.161-.564l-.081-.322Zm-.242-.966a.726.726,0,0,1,.081-.4c.081-.161.081-.4.161-.564v-.242h.483a1.773,1.773,0,0,1,.644.081,6.872,6.872,0,0,0,1.289,0v.322a6.317,6.317,0,0,0-.161,1.127H26a1.371,1.371,0,0,0-.564.081,1.371,1.371,0,0,0-.564.081.281.281,0,0,0-.161-.081,1.078,1.078,0,0,1-.081-.4Zm0-2.255a.6.6,0,0,1,.081-.4,2.861,2.861,0,0,0,.161-.805h.483A1.773,1.773,0,0,1,26,18.1a6.872,6.872,0,0,0,1.289,0v.322a6.317,6.317,0,0,0-.161,1.127H26a1.371,1.371,0,0,0-.564.081,1.371,1.371,0,0,0-.564.081c0-.081-.081-.081-.161-.081a.726.726,0,0,1-.081-.4Zm0-2.174c0-.161.081-.322.081-.483.081-.242.081-.564.161-.805h.483a1.773,1.773,0,0,1,.644.081,6.872,6.872,0,0,0,1.289,0v.322a6.317,6.317,0,0,0-.161,1.127H26a1.371,1.371,0,0,0-.564.081,1.371,1.371,0,0,0-.564.081c0-.081-.081-.081-.161-.081-.081-.081-.081-.161-.081-.322Zm0-2.174c0-.161.081-.322.081-.483.081-.242.081-.564.161-.805h.483a1.773,1.773,0,0,1,.644.081,6.872,6.872,0,0,0,1.289,0v.322a6.317,6.317,0,0,0-.161,1.127H26a1.371,1.371,0,0,0-.564.081,1.371,1.371,0,0,0-.564.081c0-.081-.081-.081-.161-.081a.609.609,0,0,1-.081-.322ZM31.717,4.813c.4,0,.805-.081,1.208-.081,0,.161.081.322.081.483v.322a2.861,2.861,0,0,1-.161.805h-.564a1.773,1.773,0,0,1-.644-.081H30.509c0-.242-.081-.564-.081-.805s.081-.4.081-.644a3.043,3.043,0,0,0,1.208,0Zm4.027,8.778.081.081c0,.081,0,.081.081.161v.322a.3.3,0,0,1-.081.242c-.081.161-.081.4-.161.564V15.2H35.18a1.773,1.773,0,0,1-.644-.081,6.872,6.872,0,0,0-1.289,0V14.8a6.318,6.318,0,0,0,.161-1.127h1.127a1.37,1.37,0,0,0,.564-.081,1.733,1.733,0,0,0,.644,0Zm-.081,3.866H35.18a1.773,1.773,0,0,1-.644-.081,6.872,6.872,0,0,0-1.289,0v-.322a6.317,6.317,0,0,0,.161-1.127h1.127a1.371,1.371,0,0,0,.564-.081,1.371,1.371,0,0,0,.564-.081c0,.081.081.081.161.081v.4a.484.484,0,0,1-.081.322c-.081.161-.081.4-.161.564l.081.322Zm.242,1.047a.726.726,0,0,1-.081.4c-.081.161-.081.4-.161.564v.242H35.18a1.773,1.773,0,0,1-.644-.081,6.872,6.872,0,0,0-1.289,0v-.322a6.317,6.317,0,0,0,.161-1.127h1.127A1.371,1.371,0,0,0,35.1,18.1a1.371,1.371,0,0,0,.564-.081.281.281,0,0,0,.161.081.726.726,0,0,1,.081.4ZM28.818,32.839A6.217,6.217,0,0,0,27.61,33a2.23,2.23,0,0,1-.081-.725v-.081a3.021,3.021,0,0,1,.081-.805.079.079,0,0,0,.081-.081c.161,0,.4.081.564,0a1.773,1.773,0,0,1,.644.081h1.127c0,.242.081.564.081.805s-.081.4-.081.644ZM27.771,6.987h.483a1.773,1.773,0,0,1,.644.081h1.127c0,.242.081.564.081.805s-.081.4-.081.644H28.9a1.371,1.371,0,0,0-.564.081,1.57,1.57,0,0,0-.644.081,2.74,2.74,0,0,0,.081-.805,3.248,3.248,0,0,1,0-.886Zm5.154,0a2.74,2.74,0,0,1,.081.805,1.57,1.57,0,0,1-.081.644v.081a.079.079,0,0,0-.081.081c-.161,0-.4-.081-.564,0a1.773,1.773,0,0,1-.644-.081H30.509c0-.242-.081-.564-.081-.805s.081-.4.081-.644h1.127a1.37,1.37,0,0,0,.564-.081h.725ZM27.771,30.745a7.093,7.093,0,0,0-.161-1.369v-.242a.079.079,0,0,0,.081-.081c.161,0,.4.081.564,0a1.773,1.773,0,0,1,.644.081h1.127c0,.242.081.564.081.805s-.081.4-.081.644H28.9a1.371,1.371,0,0,0-.564.081,1.194,1.194,0,0,0-.564.081ZM27.61,9.162c.242,0,.4.081.644.081a1.773,1.773,0,0,1,.644.081h1.127c0,.242.081.564.081.805s-.081.4-.081.644H28.9a1.371,1.371,0,0,0-.564.081h-.564a7.092,7.092,0,0,0-.161-1.369c-.081-.161,0-.242,0-.322Zm5.154,0a7.092,7.092,0,0,0,.161,1.369v.242a.079.079,0,0,0-.081.081c-.161,0-.4-.081-.564,0a1.773,1.773,0,0,1-.644-.081H30.509c0-.242-.081-.564-.081-.805s.081-.4.081-.644h1.127a1.371,1.371,0,0,0,.564-.081c.242,0,.4-.081.564-.081ZM27.771,28.49a7.092,7.092,0,0,0-.161-1.369v-.242a.079.079,0,0,0,.081-.081c.161,0,.4.081.564,0a1.773,1.773,0,0,1,.644.081h1.127c0,.242.081.564.081.805s-.081.4-.081.644H28.9a1.371,1.371,0,0,0-.564.081,1.572,1.572,0,0,1-.564.081Zm4.993-17.073a7.092,7.092,0,0,0,.161,1.369v.242a.079.079,0,0,0-.081.081c-.161,0-.4-.081-.564,0a1.773,1.773,0,0,1-.644-.081H30.509c0-.242-.081-.564-.081-.805s.081-.4.081-.644h1.127A1.371,1.371,0,0,0,32.2,11.5a1.572,1.572,0,0,1,.564-.081Zm-4.993,14.9a7.092,7.092,0,0,0-.161-1.369V24.7a.079.079,0,0,0,.081-.081c.161,0,.4.081.564,0a1.773,1.773,0,0,1,.644.081h1.127c0,.242.081.564.081.805s-.081.4-.081.644H28.9a1.371,1.371,0,0,0-.564.081,1.194,1.194,0,0,0-.564.081Zm4.993-12.725a7.092,7.092,0,0,0,.161,1.369V15.2a.079.079,0,0,0-.081.081c-.161,0-.4-.081-.564,0a1.773,1.773,0,0,1-.644-.081H30.509c0-.242-.081-.564-.081-.805s.081-.4.081-.644h1.127a1.371,1.371,0,0,0,.564-.081c.242,0,.4-.081.564-.081Zm.161,8.3c-.161,0-.4-.081-.564,0a1.773,1.773,0,0,1-.644-.081H30.59c0-.242-.081-.564-.081-.805s.081-.4.081-.644h1.127a1.371,1.371,0,0,0,.564-.081h.564a7.092,7.092,0,0,0,.161,1.369.623.623,0,0,1-.081.242h0ZM27.771,24.06a7.093,7.093,0,0,0-.161-1.369V22.45a.079.079,0,0,0,.081-.081c.161,0,.4.081.564,0a1.773,1.773,0,0,1,.644.081h1.127c0,.242.081.564.081.805s-.081.4-.081.644H28.9a1.371,1.371,0,0,0-.564.081,1.572,1.572,0,0,1-.564.081Zm0-2.174a7.093,7.093,0,0,0-.161-1.369v-.242a.079.079,0,0,0,.081-.081c.161,0,.4.081.564,0a1.773,1.773,0,0,1,.644.081h1.127c0,.242.081.564.081.805s-.081.4-.081.644H28.9a1.371,1.371,0,0,0-.564.081c-.242,0-.4.081-.564.081Zm0-2.255a7.093,7.093,0,0,0-.161-1.369V18.02a.079.079,0,0,0,.081-.081c.161,0,.4.081.564,0a1.773,1.773,0,0,1,.644.081h1.127c0,.242.081.564.081.805s-.081.4-.081.644H28.9a1.371,1.371,0,0,0-.564.081,1.572,1.572,0,0,1-.564.081Zm0-2.174a7.093,7.093,0,0,0-.161-1.369v-.242a.079.079,0,0,0,.081-.081c.161,0,.4.081.564,0a1.773,1.773,0,0,1,.644.081h1.127c0,.242.081.564.081.805s-.081.4-.081.644H28.9a1.371,1.371,0,0,0-.564.081c-.242,0-.4.081-.564.081Zm4.993-1.611a7.092,7.092,0,0,0,.161,1.369v.242a.079.079,0,0,0-.081.081c-.161,0-.4-.081-.564,0a1.773,1.773,0,0,1-.644-.081H30.509c0-.242-.081-.564-.081-.805s.081-.4.081-.644h1.127a1.371,1.371,0,0,0,.564-.081,1.572,1.572,0,0,1,.564-.081Zm0,2.174a7.092,7.092,0,0,0,.161,1.369v.242a.079.079,0,0,0-.081.081c-.161,0-.4-.081-.564,0a1.773,1.773,0,0,1-.644-.081H30.509c0-.242-.081-.564-.081-.805s.081-.4.081-.644h1.127A1.371,1.371,0,0,0,32.2,18.1c.242,0,.4-.081.564-.081Zm-3.946-4.349h1.127c0,.242.081.564.081.805s-.081.4-.081.644H28.818a1.371,1.371,0,0,0-.564.081H27.69a7.093,7.093,0,0,0-.161-1.369v-.242a.079.079,0,0,0,.081-.081c.161,0,.4.081.564,0a1.083,1.083,0,0,0,.644.161Zm2.9,10.308H30.59c0-.242-.081-.564-.081-.805s.081-.4.081-.644h1.127a1.371,1.371,0,0,0,.564-.081h.564a7.092,7.092,0,0,0,.161,1.369v.242a.079.079,0,0,0-.081.081c-.161,0-.4-.081-.564,0a2.49,2.49,0,0,0-.644-.161ZM28.818,11.5h1.127c0,.242.081.564.081.805s-.081.4-.081.644H28.818a1.371,1.371,0,0,0-.564.081H27.69a7.092,7.092,0,0,0-.161-1.369v-.242a.079.079,0,0,0,.081-.081c.161,0,.4.081.564,0a2.49,2.49,0,0,0,.644.161Zm2.9,14.738H30.59c0-.242-.081-.564-.081-.805s.081-.4.081-.644h1.127a1.371,1.371,0,0,0,.564-.081h.564a7.092,7.092,0,0,0,.161,1.369v.242a.079.079,0,0,0-.081.081c-.161,0-.4-.081-.564,0a1.083,1.083,0,0,0-.644-.161Zm0,2.174H30.59c0-.242-.081-.564-.081-.805s.081-.4.081-.644h1.127a1.371,1.371,0,0,0,.564-.081h.564a7.092,7.092,0,0,0,.161,1.369v.242a.079.079,0,0,0-.081.081c-.161,0-.4-.081-.564,0a2.49,2.49,0,0,0-.644-.161Zm0,2.255H30.59c0-.242-.081-.564-.081-.805s.081-.4.081-.644h1.127a1.371,1.371,0,0,0,.564-.081h.564a7.092,7.092,0,0,0,.161,1.369.3.3,0,0,1-.081.242c-.242,0-.4-.081-.644-.081h-.564ZM29.945,4.652c0,.322.081.725.081,1.047,0,.242-.081.4-.081.644H28.818a1.371,1.371,0,0,0-.564.081,1.371,1.371,0,0,0-.564.081,2.861,2.861,0,0,1-.161-.805V5.618a1.773,1.773,0,0,1,.081-.644c.805-.081,1.611-.242,2.336-.322-.081-.081-.081,0,0,0Zm2.819,28.268h-.4a1.773,1.773,0,0,1-.644-.081H30.59c0-.242-.081-.564-.081-.805s.081-.4.081-.644h1.127a1.371,1.371,0,0,0,.564-.081,1.57,1.57,0,0,0,.644-.081,2.74,2.74,0,0,0-.081.805c0,.322-.081.644-.081.886Zm2.98-21.5a.3.3,0,0,1,.081.242V12.3a1.493,1.493,0,0,0-.161.564v.242H35.18a1.773,1.773,0,0,1-.644-.081,6.872,6.872,0,0,0-1.289,0v-.322a6.318,6.318,0,0,0,.161-1.127h1.127A1.371,1.371,0,0,0,35.1,11.5a2,2,0,0,1,.644-.081Zm-9.825.081a6.872,6.872,0,0,0,1.289,0v.322a6.317,6.317,0,0,0-.161,1.127H25.919a1.371,1.371,0,0,0-.564.081,1.371,1.371,0,0,0-.564.081c0-.081-.081-.081-.161-.081v-.242a1.145,1.145,0,0,1,.161-.483,1.371,1.371,0,0,0,.081-.564V11.5h.4a1.718,1.718,0,0,1,.644,0ZM24.791,28.49c-.081-.081-.081-.161-.161-.242a.3.3,0,0,0-.081-.242v-.322a1.493,1.493,0,0,0,.161-.564v-.242h.483a1.773,1.773,0,0,1,.644.081,6.872,6.872,0,0,0,1.289,0v.322a6.317,6.317,0,0,0-.161,1.127H25.838a1.371,1.371,0,0,0-.564.081h-.483Zm2.9,6.6a6.318,6.318,0,0,0-.161-1.127c0-.161.081-.4.081-.564a5.705,5.705,0,0,0,1.127.081h1.047v.725c0,.242.081.483.081.725a10.962,10.962,0,0,0-1.691.161Q28.053,35.215,27.69,35.094Zm6.926-6.684a6.873,6.873,0,0,0-1.289,0v-.322a6.318,6.318,0,0,0,.161-1.127h1.127a1.371,1.371,0,0,0,.564-.081,1.371,1.371,0,0,0,.564-.081.281.281,0,0,0,.161.081v.242a1.145,1.145,0,0,1-.161.483,1.371,1.371,0,0,0-.081.564v.242h-.4a1.718,1.718,0,0,1-.644,0Zm0-19.167h1.127c0,.081,0,.161.081.161a1.493,1.493,0,0,1,.161.564c0,.161-.161.4-.161.564a.3.3,0,0,1-.081.242h-.483a1.773,1.773,0,0,1-.644-.081,6.872,6.872,0,0,0-1.289,0V10.37a6.318,6.318,0,0,0,.161-1.127h1.127Zm-2.9-6.6a2.19,2.19,0,0,0,.725,0c.161,0,.242-.081.4-.081V2.88a4.822,4.822,0,0,0,.161.966v.081c0,.081-.081.242-.081.322-.4-.081-.805-.081-1.208-.161H30.67V2.4h.161a2.855,2.855,0,0,0,.886.242Zm-2.9-.242a5.438,5.438,0,0,0,1.127.161V2.88a1.021,1.021,0,0,1-.081.483,3.921,3.921,0,0,1-.081.966,4.042,4.042,0,0,0-.966-.161H28.5a3.612,3.612,0,0,0-.886-.081V3.363c0-.161.081-.4,0-.564a.3.3,0,0,0-.081-.242h.4a2.486,2.486,0,0,0,.886-.161Zm-2.9,28.187H24.791c0-.081,0-.161-.081-.161a1.493,1.493,0,0,1-.161-.564c0-.161.161-.4.161-.564a.3.3,0,0,1,.081-.242h.483a1.773,1.773,0,0,1,.644.081,6.872,6.872,0,0,0,1.289,0v.322a6.317,6.317,0,0,0-.161,1.127Zm3.624,6.845a2.352,2.352,0,0,0-.725-.161,2.19,2.19,0,0,0-.725,0c-.161,0-.242.081-.4.081v-.322a4.042,4.042,0,0,0-.161-.966.3.3,0,0,1,.081-.242c.242,0,.564-.081.805-.081a11.318,11.318,0,0,0,1.45.161V37.59H29.7c0-.161-.081-.161-.161-.161Zm1.047-.081v-.322a1.021,1.021,0,0,1,.081-.483,3.921,3.921,0,0,1,.081-.966,4.042,4.042,0,0,0,.966.161h.322a3.612,3.612,0,0,0,.886.081v.644c0,.161-.081.4,0,.564a.3.3,0,0,0,.081.242c-.161,0-.242-.081-.4-.081h-.725c-.242,0-.4.081-.644.081a2.267,2.267,0,0,1-.644.081Z" transform="translate(-1.732 0)" fill="#fbcb61"/>
      <path id="Path_216363" data-name="Path 216363" d="M33.447,38.824a2.984,2.984,0,0,0,4.832,1.208c1.852-1.45,1.45-4.027,1.772-6.04.966-6.926,4.027-13.449,6.523-19.892-4.59,1.53-7.973,6.121-9.584,10.47C35.863,27.63,32.32,35.6,33.447,38.824Z" transform="translate(-3.704 -2.764)" fill="#6bc3a3"/>
      <path id="Path_216364" data-name="Path 216364" d="M41.738,28a181.294,181.294,0,0,0-6.2,20.456c-.644,2.5-.242,5.879-2.416,7.651a5.4,5.4,0,0,1-1.127.725,5.219,5.219,0,0,1-4.349-.805,1.685,1.685,0,0,1-.483-.322c-.081,0-.081-.081-.161-.161l.161-.4,2.658-8.3L29.9,46.6c.161-.483.242-1.047.4-1.53.081-.322.161-.644.242-1.047,0-.081.081-.161.081-.242,1.53-6.04,4.107-13.852,9.986-15.624A4.753,4.753,0,0,0,41.738,28Z" transform="translate(-2.492 -5.47)" fill="#508c75"/>
      <path id="Path_216365" data-name="Path 216365" d="M42.8,27.6a181.294,181.294,0,0,0-6.2,20.456c-.564,2.5-.242,5.879-2.416,7.651a4.389,4.389,0,0,1-1.933.966,5.219,5.219,0,0,1-4.349-.805l.081-.161,2.98-9.262.081-.161c.081-.322.161-.644.242-1.047v-.081c1.45-5.8,3.7-14.577,9.5-16.993A14.692,14.692,0,0,1,42.8,27.6Z" transform="translate(-2.667 -5.392)" fill="#6bc3a3"/>
      <path id="Path_216366" data-name="Path 216366" d="M28.938,43.629c-1.852,1.369-4.993,1.289-6.121-.322-1.53-2.336-1.772-5.154-2.416-7.651A181.292,181.292,0,0,0,14.2,15.2c7.731,1.208,10.228,12.322,11.758,18.684Z" transform="translate(0 -2.978)" fill="#508c75"/>
      <path id="Path_216367" data-name="Path 216367" d="M31.127,55.324A2.984,2.984,0,0,1,26.3,56.532c-1.852-1.45-1.45-4.027-1.772-6.04C23.557,43.566,20.5,37.043,18,30.6c4.59,1.53,7.973,6.121,9.584,10.47C28.631,44.13,32.255,52.183,31.127,55.324Z" transform="translate(-0.74 -5.976)" fill="#6bc3a3"/>
      <path id="Path_216368" data-name="Path 216368" d="M30.208,54.9a2.809,2.809,0,0,1-3.7,1.772,2.861,2.861,0,0,1-.725-.322,1.685,1.685,0,0,1-.483-.322c-.081,0-.081-.081-.161-.161-1.611-1.45-1.289-3.946-1.611-5.879C22.557,43.066,19.5,36.543,17,30.1l1.208.483h.081c.242.161.483.242.725.4,3.544,2.013,6.2,5.879,7.57,9.584.4,1.127,1.127,2.9,1.852,4.832.161.4.322.805.483,1.289v.081c1.047,3.221,1.852,6.443,1.289,8.134Z" transform="translate(-0.545 -5.878)" fill="#508c75"/>
    </g>
    <g id="maize-2" data-name="maize" transform="translate(36.824 195.89)">
      <path id="Path_216361-2" data-name="Path 216361" d="M39.65,22.281a23.541,23.541,0,0,1-.09,2.516,23.675,23.675,0,0,1-.18,2.516c-.09.809-.18,1.707-.27,2.426-.09.9-.27,1.707-.359,2.516-.18.9-.359,1.707-.539,2.516-.18.629-.27,1.168-.449,1.707l-.27.809a15.153,15.153,0,0,1-.988,2.426,13.224,13.224,0,0,1-1.437,2.516,2.422,2.422,0,0,1-.629.719,4.648,4.648,0,0,1-3.324,1.707,4.648,4.648,0,0,1-3.324-1.707,5.136,5.136,0,0,1-.629-.719,13.224,13.224,0,0,1-1.437-2.516,19.549,19.549,0,0,1-.988-2.426l-.27-.809a9.477,9.477,0,0,1-.449-1.707c-.18-.809-.359-1.617-.539-2.516a8.988,8.988,0,0,1-.539-2.605l-.27-2.426c-.09-.809-.09-1.617-.18-2.516,0-.809-.09-1.617-.09-2.516a23.541,23.541,0,0,1,.09-2.516,20.5,20.5,0,0,1,.18-2.426c.09-.809.18-1.707.27-2.516.09-.9.27-1.707.359-2.516.18-.9.359-1.707.539-2.516.18-.629.27-1.168.449-1.707a6.19,6.19,0,0,1,.27-.719,20.924,20.924,0,0,1,.988-2.516,13.224,13.224,0,0,1,1.437-2.516,2.422,2.422,0,0,1,.629-.719A5.586,5.586,0,0,1,31.025,0a4.648,4.648,0,0,1,3.324,1.707,5.136,5.136,0,0,1,.629.719,16.757,16.757,0,0,1,1.437,2.516A16.312,16.312,0,0,1,37.4,7.457a6.189,6.189,0,0,0,.27.719,9.477,9.477,0,0,1,.449,1.707c.18.809.359,1.617.539,2.516a21.185,21.185,0,0,1,.359,2.516c.09.809.18,1.617.27,2.516.09.809.09,1.617.18,2.426a10.642,10.642,0,0,1,.18,2.426Z" transform="translate(-0.833 -0.01)" fill="#fee8af" stroke="#f6d683" stroke-width="1"/>
      <path id="Path_216362-2" data-name="Path 216362" d="M39.451,22.271a2.69,2.69,0,0,0-.719-.359c-.27-.09-.539-.09-.809-.18v-.18a1.666,1.666,0,0,0-.18-.629c0-.09-.09-.27-.09-.359V20.2a4.509,4.509,0,0,0,1.078-.18c.18-.09.359-.09.539-.27v-.09l-.539-.27a3.192,3.192,0,0,0-.9-.18v-.18a1.666,1.666,0,0,0-.18-.629c0-.09-.09-.18-.09-.359V17.6a4.51,4.51,0,0,0,1.078-.18c.18-.09.27-.09.449-.18v-.09c-.18-.09-.27-.18-.449-.18a2.658,2.658,0,0,0-.9-.18v-.18a1.666,1.666,0,0,0-.18-.629.33.33,0,0,0-.09-.27v-.449a2.928,2.928,0,0,0,1.168-.359v-.09a2.666,2.666,0,0,0-.988-.359v-.18c0-.18-.18-.449-.18-.629v-.539c0-.09.09-.18.09-.27.18,0,.27-.09.449-.18.09-.09.18-.09.27-.18v-.09c-.09-.09-.18-.09-.27-.18s-.18-.09-.27-.18a.33.33,0,0,0-.09-.27,1.666,1.666,0,0,1-.18-.629c-.09-.18.09-.449.18-.629a.81.81,0,0,0,.09-.449c0-.09.09-.09.09-.18v-.09l-.09-.09a.679.679,0,0,0-.09-.359.088.088,0,0,0-.09-.09,3.891,3.891,0,0,0-.09-.449c.09-.09.18-.18.18-.27,0-.18-.09-.27-.359-.449h-.09a.8.8,0,0,0-.359.449c0,.09.09.18.18.27a3.891,3.891,0,0,1-.09.449.088.088,0,0,1-.09.09,5.887,5.887,0,0,0-1.258,0H34.151c0-.27-.09-.539-.09-.809v-.27a1.754,1.754,0,0,1,.09-.629l.539.09h.719a9.4,9.4,0,0,0,1.527-.359v-.09a4.723,4.723,0,0,0-1.527-.359H34.241c-.09-.27-.09-.539-.18-.809V5.56a.33.33,0,0,1,.09-.27,1.247,1.247,0,0,0,.809,0,4.379,4.379,0,0,0,.988-.359v-.09a4.379,4.379,0,0,0-.988-.359h-.809v-.09a1.774,1.774,0,0,0,.539-1.258v-.27a1.24,1.24,0,0,0,.27-.359v-.09c-.09-.18-.18-.359-.27-.359v-.18c0-.09-.09-.09-.27-.18h-.09c-.18.09-.27.09-.27.18s-.09.09,0,.18c-.18,0-.359-.09-.539-.09h-.809a4.738,4.738,0,0,0-1.078.27h-.09a4.329,4.329,0,0,0,0-1.078c0-.18-.09-.359-.09-.539a2.348,2.348,0,0,0-.27-.719H31.1c-.09.27-.18.449-.27.719,0,.18-.09.359-.09.539a3.012,3.012,0,0,0,0,.9c-.359.09-.809.09-1.168.18a2.623,2.623,0,0,0-.809-.18H28.4c0-.09-.09-.27-.359-.359h-.09c-.27.09-.359.27-.359.359a.691.691,0,0,0-.18.27v.09a1.112,1.112,0,0,0,.18.27.33.33,0,0,1-.09.27V4.392h-.629a1.5,1.5,0,0,0-.988.359v.09a1.126,1.126,0,0,0,.988.539h.9c0,.27.09.539.09.719v.09a2.623,2.623,0,0,1-.18.809H26.514a9.4,9.4,0,0,0-1.527.359v.09a4.723,4.723,0,0,0,1.527.359H27.5a2.487,2.487,0,0,0,.09.809,4.51,4.51,0,0,0,.18,1.078H27.5c-.27-.09-.629-.09-.988-.18a3.012,3.012,0,0,0-.9,0h-.449v-.09a.088.088,0,0,0-.09-.09.673.673,0,0,0-.09-.449c.09-.09.18-.18.18-.27,0-.18-.09-.27-.359-.449h-.09a.8.8,0,0,0-.359.449c0,.09.09.18.18.27a3.891,3.891,0,0,1-.09.449l-.09.09c0,.09-.09.18-.09.359l-.09.09v.09a.088.088,0,0,0,.09.09,2.19,2.19,0,0,0,0,1.078,1.277,1.277,0,0,1,.18.539v.359h-.27a.777.777,0,0,0-.539.27v.09a.777.777,0,0,0,.539.27h.09v.27a1.529,1.529,0,0,0,.09.629c.09.18.09.359.18.539v.27a.54.54,0,0,0-.359.09h-.09a1.2,1.2,0,0,0-.719.27v.09a1.2,1.2,0,0,0,.719.27h.27a2.623,2.623,0,0,0,.18.809.977.977,0,0,1,.09.449v.27A1.529,1.529,0,0,0,24,16.7a1.449,1.449,0,0,0-.809.27v.09a1.449,1.449,0,0,0,.809.27c.18,0,.27.09.449.09a2.623,2.623,0,0,0,.18.809.81.81,0,0,1,.09.449v.359a3.056,3.056,0,0,0-.9.09c-.27.09-.539.09-.719.27v.09a1.434,1.434,0,0,0,.719.27,1.978,1.978,0,0,0,.719.09,2.623,2.623,0,0,0,.18.809c0,.18.09.27.09.449v.359a1.777,1.777,0,0,0-.988.18c-.18.09-.449.09-.629.27V22c.18.09.449.18.629.27.27.09.539.09.809.18v.18a1.666,1.666,0,0,0,.18.629c0,.09.09.27.09.359v.449a4.51,4.51,0,0,0-1.078.18c-.18.09-.359.09-.539.27v.09l.539.27a3.192,3.192,0,0,0,.9.18v.18a1.666,1.666,0,0,0,.18.629c0,.09.09.18.09.27v.539a4.51,4.51,0,0,0-1.078.18c-.18.09-.27.09-.449.18v.09c.18.09.27.18.449.18a2.658,2.658,0,0,0,.9.18v.18a1.666,1.666,0,0,0,.18.629.33.33,0,0,0,.09.27V29.1a2.927,2.927,0,0,0-1.168.359v.09a2.666,2.666,0,0,0,.988.359v.18c0,.18.18.449.18.629v.539c0,.09-.09.18-.09.27-.18,0-.27.09-.449.18-.09.09-.18.09-.27.18v.09c.09.09.18.09.27.18s.18.09.27.18a.33.33,0,0,0,.09.27,1.666,1.666,0,0,1,.18.629c.09.18-.09.449-.18.629a.81.81,0,0,0-.09.449c0,.09-.09.09-.09.18v.09l.09.09a.679.679,0,0,0,.09.359.088.088,0,0,0,.09.09,3.891,3.891,0,0,0,.09.449c-.09.09-.18.18-.18.27,0,.18.09.27.359.449h.09a.8.8,0,0,0,.359-.449c0-.09-.09-.18-.18-.27a3.891,3.891,0,0,1,.09-.449.088.088,0,0,1,.09-.09,5.887,5.887,0,0,0,1.258,0H28.4a.81.81,0,0,0,.09.449v.359a2.487,2.487,0,0,1-.09.809l-.539-.09h-.719a9.4,9.4,0,0,0-1.527.359v.09a4.723,4.723,0,0,0,1.527.359h1.168c0,.18.09.27.09.449a5.525,5.525,0,0,0-.09,1.258h-.629a4.379,4.379,0,0,0-.988.359v.09a4.38,4.38,0,0,0,.988.359h.809v.18a1.323,1.323,0,0,0-.988,1.258v.27a1.24,1.24,0,0,0-.27.359v.09a1.24,1.24,0,0,0,.27.359v.18c0,.09.09.09.27.18h.09c.18-.09.27-.09.27-.18s.09-.09,0-.18c.18,0,.359.09.539.09h.809a2.623,2.623,0,0,0,.809-.18c.09,0,.18-.09.27-.09h.27l.09.09a3.192,3.192,0,0,0-.18.9,1.529,1.529,0,0,0,.09.629c.09.18.09.449.27.629h.09a6.618,6.618,0,0,0,.359-1.258v-.27a1.277,1.277,0,0,0-.18-.539,1.978,1.978,0,0,0,.719-.09,1.978,1.978,0,0,0,.719.09,2.443,2.443,0,0,0,.809,0c.18,0,.359-.09.629-.09a.681.681,0,0,0,.18.359h.09a1.277,1.277,0,0,0,.18-.539c.09-.09.27-.09.359-.18v-.09c-.09-.09-.18-.09-.27-.18,0-.18.09-.27.09-.449V39.7H35.5a1.5,1.5,0,0,0,.988-.359v-.09a2.211,2.211,0,0,0-.988-.359h-.9c0-.27-.09-.539-.09-.809a2.623,2.623,0,0,1,.18-.809h1.168a9.4,9.4,0,0,0,1.527-.359v-.09a4.723,4.723,0,0,0-1.527-.359H34.78a2.487,2.487,0,0,0-.09-.809,4.51,4.51,0,0,0-.18-1.078h.27c.27.09.629.09.988.18a3.012,3.012,0,0,0,.9,0h.449v.09a.088.088,0,0,0,.09.09.673.673,0,0,0,.09.449c-.09.09-.18.18-.18.27,0,.18.09.27.359.449h.09a.8.8,0,0,0,.359-.449c0-.09-.09-.18-.18-.27a3.891,3.891,0,0,1,.09-.449l.09-.09c0-.09.09-.18.09-.359l.09-.09v-.09a.088.088,0,0,0-.09-.09,2.19,2.19,0,0,0,0-1.078,1.277,1.277,0,0,1-.18-.539v-.27h.27a.777.777,0,0,0,.539-.27v-.09a.777.777,0,0,0-.539-.27h-.09v-.27a1.529,1.529,0,0,0-.09-.629c-.09-.18-.09-.359-.18-.539V30a.54.54,0,0,0,.359-.09h.09a1.2,1.2,0,0,0,.719-.27v-.09a1.2,1.2,0,0,0-.719-.27h-.27a2.623,2.623,0,0,0-.18-.809,1.14,1.14,0,0,1-.09-.539v-.27a1.529,1.529,0,0,0,.629-.09,1.449,1.449,0,0,0,.809-.27v-.09a1.449,1.449,0,0,0-.809-.27c-.18,0-.27-.09-.449-.09a2.623,2.623,0,0,0-.18-.809.977.977,0,0,1-.09-.449v-.27a3.056,3.056,0,0,0,.9-.09c.27-.09.539-.09.719-.27v-.09a1.434,1.434,0,0,0-.719-.27,1.978,1.978,0,0,0-.719-.09,2.623,2.623,0,0,0-.18-.809.81.81,0,0,1-.09-.449V22.9a2.279,2.279,0,0,0,1.078-.18,8.347,8.347,0,0,0,.9-.449h0ZM36.037,34.31a4.509,4.509,0,0,0-1.078.18H34.6c0-.18-.09-.359-.09-.629a7.048,7.048,0,0,0,.18-1.258h1.258a1.529,1.529,0,0,0,.629-.09,1.978,1.978,0,0,0,.719-.09l.09.09v.27a1.277,1.277,0,0,1-.18.539,2.77,2.77,0,0,0-.09.9h-.27a2.487,2.487,0,0,0-.809.09ZM26.155,10.232a6.183,6.183,0,0,0,1.168-.18h.359c0,.18.09.359.09.629a7.048,7.048,0,0,0-.18,1.258H26.334a1.529,1.529,0,0,0-.629.09,1.978,1.978,0,0,0-.719.09l-.09-.09v-.27c0-.18.18-.359.18-.539a2.77,2.77,0,0,0,.09-.9h.27a2.233,2.233,0,0,0,.719-.09Zm11.23,12.848a.81.81,0,0,1-.09.449,3.192,3.192,0,0,0-.18.9h-.539a1.978,1.978,0,0,1-.719-.09,7.667,7.667,0,0,0-1.437,0v-.359a7.048,7.048,0,0,0,.18-1.258h1.258a1.529,1.529,0,0,0,.629-.09,1.529,1.529,0,0,0,.629-.09.314.314,0,0,0,.18.09.81.81,0,0,1,.09.449Zm0,2.426a3.891,3.891,0,0,1-.09.449c-.09.27-.09.629-.18.9h-.539a1.978,1.978,0,0,1-.719-.09,7.667,7.667,0,0,0-1.437,0V26.4a7.048,7.048,0,0,0,.18-1.258h1.258a1.529,1.529,0,0,0,.629-.09,1.529,1.529,0,0,0,.629-.09c0,.09.09.09.18.09a.81.81,0,0,1,.09.449Zm0,2.426c0,.18-.09.359-.09.539-.09.27-.09.629-.18.9h-.539a1.978,1.978,0,0,1-.719-.09,7.667,7.667,0,0,0-1.437,0v-.359a7.048,7.048,0,0,0,.18-1.258h1.258a1.529,1.529,0,0,0,.629-.09,1.529,1.529,0,0,0,.629-.09c0,.09.09.09.18.09a.679.679,0,0,1,.09.359ZM34.151,38.263v.09a1.529,1.529,0,0,1-.09.629,21.175,21.175,0,0,0-2.605.27.193.193,0,0,0-.18-.18c0-.27.09-.629.09-.9v-.809h1.168a1.529,1.529,0,0,0,.629-.09,1.529,1.529,0,0,0,.629-.09A2.433,2.433,0,0,1,34.151,38.263Zm-9.164-8.894-.09-.09c0-.09,0-.09-.09-.18V28.74a.33.33,0,0,1,.09-.27c.09-.18.09-.449.18-.629v-.27h.539a1.978,1.978,0,0,1,.719.09,7.667,7.667,0,0,0,1.437,0v.359a7.048,7.048,0,0,0-.18,1.258H26.334a1.529,1.529,0,0,0-.629.09.992.992,0,0,0-.719,0Zm.09-4.312h.539a1.978,1.978,0,0,1,.719.09,7.667,7.667,0,0,0,1.437,0v.359a7.048,7.048,0,0,0-.18,1.258H26.334a1.529,1.529,0,0,0-.629.09,1.529,1.529,0,0,0-.629.09.314.314,0,0,0-.18-.09V26.4a.54.54,0,0,1,.09-.359c.09-.18.09-.449.18-.629Zm-.27-1.078a.81.81,0,0,1,.09-.449c.09-.18.09-.449.18-.629v-.27h.539a1.978,1.978,0,0,1,.719.09,7.667,7.667,0,0,0,1.437,0v.359a7.048,7.048,0,0,0-.18,1.258H26.334a1.529,1.529,0,0,0-.629.09,1.529,1.529,0,0,0-.629.09.314.314,0,0,0-.18-.09,1.2,1.2,0,0,1-.09-.449Zm0-2.516a.673.673,0,0,1,.09-.449,3.192,3.192,0,0,0,.18-.9h.539a1.978,1.978,0,0,1,.719.09,7.667,7.667,0,0,0,1.437,0v.359a7.048,7.048,0,0,0-.18,1.258H26.334a1.529,1.529,0,0,0-.629.09,1.529,1.529,0,0,0-.629.09c0-.09-.09-.09-.18-.09a.81.81,0,0,1-.09-.449Zm0-2.426c0-.18.09-.359.09-.539.09-.27.09-.629.18-.9h.539a1.978,1.978,0,0,1,.719.09,7.667,7.667,0,0,0,1.437,0v.359a7.048,7.048,0,0,0-.18,1.258H26.334a1.529,1.529,0,0,0-.629.09,1.529,1.529,0,0,0-.629.09c0-.09-.09-.09-.18-.09-.09-.09-.09-.18-.09-.359Zm0-2.426c0-.18.09-.359.09-.539.09-.27.09-.629.18-.9h.539a1.978,1.978,0,0,1,.719.09,7.667,7.667,0,0,0,1.437,0v.359a7.048,7.048,0,0,0-.18,1.258H26.334a1.529,1.529,0,0,0-.629.09,1.529,1.529,0,0,0-.629.09c0-.09-.09-.09-.18-.09a.679.679,0,0,1-.09-.359ZM32.713,5.38c.449,0,.9-.09,1.348-.09,0,.18.09.359.09.539v.359a3.192,3.192,0,0,1-.18.9h-.629A1.978,1.978,0,0,1,32.623,7H31.366c0-.27-.09-.629-.09-.9s.09-.449.09-.719a3.4,3.4,0,0,0,1.348,0Zm4.492,9.793.09.09c0,.09,0,.09.09.18V15.8a.33.33,0,0,1-.09.27c-.09.18-.09.449-.18.629v.27h-.539a1.978,1.978,0,0,1-.719-.09,7.667,7.667,0,0,0-1.437,0v-.359a7.048,7.048,0,0,0,.18-1.258h1.258a1.529,1.529,0,0,0,.629-.09A1.933,1.933,0,0,0,37.205,15.173Zm-.09,4.312h-.539a1.978,1.978,0,0,1-.719-.09,7.667,7.667,0,0,0-1.437,0v-.359a7.048,7.048,0,0,0,.18-1.258h1.258a1.529,1.529,0,0,0,.629-.09,1.529,1.529,0,0,0,.629-.09c0,.09.09.09.18.09v.449a.54.54,0,0,1-.09.359c-.09.18-.09.449-.18.629l.09.359Zm.27,1.168a.81.81,0,0,1-.09.449c-.09.18-.09.449-.18.629V22h-.539a1.978,1.978,0,0,1-.719-.09,7.667,7.667,0,0,0-1.437,0v-.359a7.048,7.048,0,0,0,.18-1.258h1.258a1.529,1.529,0,0,0,.629-.09,1.529,1.529,0,0,0,.629-.09.314.314,0,0,0,.18.09.81.81,0,0,1,.09.449ZM29.479,36.646a6.935,6.935,0,0,0-1.348.18,2.487,2.487,0,0,1-.09-.809v-.09a3.37,3.37,0,0,1,.09-.9.088.088,0,0,0,.09-.09c.18,0,.449.09.629,0a1.978,1.978,0,0,1,.719.09h1.258c0,.27.09.629.09.9s-.09.449-.09.719ZM28.311,7.806h.539a1.978,1.978,0,0,1,.719.09h1.258c0,.27.09.629.09.9s-.09.449-.09.719H29.569a1.529,1.529,0,0,0-.629.09,1.751,1.751,0,0,0-.719.09,3.056,3.056,0,0,0,.09-.9,3.624,3.624,0,0,1,0-.988Zm5.75,0a3.057,3.057,0,0,1,.09.9,1.752,1.752,0,0,1-.09.719v.09a.088.088,0,0,0-.09.09c-.18,0-.449-.09-.629,0a1.978,1.978,0,0,1-.719-.09H31.366c0-.27-.09-.629-.09-.9s.09-.449.09-.719h1.258a1.529,1.529,0,0,0,.629-.09h.809Zm-5.75,26.5a7.912,7.912,0,0,0-.18-1.527v-.27a.088.088,0,0,0,.09-.09c.18,0,.449.09.629,0a1.978,1.978,0,0,1,.719.09h1.258c0,.27.09.629.09.9s-.09.449-.09.719H29.569a1.529,1.529,0,0,0-.629.09,1.332,1.332,0,0,0-.629.09Zm-.18-24.078c.27,0,.449.09.719.09a1.978,1.978,0,0,1,.719.09h1.258c0,.27.09.629.09.9s-.09.449-.09.719H29.569a1.529,1.529,0,0,0-.629.09h-.629a7.912,7.912,0,0,0-.18-1.527c-.09-.18,0-.27,0-.359Zm5.75,0a7.912,7.912,0,0,0,.18,1.527v.27a.088.088,0,0,0-.09.09c-.18,0-.449-.09-.629,0a1.978,1.978,0,0,1-.719-.09H31.366c0-.27-.09-.629-.09-.9s.09-.449.09-.719h1.258a1.529,1.529,0,0,0,.629-.09c.27,0,.449-.09.629-.09Zm-5.57,21.562a7.912,7.912,0,0,0-.18-1.527V30a.088.088,0,0,0,.09-.09c.18,0,.449.09.629,0a1.978,1.978,0,0,1,.719.09h1.258c0,.27.09.629.09.9s-.09.449-.09.719H29.569a1.529,1.529,0,0,0-.629.09,1.754,1.754,0,0,1-.629.09Zm5.57-19.047a7.912,7.912,0,0,0,.18,1.527v.27a.088.088,0,0,0-.09.09c-.18,0-.449-.09-.629,0a1.978,1.978,0,0,1-.719-.09H31.366c0-.27-.09-.629-.09-.9s.09-.449.09-.719h1.258a1.529,1.529,0,0,0,.629-.09,1.754,1.754,0,0,1,.629-.09Zm-5.57,16.621a7.912,7.912,0,0,0-.18-1.527v-.27a.088.088,0,0,0,.09-.09c.18,0,.449.09.629,0a1.978,1.978,0,0,1,.719.09h1.258c0,.27.09.629.09.9s-.09.449-.09.719H29.569a1.529,1.529,0,0,0-.629.09,1.332,1.332,0,0,0-.629.09Zm5.57-14.2a7.912,7.912,0,0,0,.18,1.527v.27a.088.088,0,0,0-.09.09c-.18,0-.449-.09-.629,0a1.978,1.978,0,0,1-.719-.09H31.366c0-.27-.09-.629-.09-.9s.09-.449.09-.719h1.258a1.529,1.529,0,0,0,.629-.09c.27,0,.449-.09.629-.09Zm.18,9.254c-.18,0-.449-.09-.629,0a1.978,1.978,0,0,1-.719-.09H31.455c0-.27-.09-.629-.09-.9s.09-.449.09-.719h1.258a1.529,1.529,0,0,0,.629-.09h.629a7.912,7.912,0,0,0,.18,1.527.7.7,0,0,1-.09.27h0Zm-5.75,2.426a7.912,7.912,0,0,0-.18-1.527v-.27a.088.088,0,0,0,.09-.09c.18,0,.449.09.629,0a1.978,1.978,0,0,1,.719.09h1.258c0,.27.09.629.09.9s-.09.449-.09.719H29.569a1.529,1.529,0,0,0-.629.09,1.754,1.754,0,0,1-.629.09Zm0-2.426a7.912,7.912,0,0,0-.18-1.527v-.27a.088.088,0,0,0,.09-.09c.18,0,.449.09.629,0a1.978,1.978,0,0,1,.719.09h1.258c0,.27.09.629.09.9s-.09.449-.09.719H29.569a1.529,1.529,0,0,0-.629.09c-.27,0-.449.09-.629.09Zm0-2.516a7.912,7.912,0,0,0-.18-1.527v-.27a.088.088,0,0,0,.09-.09c.18,0,.449.09.629,0a1.978,1.978,0,0,1,.719.09h1.258c0,.27.09.629.09.9s-.09.449-.09.719H29.569a1.529,1.529,0,0,0-.629.09,1.754,1.754,0,0,1-.629.09Zm0-2.426a7.912,7.912,0,0,0-.18-1.527v-.27a.088.088,0,0,0,.09-.09c.18,0,.449.09.629,0a1.978,1.978,0,0,1,.719.09h1.258c0,.27.09.629.09.9s-.09.449-.09.719H29.569a1.529,1.529,0,0,0-.629.09c-.27,0-.449.09-.629.09Zm5.57-1.8a7.912,7.912,0,0,0,.18,1.527v.27a.088.088,0,0,0-.09.09c-.18,0-.449-.09-.629,0a1.978,1.978,0,0,1-.719-.09H31.366c0-.27-.09-.629-.09-.9s.09-.449.09-.719h1.258a1.529,1.529,0,0,0,.629-.09,1.754,1.754,0,0,1,.629-.09Zm0,2.426a7.912,7.912,0,0,0,.18,1.527v.27a.088.088,0,0,0-.09.09c-.18,0-.449-.09-.629,0a1.978,1.978,0,0,1-.719-.09H31.366c0-.27-.09-.629-.09-.9s.09-.449.09-.719h1.258a1.529,1.529,0,0,0,.629-.09c.27,0,.449-.09.629-.09Zm-4.4-4.852h1.258c0,.27.09.629.09.9s-.09.449-.09.719H29.479a1.529,1.529,0,0,0-.629.09h-.629a7.912,7.912,0,0,0-.18-1.527v-.27a.088.088,0,0,0,.09-.09c.18,0,.449.09.629,0A1.208,1.208,0,0,0,29.479,15.263Zm3.234,11.5H31.455c0-.27-.09-.629-.09-.9s.09-.449.09-.719h1.258a1.529,1.529,0,0,0,.629-.09h.629a7.912,7.912,0,0,0,.18,1.527v.27a.088.088,0,0,0-.09.09c-.18,0-.449-.09-.629,0a2.777,2.777,0,0,0-.719-.18ZM29.479,12.837h1.258c0,.27.09.629.09.9s-.09.449-.09.719H29.479a1.529,1.529,0,0,0-.629.09h-.629a7.912,7.912,0,0,0-.18-1.527v-.27a.088.088,0,0,0,.09-.09c.18,0,.449.09.629,0a2.777,2.777,0,0,0,.719.18Zm3.234,16.441H31.455c0-.27-.09-.629-.09-.9s.09-.449.09-.719h1.258a1.529,1.529,0,0,0,.629-.09h.629a7.912,7.912,0,0,0,.18,1.527v.27a.088.088,0,0,0-.09.09c-.18,0-.449-.09-.629,0a1.208,1.208,0,0,0-.719-.18Zm0,2.426H31.455c0-.27-.09-.629-.09-.9s.09-.449.09-.719h1.258a1.529,1.529,0,0,0,.629-.09h.629a7.912,7.912,0,0,0,.18,1.527v.27a.088.088,0,0,0-.09.09c-.18,0-.449-.09-.629,0a2.777,2.777,0,0,0-.719-.18Zm0,2.516H31.455c0-.27-.09-.629-.09-.9s.09-.449.09-.719h1.258a1.529,1.529,0,0,0,.629-.09h.629a7.912,7.912,0,0,0,.18,1.527.33.33,0,0,1-.09.27c-.27,0-.449-.09-.719-.09h-.629ZM30.737,5.2c0,.359.09.809.09,1.168,0,.27-.09.449-.09.719H29.479a1.529,1.529,0,0,0-.629.09,1.529,1.529,0,0,0-.629.09,3.192,3.192,0,0,1-.18-.9v-.09a1.978,1.978,0,0,1,.09-.719c.9-.09,1.8-.27,2.605-.359-.09-.09-.09,0,0,0Zm3.145,31.535h-.449a1.978,1.978,0,0,1-.719-.09H31.455c0-.27-.09-.629-.09-.9s.09-.449.09-.719h1.258a1.529,1.529,0,0,0,.629-.09,1.751,1.751,0,0,0,.719-.09,3.056,3.056,0,0,0-.09.9c0,.359-.09.719-.09.988Zm3.324-23.988a.33.33,0,0,1,.09.27v.719a1.666,1.666,0,0,0-.18.629v.27h-.539a1.978,1.978,0,0,1-.719-.09,7.667,7.667,0,0,0-1.437,0v-.359a7.048,7.048,0,0,0,.18-1.258h1.258a1.529,1.529,0,0,0,.629-.09A2.233,2.233,0,0,1,37.205,12.748Zm-10.961.09a7.667,7.667,0,0,0,1.437,0V13.2a7.048,7.048,0,0,0-.18,1.258H26.245a1.529,1.529,0,0,0-.629.09,1.529,1.529,0,0,0-.629.09c0-.09-.09-.09-.18-.09v-.27a1.277,1.277,0,0,1,.18-.539,1.529,1.529,0,0,0,.09-.629v-.27h.449a1.917,1.917,0,0,1,.719,0ZM24.987,31.794c-.09-.09-.09-.18-.18-.27a.33.33,0,0,0-.09-.27V30.9a1.666,1.666,0,0,0,.18-.629V30h.539a1.978,1.978,0,0,1,.719.09,7.667,7.667,0,0,0,1.437,0v.359a7.048,7.048,0,0,0-.18,1.258H26.155a1.529,1.529,0,0,0-.629.09h-.539Zm3.234,7.367a7.048,7.048,0,0,0-.18-1.258c0-.18.09-.449.09-.629a6.365,6.365,0,0,0,1.258.09h1.168v.809c0,.27.09.539.09.809a12.229,12.229,0,0,0-1.887.18Q28.625,39.3,28.221,39.161ZM35.948,31.7a7.667,7.667,0,0,0-1.437,0v-.359a7.048,7.048,0,0,0,.18-1.258h1.258a1.529,1.529,0,0,0,.629-.09,1.529,1.529,0,0,0,.629-.09.314.314,0,0,0,.18.09v.27a1.277,1.277,0,0,1-.18.539,1.529,1.529,0,0,0-.09.629v.27h-.449a1.917,1.917,0,0,1-.719,0Zm0-21.383h1.258c0,.09,0,.18.09.18a1.666,1.666,0,0,1,.18.629c0,.18-.18.449-.18.629a.33.33,0,0,1-.09.27h-.539a1.978,1.978,0,0,1-.719-.09,7.667,7.667,0,0,0-1.437,0V11.58a7.048,7.048,0,0,0,.18-1.258h1.258ZM32.713,2.955a2.443,2.443,0,0,0,.809,0c.18,0,.27-.09.449-.09v.359a5.379,5.379,0,0,0,.18,1.078v.09c0,.09-.09.27-.09.359-.449-.09-.9-.09-1.348-.18H31.545V2.685h.18a3.185,3.185,0,0,0,.988.27Zm-3.234-.27a6.067,6.067,0,0,0,1.258.18v.359a1.14,1.14,0,0,1-.09.539,4.374,4.374,0,0,1-.09,1.078,4.51,4.51,0,0,0-1.078-.18h-.359a4.029,4.029,0,0,0-.988-.09V3.763c0-.18.09-.449,0-.629a.33.33,0,0,0-.09-.27h.449a2.773,2.773,0,0,0,.988-.18ZM26.245,34.13H24.987c0-.09,0-.18-.09-.18a1.666,1.666,0,0,1-.18-.629c0-.18.18-.449.18-.629a.33.33,0,0,1,.09-.27h.539a1.978,1.978,0,0,1,.719.09,7.667,7.667,0,0,0,1.437,0v.359a7.048,7.048,0,0,0-.18,1.258Zm4.043,7.637a2.623,2.623,0,0,0-.809-.18,2.443,2.443,0,0,0-.809,0c-.18,0-.27.09-.449.09v-.359a4.509,4.509,0,0,0-.18-1.078.33.33,0,0,1,.09-.27c.27,0,.629-.09.9-.09a12.625,12.625,0,0,0,1.617.18v1.887h-.18C30.467,41.767,30.377,41.767,30.287,41.767Zm1.168-.09v-.359a1.14,1.14,0,0,1,.09-.539,4.374,4.374,0,0,1,.09-1.078,4.509,4.509,0,0,0,1.078.18h.359a4.029,4.029,0,0,0,.988.09v.719c0,.18-.09.449,0,.629a.33.33,0,0,0,.09.27c-.18,0-.27-.09-.449-.09h-.809c-.27,0-.449.09-.719.09a2.529,2.529,0,0,1-.719.09Z" transform="translate(-0.904)" fill="#fbcb61"/>
      <path id="Path_216363-2" data-name="Path 216363" d="M33.472,41.682a3.329,3.329,0,0,0,5.391,1.348c2.066-1.617,1.617-4.492,1.977-6.738,1.078-7.726,4.492-15,7.277-22.191C43,15.807,39.222,20.928,37.426,25.78,36.168,29.194,32.215,38.088,33.472,41.682Z" transform="translate(-1.933 -1.442)" fill="#6bc3a3"/>
      <path id="Path_216364-2" data-name="Path 216364" d="M43.441,28a202.247,202.247,0,0,0-6.918,22.82c-.719,2.785-.27,6.559-2.7,8.535a6.025,6.025,0,0,1-1.258.809,5.823,5.823,0,0,1-4.852-.9,1.879,1.879,0,0,1-.539-.359c-.09,0-.09-.09-.18-.18l.18-.449,2.965-9.254.09-.27c.18-.539.27-1.168.449-1.707.09-.359.18-.719.27-1.168,0-.09.09-.18.09-.27,1.707-6.738,4.582-15.453,11.141-17.43A5.3,5.3,0,0,0,43.441,28Z" transform="translate(-1.3 -2.854)" fill="#508c75"/>
      <path id="Path_216365-2" data-name="Path 216365" d="M44.521,27.6A202.246,202.246,0,0,0,37.6,50.42c-.629,2.785-.27,6.559-2.7,8.535a4.9,4.9,0,0,1-2.156,1.078,5.823,5.823,0,0,1-4.852-.9l.09-.18,3.324-10.332.09-.18c.09-.359.18-.719.27-1.168v-.09c1.617-6.469,4.133-16.262,10.6-18.957A16.39,16.39,0,0,1,44.521,27.6Z" transform="translate(-1.392 -2.814)" fill="#6bc3a3"/>
      <path id="Path_216366-2" data-name="Path 216366" d="M30.641,46.915c-2.066,1.527-5.57,1.437-6.828-.359-1.707-2.605-1.977-5.75-2.7-8.535A202.246,202.246,0,0,0,14.2,15.2c8.625,1.348,11.41,13.746,13.117,20.844Z" transform="translate(0 -1.554)" fill="#508c75"/>
      <path id="Path_216367-2" data-name="Path 216367" d="M32.644,58.182a3.329,3.329,0,0,1-5.391,1.348c-2.066-1.617-1.617-4.492-1.977-6.738C24.2,45.065,20.785,37.787,18,30.6c5.121,1.707,8.894,6.828,10.691,11.68C29.859,45.694,33.9,54.678,32.644,58.182Z" transform="translate(-0.386 -3.118)" fill="#6bc3a3"/>
      <path id="Path_216368-2" data-name="Path 216368" d="M31.734,57.772A3.134,3.134,0,0,1,27.6,59.748a3.191,3.191,0,0,1-.809-.359,1.879,1.879,0,0,1-.539-.359c-.09,0-.09-.09-.18-.18-1.8-1.617-1.437-4.4-1.8-6.559C23.2,44.565,19.785,37.287,17,30.1l1.348.539h.09c.27.18.539.27.809.449,3.953,2.246,6.918,6.559,8.445,10.691.449,1.258,1.258,3.234,2.066,5.391.18.449.359.9.539,1.437v.09c1.168,3.594,2.066,7.187,1.437,9.074Z" transform="translate(-0.284 -3.067)" fill="#508c75"/>
    </g>
  </g>
</svg>
