<svg xmlns="http://www.w3.org/2000/svg" width="66.361" height="43.966" viewBox="0 0 66.361 43.966">
  <g id="Group_158506" data-name="Group 158506" transform="translate(-25.561 -203.013)">
    <g id="Group_158492" data-name="Group 158492" transform="translate(11 3)">
      <g id="Shape_Abstract_Rain_by_Streamlinehq" data-name="Shape Abstract Rain by Streamlinehq" transform="translate(81.816 223.02) rotate(90)">
        <path id="Path_214891" data-name="Path 214891" d="M3.091,13.83c.187-.561.353-.546.834-.638,1.112,0,1.117,1.258,1.218,2.139a2.16,2.16,0,0,1-.1,1.485c-.148.2-.146.29-.419.29a2.444,2.444,0,0,1-.7-.161,1.35,1.35,0,0,1-.837-1.06A6.949,6.949,0,0,1,3.056,14.7,2.943,2.943,0,0,1,3.091,13.83Z" fill="#2e3120"/>
        <path id="Path_214892" data-name="Path 214892" d="M17.833,11.361c.2-.779.379-.758.9-.886.331,0,1,.165,1,.729,0,.76.245,1.487.312,2.241a3.816,3.816,0,0,1-.111,2.062c-.319.571-.653.375-1.2.179a1.855,1.855,0,0,1-.9-1.472,12.457,12.457,0,0,1-.035-1.646A5.262,5.262,0,0,1,17.833,11.361Z" fill="#2e3120"/>
        <path id="Path_214893" data-name="Path 214893" d="M9.866,12.569c.256-.561.484-.546,1.144-.638,1.323,0,1.49.988,1.67,2.139.074.474.263,1.077-.141,1.485-.2.2-.2.29-.574.29a4.426,4.426,0,0,1-.954-.161,1.523,1.523,0,0,1-1.149-1.06,5.078,5.078,0,0,1-.044-1.185A2.16,2.16,0,0,1,9.866,12.569Z" fill="#2e3120"/>
        <path id="Path_214894" data-name="Path 214894" d="M6.657,7.617c0-.767-.009-1.682,1.044-1.845,1.652,0,1.16,2.072,1.16,3.208a1.633,1.633,0,0,1-.551,1.36c-.338.227-1.146-.142-1.35-.372C6.509,9.46,6.657,8.208,6.657,7.617Z" fill="#2e3120"/>
        <path id="Path_214895" data-name="Path 214895" d="M14.829,20.313c0-.767-.01-1.682,1.044-1.845,1.652,0,1.159,2.072,1.159,3.208a1.633,1.633,0,0,1-.551,1.36c-.338.227-1.146-.142-1.35-.372C14.681,22.156,14.829,20.9,14.829,20.313Z" fill="#2e3120"/>
        <path id="Path_214896" data-name="Path 214896" d="M8.015,18.695c.1-.153.4-.176.549-.226.368,0,.713-.031.986.3a2.312,2.312,0,0,1,.188.675,6.2,6.2,0,0,1,.013,1.573c-.014.321-.181.884-.5.961a1.244,1.244,0,0,1-1.226-.442,1.748,1.748,0,0,1-.188-.807c-.018-.323-.06-.634-.058-.959A2.131,2.131,0,0,1,8.015,18.695Z" fill="#2e3120"/>
        <path id="Path_214897" data-name="Path 214897" d="M19.484,1.161c.087-.181.33-.208.454-.266.3,0,.59-.037.815.36a3.663,3.663,0,0,1,.156.8,10.406,10.406,0,0,1,.011,1.855c-.012.378-.15,1.043-.412,1.134A.888.888,0,0,1,19.5,4.519a2.8,2.8,0,0,1-.156-.952c-.015-.381-.05-.748-.048-1.132A3.432,3.432,0,0,1,19.484,1.161Z" fill="#2e3120"/>
        <path id="Path_214898" data-name="Path 214898" d="M13.023,4.762c.1-.229.4-.263.549-.337.368,0,.713-.046.986.456a4.846,4.846,0,0,1,.188,1.01,13.838,13.838,0,0,1,.013,2.351c-.014.48-.181,1.322-.5,1.437a1.06,1.06,0,0,1-1.226-.661,3.707,3.707,0,0,1-.188-1.206c-.019-.483-.061-.948-.058-1.434A4.543,4.543,0,0,1,13.023,4.762Z" fill="#2e3120"/>
      </g>
    </g>
    <g id="mustard-seed" transform="translate(25.593 184.014)">
      <path id="Path_216407" data-name="Path 216407" d="M48.075,37.051a8.649,8.649,0,0,0-4.916,7.533,6.594,6.594,0,0,1-1.834.264,6.523,6.523,0,0,1-1.375-.15,8.651,8.651,0,0,0-5.339-7.838,6.814,6.814,0,0,1,13.464.191Zm10.546,7.8a6.8,6.8,0,0,1-8.443,6.627,8.665,8.665,0,0,0-5.175-6,5.682,5.682,0,0,1-.036-.628,6.828,6.828,0,1,1,13.655,0ZM48.607,53.5a6.828,6.828,0,1,1-6.828-6.828A6.828,6.828,0,0,1,48.607,53.5ZM38.138,44.848a7.332,7.332,0,0,1-.055.842,8.675,8.675,0,0,0-4.67,5.649,6.748,6.748,0,0,1-4.711-.187,8.682,8.682,0,0,0-4.124-5.216,6.577,6.577,0,0,1-.1-1.088,6.828,6.828,0,0,1,13.655,0Zm0-15.021c0,.055,0,.1-.009.155a8.672,8.672,0,0,0-5.28,6.363,8.2,8.2,0,0,0-3.077,0,8.672,8.672,0,0,0-5.28-6.363c0-.05-.009-.1-.009-.155a6.828,6.828,0,0,1,13.655,0ZM28.01,36.86A8.651,8.651,0,0,0,22.671,44.7a6.522,6.522,0,0,1-1.375.15,6.593,6.593,0,0,1-1.834-.264,8.649,8.649,0,0,0-4.916-7.533A6.814,6.814,0,0,1,28.01,36.86Zm-.8,16.637a6.828,6.828,0,1,1-6.828-6.828A6.828,6.828,0,0,1,27.214,53.5Zm-9.559-8.648c0,.155-.014.3-.027.46a8.659,8.659,0,0,0-5.667,6.272,7.139,7.139,0,0,1-1.133.1,6.828,6.828,0,1,1,6.828-6.828Z" transform="translate(-2.196 -2.18)" fill="#ffdb80"/>
      <path id="Path_216408" data-name="Path 216408" d="M45.769,30.593c.557-.3.6-1.207.087-2.035s-1.372-1.261-1.929-.964-.595,1.207-.086,2.035S45.213,30.889,45.769,30.593ZM35.755,38.786c.557-.3.6-1.207.087-2.035s-1.372-1.261-1.929-.964-.595,1.207-.086,2.035S35.2,39.082,35.755,38.786Zm20.028,0c.557-.3.6-1.207.087-2.035s-1.372-1.261-1.929-.964-.595,1.207-.086,2.035S55.226,39.082,55.783,38.786Zm-30.5,6.828c.557-.3.6-1.207.087-2.035S24,42.317,23.444,42.614s-.595,1.207-.086,2.035S24.73,45.91,25.286,45.613Zm39.124-3c-.558.3-.595,1.207-.086,2.035s1.372,1.261,1.928.965.6-1.207.087-2.035S64.966,42.317,64.41,42.614Zm-18.554.964c-.509-.829-1.372-1.261-1.929-.964s-.595,1.207-.086,2.035,1.372,1.261,1.928.965S46.365,44.406,45.855,43.578ZM33,51.262c-.558.3-.595,1.207-.086,2.035s1.372,1.261,1.928.965.6-1.207.087-2.035S33.559,50.966,33,51.262Zm21.393,0c-.558.3-.595,1.207-.086,2.035s1.372,1.261,1.928.965.6-1.207.087-2.035S54.952,50.966,54.4,51.262Z" transform="translate(-12.548 -4.631)" fill="#cba340"/>
      <path id="Path_216409" data-name="Path 216409" d="M49.6,34.021a8.536,8.536,0,0,0-1.975.237,8.593,8.593,0,0,0-9.877-6.946,8.636,8.636,0,0,0-17.26,0,8.593,8.593,0,0,0-9.877,6.946,8.536,8.536,0,0,0-1.975-.237,8.648,8.648,0,1,0,.915,17.247.187.187,0,0,0,0,.05,8.648,8.648,0,1,0,17.3,0c0-.109-.014-.214-.018-.319a8.67,8.67,0,0,0,2.294.319,8.383,8.383,0,0,0,1.83-.209c0,.073-.009.141-.009.209a8.648,8.648,0,1,0,17.3,0c0-.041,0-.077,0-.118a8.475,8.475,0,0,0,1.37.118,8.648,8.648,0,0,0,0-17.3ZM39.128,29.014a6.832,6.832,0,0,1,6.75,5.858A8.649,8.649,0,0,0,40.962,42.4a6.594,6.594,0,0,1-1.834.264,6.523,6.523,0,0,1-1.375-.15,8.651,8.651,0,0,0-5.339-7.838A6.826,6.826,0,0,1,39.128,29.014ZM29.114,20.82a6.836,6.836,0,0,1,6.828,6.828c0,.055,0,.1-.009.155a8.672,8.672,0,0,0-5.28,6.363,8.2,8.2,0,0,0-3.077,0A8.672,8.672,0,0,0,22.3,27.8c0-.05-.009-.1-.009-.155A6.836,6.836,0,0,1,29.114,20.82ZM19.1,29.014a6.826,6.826,0,0,1,6.714,5.667,8.651,8.651,0,0,0-5.339,7.838,6.522,6.522,0,0,1-1.375.15,6.593,6.593,0,0,1-1.834-.264,8.649,8.649,0,0,0-4.916-7.533,6.832,6.832,0,0,1,6.75-5.858ZM8.631,49.5a6.828,6.828,0,1,1,6.828-6.828c0,.155-.014.3-.027.46A8.659,8.659,0,0,0,9.765,49.4a7.139,7.139,0,0,1-1.133.1Zm9.559,8.648a6.828,6.828,0,1,1,6.828-6.828,6.828,6.828,0,0,1-6.828,6.828ZM29.114,49.5a6.737,6.737,0,0,1-2.608-.523,8.682,8.682,0,0,0-4.124-5.216,6.577,6.577,0,0,1-.1-1.088,6.828,6.828,0,1,1,13.655,0,7.333,7.333,0,0,1-.055.842,8.675,8.675,0,0,0-4.67,5.649A6.694,6.694,0,0,1,29.114,49.5Zm10.469,8.648a6.828,6.828,0,1,1,6.828-6.828A6.828,6.828,0,0,1,39.583,58.145ZM49.6,49.5a6.773,6.773,0,0,1-1.616-.2,8.665,8.665,0,0,0-5.175-6,5.684,5.684,0,0,1-.036-.628A6.828,6.828,0,1,1,49.6,49.5Z" transform="translate(0)" fill="#cba340"/>
      <path id="Path_216410" data-name="Path 216410" d="M72.592,44.336a8.649,8.649,0,0,0-4.916,7.533,6.594,6.594,0,0,1-1.834.264,6.522,6.522,0,0,1-1.375-.15,8.651,8.651,0,0,0-5.339-7.838,7,7,0,0,1,.2-.824,8.648,8.648,0,0,1,5.143,7.752,6.523,6.523,0,0,0,1.375.15,6.594,6.594,0,0,0,1.834-.264,8.634,8.634,0,0,1,4.743-7.442A6.239,6.239,0,0,1,72.592,44.336Zm-9.936-7.224c0,.055,0,.1-.009.155a8.672,8.672,0,0,0-5.28,6.363,8.2,8.2,0,0,0-3.077,0,8.672,8.672,0,0,0-5.28-6.363c0-.05-.009-.1-.009-.155a6.633,6.633,0,0,1,.041-.742,8.662,8.662,0,0,1,5.248,6.35,8.2,8.2,0,0,1,3.077,0,8.662,8.662,0,0,1,5.248-6.35A6.632,6.632,0,0,1,62.655,37.112Z" transform="translate(-26.714 -9.464)" fill="#ad9359" opacity="0.45"/>
      <path id="Path_216411" data-name="Path 216411" d="M62.655,62.828c0,.155,0,.31-.018.46a6.825,6.825,0,0,0-13.619-.018C49,63.123,49,62.978,49,62.828a6.828,6.828,0,1,1,13.655,0Z" transform="translate(-26.714 -20.159)" fill="#f9edd2" opacity="0.5"/>
      <path id="Path_216412" data-name="Path 216412" d="M40.634,52.464A8.651,8.651,0,0,0,35.295,60.3a6.522,6.522,0,0,1-1.375.15,6.593,6.593,0,0,1-1.834-.264,8.649,8.649,0,0,0-4.916-7.533,6.24,6.24,0,0,1,.173-.819,8.634,8.634,0,0,1,4.743,7.442,6.594,6.594,0,0,0,1.834.264,6.522,6.522,0,0,0,1.375-.15,8.648,8.648,0,0,1,5.143-7.752A7,7,0,0,1,40.634,52.464Z" transform="translate(-14.82 -17.783)" fill="#ad9359" opacity="0.45"/>
      <path id="Path_216413" data-name="Path 216413" d="M38.655,81.828c0,.155,0,.3-.018.455a6.824,6.824,0,0,0-13.619,0c-.014-.15-.018-.3-.018-.455a6.828,6.828,0,0,1,13.655,0Z" transform="translate(-13.638 -30.51)" fill="#f9edd2" opacity="0.5"/>
      <path id="Path_216414" data-name="Path 216414" d="M17.655,70.384c0,.155-.014.3-.027.46a8.659,8.659,0,0,0-5.667,6.272,7.14,7.14,0,0,1-1.133.1A6.836,6.836,0,0,1,4,70.384c0-.155,0-.3.018-.455A6.832,6.832,0,0,0,10.828,76.3a7.137,7.137,0,0,0,1.133-.1,8.659,8.659,0,0,1,5.667-6.272c0-.023,0-.041,0-.064A4.81,4.81,0,0,1,17.655,70.384Zm9.559,8.648a6.828,6.828,0,0,1-13.655,0c0-.155,0-.3.018-.455a6.824,6.824,0,0,0,13.619,0C27.209,78.728,27.214,78.878,27.214,79.033Zm10.924-8.648a7.334,7.334,0,0,1-.055.842,8.675,8.675,0,0,0-4.67,5.649,6.748,6.748,0,0,1-4.711-.187,8.682,8.682,0,0,0-4.124-5.216,6.577,6.577,0,0,1-.1-1.088c0-.159,0-.314.018-.469a6.11,6.11,0,0,0,.077.646A8.682,8.682,0,0,1,28.7,75.778a6.748,6.748,0,0,0,4.711.187,8.675,8.675,0,0,1,4.67-5.649c.014-.127.027-.255.036-.382C38.134,70.084,38.138,70.234,38.138,70.384Zm10.469,8.648a6.828,6.828,0,0,1-13.655,0c0-.155,0-.3.018-.455a6.824,6.824,0,0,0,13.619,0C48.6,78.728,48.607,78.878,48.607,79.033Z" transform="translate(-2.196 -27.715)" fill="#ad9359" opacity="0.45"/>
      <path id="Path_216415" data-name="Path 216415" d="M85.655,81.828c0,.155,0,.3-.018.455a6.824,6.824,0,0,0-13.619,0c-.014-.15-.018-.3-.018-.455a6.828,6.828,0,0,1,13.655,0Z" transform="translate(-39.244 -30.51)" fill="#f9edd2" opacity="0.5"/>
      <path id="Path_216416" data-name="Path 216416" d="M107.655,70.428a6.8,6.8,0,0,1-8.444,6.627,8.665,8.665,0,0,0-5.175-6A5.68,5.68,0,0,1,94,70.428c0-.159,0-.323.018-.478,0,.064.009.132.018.2a8.665,8.665,0,0,1,5.175,6,6.8,6.8,0,0,0,8.425-6.172C107.651,70.123,107.655,70.273,107.655,70.428Z" transform="translate(-51.231 -27.759)" fill="#ad9359" opacity="0.45"/>
      <path id="Path_216417" data-name="Path 216417" d="M58.621,44.848c0,.155,0,.3-.018.455a6.825,6.825,0,0,0-13.619-.023c-.014-.141-.018-.287-.018-.432a6.828,6.828,0,0,1,13.655,0Zm-10.546-7.8a1.58,1.58,0,0,0-.173.091,6.81,6.81,0,0,0-13.1-.2c-.064-.032-.132-.059-.2-.086a6.814,6.814,0,0,1,13.464.191Zm-9.936-7.224c0,.055,0,.1-.009.155L38.1,30a6.827,6.827,0,0,0-13.573,0l-.032-.014c0-.05-.009-.1-.009-.155a6.828,6.828,0,0,1,13.655,0ZM28.01,36.86c-.064.027-.132.055-.2.086a6.81,6.81,0,0,0-13.1.2,1.581,1.581,0,0,0-.173-.091A6.814,6.814,0,0,1,28.01,36.86ZM17.655,44.848a3.854,3.854,0,0,1-.023.4A6.824,6.824,0,0,0,4.018,45.3C4,45.153,4,45,4,44.848a6.828,6.828,0,0,1,13.655,0Z" transform="translate(-2.196 -2.18)" fill="#f9edd2" opacity="0.5"/>
    </g>
  </g>
</svg>
