<svg xmlns="http://www.w3.org/2000/svg" width="50.648" height="64.032" viewBox="0 0 50.648 64.032">
  <g id="Group_158493" data-name="Group 158493" transform="translate(-30.274 -184.93)">
    <g id="Shape_Abstract_Rain_by_Streamlinehq" data-name="Shape Abstract Rain by Streamlinehq" transform="translate(81.816 223.02) rotate(90)">
      <path id="Path_214891" data-name="Path 214891" d="M3.091,13.83c.187-.561.353-.546.834-.638,1.112,0,1.117,1.258,1.218,2.139a2.16,2.16,0,0,1-.1,1.485c-.148.2-.146.29-.419.29a2.444,2.444,0,0,1-.7-.161,1.35,1.35,0,0,1-.837-1.06A6.949,6.949,0,0,1,3.056,14.7,2.943,2.943,0,0,1,3.091,13.83Z" fill="#2e3120"/>
      <path id="Path_214892" data-name="Path 214892" d="M17.833,11.361c.2-.779.379-.758.9-.886.331,0,1,.165,1,.729,0,.76.245,1.487.312,2.241a3.816,3.816,0,0,1-.111,2.062c-.319.571-.653.375-1.2.179a1.855,1.855,0,0,1-.9-1.472,12.457,12.457,0,0,1-.035-1.646A5.262,5.262,0,0,1,17.833,11.361Z" fill="#2e3120"/>
      <path id="Path_214893" data-name="Path 214893" d="M9.866,12.569c.256-.561.484-.546,1.144-.638,1.323,0,1.49.988,1.67,2.139.074.474.263,1.077-.141,1.485-.2.2-.2.29-.574.29a4.426,4.426,0,0,1-.954-.161,1.523,1.523,0,0,1-1.149-1.06,5.078,5.078,0,0,1-.044-1.185A2.16,2.16,0,0,1,9.866,12.569Z" fill="#2e3120"/>
      <path id="Path_214894" data-name="Path 214894" d="M6.657,7.617c0-.767-.009-1.682,1.044-1.845,1.652,0,1.16,2.072,1.16,3.208a1.633,1.633,0,0,1-.551,1.36c-.338.227-1.146-.142-1.35-.372C6.509,9.46,6.657,8.208,6.657,7.617Z" fill="#2e3120"/>
      <path id="Path_214895" data-name="Path 214895" d="M14.829,20.313c0-.767-.01-1.682,1.044-1.845,1.652,0,1.159,2.072,1.159,3.208a1.633,1.633,0,0,1-.551,1.36c-.338.227-1.146-.142-1.35-.372C14.681,22.156,14.829,20.9,14.829,20.313Z" fill="#2e3120"/>
      <path id="Path_214896" data-name="Path 214896" d="M8.015,18.695c.1-.153.4-.176.549-.226.368,0,.713-.031.986.3a2.312,2.312,0,0,1,.188.675,6.2,6.2,0,0,1,.013,1.573c-.014.321-.181.884-.5.961a1.244,1.244,0,0,1-1.226-.442,1.748,1.748,0,0,1-.188-.807c-.018-.323-.06-.634-.058-.959A2.131,2.131,0,0,1,8.015,18.695Z" fill="#2e3120"/>
      <path id="Path_214897" data-name="Path 214897" d="M19.484,1.161c.087-.181.33-.208.454-.266.3,0,.59-.037.815.36a3.663,3.663,0,0,1,.156.8,10.406,10.406,0,0,1,.011,1.855c-.012.378-.15,1.043-.412,1.134A.888.888,0,0,1,19.5,4.519a2.8,2.8,0,0,1-.156-.952c-.015-.381-.05-.748-.048-1.132A3.432,3.432,0,0,1,19.484,1.161Z" fill="#2e3120"/>
      <path id="Path_214898" data-name="Path 214898" d="M13.023,4.762c.1-.229.4-.263.549-.337.368,0,.713-.046.986.456a4.846,4.846,0,0,1,.188,1.01,13.838,13.838,0,0,1,.013,2.351c-.014.48-.181,1.322-.5,1.437a1.06,1.06,0,0,1-1.226-.661,3.707,3.707,0,0,1-.188-1.206c-.019-.483-.061-.948-.058-1.434A4.543,4.543,0,0,1,13.023,4.762Z" fill="#2e3120"/>
    </g>
    <g id="paddy_1_" data-name="paddy (1)" transform="translate(24.793 191.09)">
      <path id="Path_216316" data-name="Path 216316" d="M12.995,46.345A1.745,1.745,0,0,1,11.25,44.6V8.888a1.745,1.745,0,1,1,3.489,0V44.6A1.745,1.745,0,0,1,12.995,46.345Z" transform="translate(6.964 9.482)" fill="#ffca28" stroke="#deb945" stroke-width="1"/>
      <path id="Path_216317" data-name="Path 216317" d="M16.479.441a1.738,1.738,0,0,0-2.326,0C13.962.61,9.5,4.663,9.5,9.883s4.462,9.27,4.653,9.442a1.742,1.742,0,0,0,2.326,0c.191-.17,4.653-4.225,4.653-9.442S16.67.613,16.479.441Z" transform="translate(4.643 0)" fill="#ffd54f" stroke="#deb945" stroke-width="1"/>
      <path id="Path_216318" data-name="Path 216318" d="M11.25,8.058V43.387a1.745,1.745,0,0,0,1.745,1.745V9.075a1.742,1.742,0,0,1-1.163-.444q-.3-.276-.582-.572Z" transform="translate(6.964 10.695)" fill="#deb023"/>
      <path id="Path_216319" data-name="Path 216319" d="M15.316,0h-.209a1.726,1.726,0,0,0-.954.435C13.962.6,9.5,4.657,9.5,9.877c0,4.145,2.819,7.558,4.071,8.87.323.34.542.537.582.572a1.731,1.731,0,0,0,1.163.444Z" transform="translate(4.643 0.008)" fill="#deb945"/>
      <path id="Path_216320" data-name="Path 216320" d="M26.612,13.8a1.745,1.745,0,0,0-1.647-1.647c-.258-.019-6.327-.3-10.04,3.415S11.5,25.355,11.51,25.611a1.745,1.745,0,0,0,1.647,1.647c.04,0,.209.009.484.009,1.552,0,6.4-.265,9.556-3.422C26.915,20.13,26.626,14.063,26.612,13.8Z" transform="translate(7.295 16.117)" fill="#ffd54f"/>
      <path id="Path_216321" data-name="Path 216321" d="M25.9,12.4a1.74,1.74,0,0,1,.449,1.075c.014.256.3,6.325-3.415,10.04-3.157,3.157-8.016,3.424-9.561,3.424-.272,0-.44-.007-.479-.009a1.745,1.745,0,0,1-1.2-.575l.007-.014L25.891,12.4Z" transform="translate(7.555 16.449)" fill="#deb945"/>
      <path id="Path_216322" data-name="Path 216322" d="M26.612,8.137A1.745,1.745,0,0,0,24.965,6.49c-.258-.019-6.327-.3-10.04,3.415S11.5,19.689,11.51,19.945a1.745,1.745,0,0,0,1.647,1.647c.04,0,.207.009.479.009,1.545,0,6.4-.265,9.561-3.424C26.915,14.462,26.626,8.395,26.612,8.137Z" transform="translate(7.295 8.6)" fill="#ffca28"/>
      <path id="Path_216323" data-name="Path 216323" d="M25.9,6.729h.009a1.749,1.749,0,0,1,.451,1.077c.014.256.3,6.325-3.415,10.04-3.154,3.157-8,3.422-9.556,3.422-.275,0-.444-.007-.484-.009a1.756,1.756,0,0,1-1.212-.586l.012-.012L25.9,6.729Z" transform="translate(7.548 8.933)" fill="#deb023"/>
      <path id="Path_216324" data-name="Path 216324" d="M17.7,9.9C13.984,6.187,7.91,6.471,7.657,6.49A1.749,1.749,0,0,0,6.01,8.137c-.014.256-.3,6.325,3.415,10.04,3.157,3.157,8.016,3.424,9.561,3.424.272,0,.44-.007.479-.009a1.749,1.749,0,0,0,1.647-1.647C21.126,19.689,21.415,13.622,17.7,9.9Z" transform="translate(0 8.599)" fill="#ffd54f" stroke="#deb945" stroke-width="1"/>
      <path id="Path_216325" data-name="Path 216325" d="M6.459,6.729A1.745,1.745,0,0,0,6.01,7.8c-.014.256-.3,6.325,3.415,10.04,3.157,3.157,8.016,3.424,9.561,3.424.272,0,.44-.007.479-.009a1.745,1.745,0,0,0,1.2-.575l-.007-.014L6.471,6.736l-.012-.007Z" transform="translate(0 8.933)" fill="#deb945"/>
      <path id="Path_216326" data-name="Path 216326" d="M17.7,15.573c-3.715-3.717-9.787-3.436-10.04-3.415A1.747,1.747,0,0,0,6.01,13.805c-.014.256-.3,6.325,3.415,10.04,3.154,3.157,8,3.422,9.556,3.422.274,0,.444-.007.484-.009a1.745,1.745,0,0,0,1.647-1.647c.014-.256.3-6.323-3.415-10.038Z" transform="translate(0 16.116)" fill="#ffca28" stroke="#deb945" stroke-width="1"/>
      <path id="Path_216327" data-name="Path 216327" d="M6.471,12.4H6.461a1.749,1.749,0,0,0-.451,1.077c-.014.256-.3,6.325,3.415,10.04,3.154,3.157,8,3.422,9.556,3.422.274,0,.444-.007.484-.009a1.756,1.756,0,0,0,1.212-.586l-.012-.012Z" transform="translate(0 16.449)" fill="#deb023"/>
    </g>
    <g id="paddy_1_2" data-name="paddy (1)" transform="translate(35.127 185.545)">
      <path id="Path_216316-2" data-name="Path 216316" d="M13.216,51.324a1.966,1.966,0,0,1-1.966-1.966V9.109a1.966,1.966,0,0,1,3.933,0V49.36A1.966,1.966,0,0,1,13.216,51.324Z" transform="translate(8.515 11.593)" fill="#ffca28" stroke="#deb945" stroke-width="1"/>
      <path id="Path_216317-2" data-name="Path 216317" d="M17.365.5a1.958,1.958,0,0,0-2.622,0C14.528.689,9.5,5.256,9.5,11.139s5.028,10.447,5.243,10.641a1.964,1.964,0,0,0,2.622,0c.215-.191,5.243-4.761,5.243-10.641S17.58.691,17.365.5Z" transform="translate(5.677 0)" fill="#ffd54f" stroke="#deb945" stroke-width="1"/>
      <path id="Path_216318-2" data-name="Path 216318" d="M11.25,8.058V47.874a1.967,1.967,0,0,0,1.966,1.966V9.2a1.964,1.964,0,0,1-1.311-.5q-.339-.311-.655-.645Z" transform="translate(8.515 13.077)" fill="#deb023"/>
      <path id="Path_216319-2" data-name="Path 216319" d="M16.054,0h-.236a1.945,1.945,0,0,0-1.075.49C14.528.682,9.5,5.249,9.5,11.132c0,4.672,3.177,8.518,4.588,10,.364.383.611.606.655.645a1.951,1.951,0,0,0,1.311.5Z" transform="translate(5.677 0.01)" fill="#deb945" stroke="#deb945" stroke-width="1"/>
      <path id="Path_216320-2" data-name="Path 216320" d="M28.531,14.015a1.966,1.966,0,0,0-1.856-1.856c-.291-.021-7.131-.338-11.315,3.849S11.5,27.032,11.511,27.32a1.966,1.966,0,0,0,1.856,1.856c.045,0,.236.01.545.01,1.749,0,7.215-.3,10.77-3.856C28.872,21.144,28.547,14.306,28.531,14.015Z" transform="translate(8.919 19.707)" fill="#ffd54f" stroke="#deb945" stroke-width="1"/>
      <path id="Path_216321-2" data-name="Path 216321" d="M27.707,12.4a1.961,1.961,0,0,1,.506,1.211c.016.288.341,7.128-3.849,11.315-3.558,3.558-9.034,3.859-10.775,3.859-.307,0-.5-.008-.54-.01a1.966,1.966,0,0,1-1.353-.648l.008-.016L27.694,12.4Z" transform="translate(9.238 20.112)" fill="#deb945"/>
      <path id="Path_216322-2" data-name="Path 216322" d="M28.531,8.347a1.966,1.966,0,0,0-1.856-1.856c-.291-.021-7.131-.338-11.315,3.849S11.5,21.367,11.511,21.655a1.966,1.966,0,0,0,1.856,1.856c.045,0,.233.01.54.01,1.741,0,7.218-.3,10.775-3.859C28.872,15.476,28.547,8.638,28.531,8.347Z" transform="translate(8.919 10.515)" fill="#ffca28" stroke="#deb945" stroke-width="1"/>
      <path id="Path_216323-2" data-name="Path 216323" d="M27.7,6.729h.01a1.972,1.972,0,0,1,.509,1.214c.016.288.341,7.128-3.849,11.315-3.555,3.558-9.021,3.856-10.77,3.856-.309,0-.5-.008-.545-.01a1.979,1.979,0,0,1-1.366-.661l.013-.013,16-15.7Z" transform="translate(9.23 10.922)" fill="#deb023"/>
      <path id="Path_216324-2" data-name="Path 216324" d="M19.183,10.34C15,6.15,8.153,6.47,7.867,6.491A1.972,1.972,0,0,0,6.011,8.347C6,8.636,5.67,15.476,9.86,19.663c3.558,3.558,9.034,3.859,10.775,3.859.307,0,.5-.008.54-.01a1.972,1.972,0,0,0,1.856-1.856C23.047,21.367,23.372,14.529,19.183,10.34Z" transform="translate(0 10.515)" fill="#ffd54f" stroke="#deb945" stroke-width="1"/>
      <path id="Path_216325-2" data-name="Path 216325" d="M6.517,6.729A1.966,1.966,0,0,0,6.011,7.94C6,8.229,5.67,15.069,9.86,19.255c3.558,3.558,9.034,3.859,10.775,3.859.307,0,.5-.008.54-.01a1.966,1.966,0,0,0,1.353-.648l-.008-.016L6.53,6.737l-.013-.008Z" transform="translate(0 10.922)" fill="#deb945"/>
      <path id="Path_216326-2" data-name="Path 216326" d="M19.183,16.008C15,11.819,8.153,12.136,7.867,12.16a1.969,1.969,0,0,0-1.856,1.856C6,14.3,5.67,21.144,9.86,25.331c3.555,3.558,9.021,3.857,10.77,3.857.309,0,.5-.008.545-.01a1.966,1.966,0,0,0,1.856-1.856c.016-.288.341-7.126-3.849-11.313Z" transform="translate(0 19.706)" fill="#ffca28" stroke="#deb945" stroke-width="1"/>
      <path id="Path_216327-2" data-name="Path 216327" d="M6.53,12.4H6.52a1.972,1.972,0,0,0-.509,1.214C6,13.9,5.67,20.738,9.86,24.925c3.555,3.558,9.021,3.857,10.77,3.857.309,0,.5-.008.545-.01a1.979,1.979,0,0,0,1.366-.661l-.013-.013Z" transform="translate(0 20.112)" fill="#deb023"/>
    </g>
  </g>
</svg>
