<svg xmlns="http://www.w3.org/2000/svg" width="78.69" height="56.837" viewBox="0 0 78.69 56.837">
  <g id="Group_158359" data-name="Group 158359" transform="translate(-202.208 -193.629)">
    <g id="Shape_Abstract_Rain_by_Streamlinehq" data-name="Shape Abstract Rain by Streamlinehq" transform="translate(281.792 229.506) rotate(90)">
      <path id="Path_214891" data-name="Path 214891" d="M3.091,13.83c.187-.561.353-.546.834-.638,1.112,0,1.117,1.258,1.218,2.139a2.16,2.16,0,0,1-.1,1.485c-.148.2-.146.29-.419.29a2.444,2.444,0,0,1-.7-.161,1.35,1.35,0,0,1-.837-1.06A6.949,6.949,0,0,1,3.056,14.7,2.943,2.943,0,0,1,3.091,13.83Z" fill="#2e3120"/>
      <path id="Path_214892" data-name="Path 214892" d="M17.833,11.361c.2-.779.379-.758.9-.886.331,0,1,.165,1,.729,0,.76.245,1.487.312,2.241a3.816,3.816,0,0,1-.111,2.062c-.319.571-.653.375-1.2.179a1.855,1.855,0,0,1-.9-1.472,12.457,12.457,0,0,1-.035-1.646A5.262,5.262,0,0,1,17.833,11.361Z" fill="#2e3120"/>
      <path id="Path_214893" data-name="Path 214893" d="M9.866,12.569c.256-.561.484-.546,1.144-.638,1.323,0,1.49.988,1.67,2.139.074.474.263,1.077-.141,1.485-.2.2-.2.29-.574.29a4.426,4.426,0,0,1-.954-.161,1.523,1.523,0,0,1-1.149-1.06,5.078,5.078,0,0,1-.044-1.185A2.16,2.16,0,0,1,9.866,12.569Z" fill="#2e3120"/>
      <path id="Path_214894" data-name="Path 214894" d="M6.657,7.617c0-.767-.009-1.682,1.044-1.845,1.652,0,1.16,2.072,1.16,3.208a1.633,1.633,0,0,1-.551,1.36c-.338.227-1.146-.142-1.35-.372C6.509,9.46,6.657,8.208,6.657,7.617Z" fill="#2e3120"/>
      <path id="Path_214895" data-name="Path 214895" d="M14.829,20.313c0-.767-.01-1.682,1.044-1.845,1.652,0,1.159,2.072,1.159,3.208a1.633,1.633,0,0,1-.551,1.36c-.338.227-1.146-.142-1.35-.372C14.681,22.156,14.829,20.9,14.829,20.313Z" fill="#2e3120"/>
      <path id="Path_214896" data-name="Path 214896" d="M8.015,18.695c.1-.153.4-.176.549-.226.368,0,.713-.031.986.3a2.312,2.312,0,0,1,.188.675,6.2,6.2,0,0,1,.013,1.573c-.014.321-.181.884-.5.961a1.244,1.244,0,0,1-1.226-.442,1.748,1.748,0,0,1-.188-.807c-.018-.323-.06-.634-.058-.959A2.131,2.131,0,0,1,8.015,18.695Z" fill="#2e3120"/>
      <path id="Path_214897" data-name="Path 214897" d="M19.484,1.161c.087-.181.33-.208.454-.266.3,0,.59-.037.815.36a3.663,3.663,0,0,1,.156.8,10.406,10.406,0,0,1,.011,1.855c-.012.378-.15,1.043-.412,1.134A.888.888,0,0,1,19.5,4.519a2.8,2.8,0,0,1-.156-.952c-.015-.381-.05-.748-.048-1.132A3.432,3.432,0,0,1,19.484,1.161Z" fill="#2e3120"/>
      <path id="Path_214898" data-name="Path 214898" d="M13.023,4.762c.1-.229.4-.263.549-.337.368,0,.713-.046.986.456a4.846,4.846,0,0,1,.188,1.01,13.838,13.838,0,0,1,.013,2.351c-.014.48-.181,1.322-.5,1.437a1.06,1.06,0,0,1-1.226-.661,3.707,3.707,0,0,1-.188-1.206c-.019-.483-.061-.948-.058-1.434A4.543,4.543,0,0,1,13.023,4.762Z" fill="#2e3120"/>
    </g>
    <g id="potato" transform="translate(187.928 172.583)">
      <path id="Path_214783" data-name="Path 214783" d="M18.595,38C16.5,52.18,25.131,60.4,37.163,60.115s25.145,2.11,28.532-10.79c2.9-11.029-2.4-15.594-16.936-21.191S20.695,23.826,18.595,38Z" fill="rgba(0,22,43,0.2)"/>
      <path id="Path_214784" data-name="Path 214784" d="M21.09,55.819c3.866,4.311,9.642,6.451,16.12,6.3,1.787-.043,3.536-.026,5.311-.009,1.217.012,2.447.023,3.71.016a46.751,46.751,0,0,0,8.833-.711,16.928,16.928,0,0,0,7.722-3.467,15.29,15.29,0,0,0,4.842-8.109c1.553-5.915,1-10.568-2.349-14.447-3.143-3.642-8.553-6.328-15.8-9.118-7.443-2.865-14.921-4.095-20.96-2.553a15.324,15.324,0,0,0-7.867,4.653,17.7,17.7,0,0,0-4.034,9.341C15.5,45.257,17.212,51.495,21.09,55.819Zm16.072,4.3C25.131,60.4,16.5,52.18,18.595,38s15.624-15.465,30.164-9.868S68.591,38.3,65.695,49.326C62.814,60.293,52.9,60.2,42.605,60.106,40.791,60.089,38.965,60.072,37.163,60.115Z" fill="rgba(0,22,43,0.2)" fill-rule="evenodd"/>
      <path id="Path_214785" data-name="Path 214785" d="M81.686,54.655C79.241,42.039,66.2,34.008,51.576,44.762S24.478,51.214,25.6,64.135c.989,11.36,16.941,13.747,30.275,13.747S83.626,65.892,81.686,54.655Z" fill="rgba(0,22,43,0.2)"/>
      <path id="Path_214787" data-name="Path 214787" d="M16.595,36c-2.1,14.177,6.536,22.4,18.568,22.113s25.145,2.11,28.532-10.79c2.9-11.029-2.4-15.594-16.936-21.191S18.695,21.826,16.595,36Z" fill="#ca8e34"/>
      <path id="Path_214788" data-name="Path 214788" d="M19.09,53.819c3.866,4.311,9.642,6.451,16.12,6.3,1.787-.043,3.536-.026,5.311-.009,1.218.012,2.447.023,3.71.016a46.751,46.751,0,0,0,8.833-.711,16.927,16.927,0,0,0,7.722-3.467,15.29,15.29,0,0,0,4.842-8.109c1.553-5.915,1-10.568-2.349-14.447-3.143-3.642-8.553-6.328-15.8-9.118-7.444-2.865-14.921-4.095-20.96-2.553a15.323,15.323,0,0,0-7.867,4.653,17.7,17.7,0,0,0-4.034,9.341C13.5,43.257,15.212,49.495,19.09,53.819Zm16.072,4.3C23.131,58.4,14.5,50.18,16.595,36s15.624-15.465,30.164-9.868S66.591,36.3,63.695,47.326C60.815,58.293,50.9,58.2,40.605,58.106,38.791,58.089,36.965,58.072,35.163,58.115Z" fill="#855d22" fill-rule="evenodd"/>
      <path id="Path_214789" data-name="Path 214789" d="M36.195,26.826c1.282,2.546-1.681,5.259-5.5,7.182s-8.249,2.546-9.531,0,.774-6.169,4.594-8.092S34.913,24.28,36.195,26.826Z" fill="#db9f45"/>
      <path id="Path_214790" data-name="Path 214790" d="M16.5,36.7c1.294,3.387,3.569,6.389,7.222,7.609,9.549,3.189,29.114-1.535,26.2-13.427a12.945,12.945,0,0,0-1.894-4.255C61.606,32.009,66.5,36.624,63.695,47.326,60.815,58.293,50.9,58.2,40.606,58.106c-1.814-.017-3.641-.034-5.443.009C23.331,58.4,14.783,50.451,16.5,36.7Z" fill="#aa7a32" fill-rule="evenodd"/>
      <path id="Path_214791" data-name="Path 214791" d="M79.686,52.655C77.241,40.039,64.2,32.008,49.576,42.762S22.478,49.214,23.6,62.135c.989,11.36,16.941,13.747,30.275,13.747S81.626,63.892,79.686,52.655Z" fill="#dd9b38"/>
      <path id="Path_214792" data-name="Path 214792" d="M81.654,52.294l0-.02c-1.33-6.862-5.579-12.64-11.684-15.176-6.17-2.563-13.82-1.649-21.574,4.053A52.542,52.542,0,0,1,33.443,48.5c-1.22.428-2.385.836-3.49,1.269a14.463,14.463,0,0,0-6.4,4.162c-1.655,2.112-2.254,4.832-1.945,8.373.6,6.834,5.749,10.722,11.842,12.848s13.689,2.725,20.426,2.725c7.225,0,14.616-3.226,19.949-7.9,5.292-4.633,8.967-11.084,7.83-17.672Zm-1.967.36c1.94,11.237-12.474,23.228-25.808,23.228S24.593,73.5,23.6,62.135c-.682-7.828,3.627-9.335,10.382-11.7a55.094,55.094,0,0,0,15.591-7.676C64.2,32.008,77.241,40.039,79.686,52.655Z" fill="#976923" fill-rule="evenodd"/>
      <path id="Path_214793" data-name="Path 214793" d="M67,38.218a17.326,17.326,0,0,1,8.947,12.462c1.821,10.549-11.711,21.806-24.229,21.806-11.88,0-25.973-2.019-28.173-11.34q.016.477.061.99c.989,11.36,16.941,13.747,30.275,13.747S81.626,63.892,79.687,52.655C78.3,45.519,73.53,39.85,67,38.218Z" fill="#ca8e34" fill-rule="evenodd"/>
      <path id="Path_214794" data-name="Path 214794" d="M52.272,50.037a1.721,1.721,0,1,1,.134-2.43A1.721,1.721,0,0,1,52.272,50.037Zm-17,16a1.721,1.721,0,1,1,.134-2.43A1.721,1.721,0,0,1,35.272,66.037Zm9-6a1.721,1.721,0,1,1,.134-2.43A1.721,1.721,0,0,1,44.272,60.037Zm8,6a1.721,1.721,0,1,1,.134-2.43A1.721,1.721,0,0,1,52.272,66.037Zm13-13a1.721,1.721,0,1,1,.134-2.43A1.721,1.721,0,0,1,65.272,53.037Zm0-10a1.721,1.721,0,1,1,.134-2.43A1.721,1.721,0,0,1,65.272,43.037Zm12,11a1.721,1.721,0,1,1,.134-2.43A1.721,1.721,0,0,1,77.272,54.037Zm-19,4a1.721,1.721,0,1,1,.134-2.43A1.721,1.721,0,0,1,58.272,58.037Zm13.305,3.674a1.721,1.721,0,1,1,.134-2.43A1.721,1.721,0,0,1,71.577,61.711Zm-11,8a1.721,1.721,0,1,1,.134-2.43A1.721,1.721,0,0,1,60.577,69.711Zm10,0a1.721,1.721,0,1,1,.134-2.43A1.721,1.721,0,0,1,70.577,69.711Zm-17,6a1.721,1.721,0,1,1,.134-2.43A1.721,1.721,0,0,1,53.577,75.711Zm-11.305-.674a1.721,1.721,0,1,1,.134-2.43A1.721,1.721,0,0,1,42.272,75.037Zm-16-18a1.721,1.721,0,1,1,.134-2.43A1.721,1.721,0,0,1,26.272,57.037Zm16-8a1.721,1.721,0,1,1,.134-2.43A1.721,1.721,0,0,1,42.272,49.037Zm35-4a1.721,1.721,0,1,1,.134-2.43A1.721,1.721,0,0,1,77.272,45.037Z" fill="#996518"/>
      <path id="Path_214795" data-name="Path 214795" d="M40.994,54.043c1.282,2.546-.774,6.169-4.593,8.093s-7.955,1.418-9.237-1.128.774-6.169,4.594-8.092S39.711,51.5,40.994,54.043Z" fill="#eeb257"/>
      <path id="Path_214796" data-name="Path 214796" d="M34.028,55.532a2,2,0,0,1-.833,2.7,4.35,4.35,0,0,0-1.456,1.215,2,2,0,1,1-3.18-2.427A8.347,8.347,0,0,1,31.326,54.7,2,2,0,0,1,34.028,55.532Z" fill="#f7c77d" fill-rule="evenodd"/>
    </g>
  </g>
</svg>
