<svg xmlns="http://www.w3.org/2000/svg" width="69.922" height="58.373" viewBox="0 0 69.922 58.373">
  <g id="Group_158503" data-name="Group 158503" transform="translate(-28 -195.017)">
    <g id="Group_158497" data-name="Group 158497">
      <g id="Group_158361" data-name="Group 158361" transform="translate(-3 12.411)">
        <g id="Shape_Abstract_Rain_by_Streamlinehq" data-name="Shape Abstract Rain by Streamlinehq" transform="translate(101.816 220.02) rotate(90)">
          <path id="Path_214891" data-name="Path 214891" d="M3.091,13.83c.187-.561.353-.546.834-.638,1.112,0,1.117,1.258,1.218,2.139a2.16,2.16,0,0,1-.1,1.485c-.148.2-.146.29-.419.29a2.444,2.444,0,0,1-.7-.161,1.35,1.35,0,0,1-.837-1.06A6.949,6.949,0,0,1,3.056,14.7,2.943,2.943,0,0,1,3.091,13.83Z" fill="#2e3120"/>
          <path id="Path_214892" data-name="Path 214892" d="M17.833,11.361c.2-.779.379-.758.9-.886.331,0,1,.165,1,.729,0,.76.245,1.487.312,2.241a3.816,3.816,0,0,1-.111,2.062c-.319.571-.653.375-1.2.179a1.855,1.855,0,0,1-.9-1.472,12.457,12.457,0,0,1-.035-1.646A5.262,5.262,0,0,1,17.833,11.361Z" fill="#2e3120"/>
          <path id="Path_214893" data-name="Path 214893" d="M9.866,12.569c.256-.561.484-.546,1.144-.638,1.323,0,1.49.988,1.67,2.139.074.474.263,1.077-.141,1.485-.2.2-.2.29-.574.29a4.426,4.426,0,0,1-.954-.161,1.523,1.523,0,0,1-1.149-1.06,5.078,5.078,0,0,1-.044-1.185A2.16,2.16,0,0,1,9.866,12.569Z" fill="#2e3120"/>
          <path id="Path_214894" data-name="Path 214894" d="M6.657,7.617c0-.767-.009-1.682,1.044-1.845,1.652,0,1.16,2.072,1.16,3.208a1.633,1.633,0,0,1-.551,1.36c-.338.227-1.146-.142-1.35-.372C6.509,9.46,6.657,8.208,6.657,7.617Z" fill="#2e3120"/>
          <path id="Path_214895" data-name="Path 214895" d="M14.829,20.313c0-.767-.01-1.682,1.044-1.845,1.652,0,1.159,2.072,1.159,3.208a1.633,1.633,0,0,1-.551,1.36c-.338.227-1.146-.142-1.35-.372C14.681,22.156,14.829,20.9,14.829,20.313Z" fill="#2e3120"/>
          <path id="Path_214896" data-name="Path 214896" d="M8.015,18.695c.1-.153.4-.176.549-.226.368,0,.713-.031.986.3a2.312,2.312,0,0,1,.188.675,6.2,6.2,0,0,1,.013,1.573c-.014.321-.181.884-.5.961a1.244,1.244,0,0,1-1.226-.442,1.748,1.748,0,0,1-.188-.807c-.018-.323-.06-.634-.058-.959A2.131,2.131,0,0,1,8.015,18.695Z" fill="#2e3120"/>
          <path id="Path_214897" data-name="Path 214897" d="M19.484,1.161c.087-.181.33-.208.454-.266.3,0,.59-.037.815.36a3.663,3.663,0,0,1,.156.8,10.406,10.406,0,0,1,.011,1.855c-.012.378-.15,1.043-.412,1.134A.888.888,0,0,1,19.5,4.519a2.8,2.8,0,0,1-.156-.952c-.015-.381-.05-.748-.048-1.132A3.432,3.432,0,0,1,19.484,1.161Z" fill="#2e3120"/>
          <path id="Path_214898" data-name="Path 214898" d="M13.023,4.762c.1-.229.4-.263.549-.337.368,0,.713-.046.986.456a4.846,4.846,0,0,1,.188,1.01,13.838,13.838,0,0,1,.013,2.351c-.014.48-.181,1.322-.5,1.437a1.06,1.06,0,0,1-1.226-.661,3.707,3.707,0,0,1-.188-1.206c-.019-.483-.061-.948-.058-1.434A4.543,4.543,0,0,1,13.023,4.762Z" fill="#2e3120"/>
        </g>
      </g>
    </g>
    <g id="Group_158502" data-name="Group 158502" transform="translate(-5.522)">
      <g id="sorghum" transform="translate(23.391 194.542)">
        <path id="Path_216369" data-name="Path 216369" d="M37.676,262.075c-1.521-5.633-11.842-7.865-19.508-3.417a.318.318,0,0,1-.423-.448c6.979-10.737,17.391-5.884,21.518,1.078Z" transform="translate(-6.476 -208.637)" fill="#84994a"/>
        <path id="Path_216370" data-name="Path 216370" d="M159.45,243.421h2.876v10.612H159.45Z" transform="translate(-127.853 -201.348)" fill="#84994a"/>
        <path id="Path_216371" data-name="Path 216371" d="M156.691,249.925V249.1a3.914,3.914,0,0,1,.6-2.084,19.441,19.441,0,0,1,7.683-8.091c4.4-2.4,9.523-3.274,13.367-.043-7.567-.495-16.752,3.6-18.028,11.045Z" transform="translate(-125.491 -195.661)" fill="#aecc76"/>
        <path id="Path_216372" data-name="Path 216372" d="M217.151,255.074a.318.318,0,0,0,.484-.329,8.547,8.547,0,0,0-2.608-4.931c-9.787-1.839-15.51,5.817-15.51,5.817C204.686,249.99,213.986,252.74,217.151,255.074Z" transform="translate(-162.16 -206.579)" fill="#84994a"/>
        <path id="Path_216373" data-name="Path 216373" d="M115.473,86.235A1.474,1.474,0,1,1,114,84.76,1.474,1.474,0,0,1,115.473,86.235Zm8.84-14.281a2.964,2.964,0,1,1-2.964-2.964A2.964,2.964,0,0,1,124.313,71.953Z" transform="translate(-87.682 -51.992)" fill="#eaa75e"/>
        <path id="Path_216374" data-name="Path 216374" d="M178.143,14.895a1.744,1.744,0,1,1-1.744-1.744,1.744,1.744,0,0,1,1.744,1.744Z" transform="translate(-140.883 -4.181)" fill="#eaa75e"/>
        <path id="Path_216375" data-name="Path 216375" d="M153.611,12.96a1.7,1.7,0,1,1-1.7-1.7A1.7,1.7,0,0,1,153.611,12.96Z" transform="translate(-119.944 -2.559)" fill="#ffdb94"/>
        <path id="Path_216376" data-name="Path 216376" d="M159.042,35.131a1.982,1.982,0,1,1-1.982-1.982A1.982,1.982,0,0,1,159.042,35.131Z" transform="translate(-124.121 -21.304)" fill="#ffdb94"/>
        <path id="Path_216377" data-name="Path 216377" d="M143.483,49.519a1.955,1.955,0,1,1-1.982-1.982,1.982,1.982,0,0,1,1.982,1.982Z" transform="translate(-110.799 -33.624)" fill="#ffdb94"/>
        <path id="Path_216378" data-name="Path 216378" d="M184.3,50.5a1.786,1.786,0,1,1-1.786-1.786A1.786,1.786,0,0,1,184.3,50.5Z" transform="translate(-146.083 -34.63)" fill="#eaa75e"/>
        <path id="Path_216379" data-name="Path 216379" d="M127.056,58.17a1.886,1.886,0,1,1-1.886-1.886A1.886,1.886,0,0,1,127.056,58.17Zm-6,3.857a1.829,1.829,0,1,1-1.829-1.829A1.829,1.829,0,0,1,121.061,62.027Z" transform="translate(-91.86 -41.114)" fill="#ffdb94"/>
        <path id="Path_216380" data-name="Path 216380" d="M141.673,75.578a1.842,1.842,0,1,1-1.842-1.842A1.842,1.842,0,0,1,141.673,75.578Z" transform="translate(-109.488 -56.057)" fill="#ffdb94"/>
        <path id="Path_216381" data-name="Path 216381" d="M149.659,96.836a1.745,1.745,0,1,1-1.745-1.745A1.745,1.745,0,0,1,149.659,96.836Z" transform="translate(-116.49 -74.342)" fill="#ffdb94"/>
        <path id="Path_216382" data-name="Path 216382" d="M154.335,119.06a1.85,1.85,0,1,1-1.85-1.85,1.85,1.85,0,0,1,1.85,1.85Z" transform="translate(-120.315 -93.281)" fill="#ffdb94"/>
        <path id="Path_216383" data-name="Path 216383" d="M204.344,131.932a1.85,1.85,0,1,1-1.85-1.85A1.85,1.85,0,0,1,204.344,131.932Z" transform="translate(-163.135 -104.303)" fill="#eaa75e"/>
        <path id="Path_216384" data-name="Path 216384" d="M182.3,147.853a2.193,2.193,0,1,1-2.193-2.193A2.193,2.193,0,0,1,182.3,147.853Z" transform="translate(-143.673 -117.641)" fill="#eaa75e"/>
        <path id="Path_216385" data-name="Path 216385" d="M161.459,140.28a1.625,1.625,0,1,1-1.625-1.625,1.625,1.625,0,0,1,1.625,1.625Z" transform="translate(-126.798 -111.643)" fill="#ffdb94"/>
        <path id="Path_216386" data-name="Path 216386" d="M215.534,186.05a1.729,1.729,0,1,1-1.729-1.729A1.729,1.729,0,0,1,215.534,186.05Z" transform="translate(-172.924 -150.744)" fill="#eaa75e"/>
        <path id="Path_216387" data-name="Path 216387" d="M193.424,173.246a1.775,1.775,0,1,1-1.775-1.775A1.775,1.775,0,0,1,193.424,173.246Z" transform="translate(-153.913 -139.742)" fill="#eaa75e"/>
        <path id="Path_216388" data-name="Path 216388" d="M190.168,198.842a2.116,2.116,0,1,1-2.117-2.116A2.117,2.117,0,0,1,190.168,198.842Z" transform="translate(-150.543 -161.366)" fill="#eaa75e"/>
        <path id="Path_216389" data-name="Path 216389" d="M136.785,141.57a2.038,2.038,0,1,1-2.038-2.038A2.038,2.038,0,0,1,136.785,141.57Zm-4.757-4.209a2.014,2.014,0,1,1-2.013-2.014,2.014,2.014,0,0,1,2.013,2.014Z" transform="translate(-100.936 -108.812)" fill="#ffdb94"/>
        <path id="Path_216390" data-name="Path 216390" d="M108.665,146.286a1.954,1.954,0,1,1-1.954-1.954A1.954,1.954,0,0,1,108.665,146.286Zm-5.052-2.333a2.087,2.087,0,1,1-2.088-2.087A2.087,2.087,0,0,1,103.613,143.953Z" transform="translate(-76.48 -114.393)" fill="#ffdb94"/>
        <path id="Path_216391" data-name="Path 216391" d="M120.842,162.447a1.867,1.867,0,1,1-1.867-1.867,1.867,1.867,0,0,1,1.867,1.867Zm-.953-3.848a1.907,1.907,0,1,1-1.907-1.907A1.907,1.907,0,0,1,119.889,158.6Z" transform="translate(-90.725 -127.087)" fill="#ffdb94"/>
        <path id="Path_216392" data-name="Path 216392" d="M104.4,193.309a1.928,1.928,0,1,1-1.928-1.927,1.927,1.927,0,0,1,1.928,1.927Z" transform="translate(-77.424 -156.79)" fill="#ffdb94"/>
        <path id="Path_216393" data-name="Path 216393" d="M175.251,193.522a1.868,1.868,0,1,1-1.869-1.868A1.869,1.869,0,0,1,175.251,193.522Zm-2.6-4.379a1.922,1.922,0,1,1-1.921-1.921,1.922,1.922,0,0,1,1.921,1.921Z" transform="translate(-135.875 -153.227)" fill="#eaa75e"/>
        <path id="Path_216394" data-name="Path 216394" d="M150.294,181.095a1.76,1.76,0,1,1-1.76-1.76,1.76,1.76,0,0,1,1.76,1.76Z" transform="translate(-117.01 -146.475)" fill="#ffdb94"/>
        <path id="Path_216395" data-name="Path 216395" d="M165.633,215.375a1.964,1.964,0,1,1-1.964-1.964,1.964,1.964,0,0,1,1.964,1.964Z" transform="translate(-129.794 -175.653)" fill="#eaa75e"/>
        <path id="Path_216396" data-name="Path 216396" d="M170.2,234.8a1.882,1.882,0,1,1-1.882-1.882A1.882,1.882,0,0,1,170.2,234.8Z" transform="translate(-133.844 -192.352)" fill="#eaa75e"/>
        <path id="Path_216397" data-name="Path 216397" d="M152.124,244.557a1.724,1.724,0,1,1-1.723-1.723A1.724,1.724,0,0,1,152.124,244.557Z" transform="translate(-118.638 -200.846)" fill="#eaa75e"/>
        <path id="Path_216398" data-name="Path 216398" d="M145.868,226.742a1.637,1.637,0,1,1-1.637-1.637,1.637,1.637,0,0,1,1.637,1.637Z" transform="translate(-113.429 -185.665)" fill="#eaa75e"/>
        <path id="Path_216399" data-name="Path 216399" d="M146.98,204.478A1.781,1.781,0,1,1,145.2,202.7,1.781,1.781,0,0,1,146.98,204.478Z" transform="translate(-114.136 -166.479)" fill="#ffdb94"/>
        <path id="Path_216400" data-name="Path 216400" d="M100.273,176.3a1.981,1.981,0,1,1-1.981-1.981,1.981,1.981,0,0,1,1.981,1.981Zm-4.445-5.969A1.729,1.729,0,1,1,94.1,168.6,1.729,1.729,0,0,1,95.829,170.328Z" transform="translate(-70.426 -137.283)" fill="#ffdb94"/>
        <path id="Path_216401" data-name="Path 216401" d="M185.1,127.277a1.65,1.65,0,1,1-1.65-1.65,1.65,1.65,0,0,1,1.65,1.65Zm-4.308-3.913a1.808,1.808,0,1,1-1.808-1.808A1.808,1.808,0,0,1,180.789,123.364Z" transform="translate(-143.039 -97.002)" fill="#eaa75e"/>
        <path id="Path_216402" data-name="Path 216402" d="M126.229,111.528A1.828,1.828,0,1,1,124.4,109.7,1.828,1.828,0,0,1,126.229,111.528Z" transform="translate(-96.288 -86.851)" fill="#ffdb94"/>
        <path id="Path_216403" data-name="Path 216403" d="M192.959,100.855a1.726,1.726,0,1,1-1.725-1.726A1.725,1.725,0,0,1,192.959,100.855Z" transform="translate(-153.601 -77.799)" fill="#eaa75e"/>
        <path id="Path_216404" data-name="Path 216404" d="M175.307,75.416a1.866,1.866,0,1,1-1.867-1.866,1.867,1.867,0,0,1,1.867,1.866Zm1.441-3.813a1.754,1.754,0,1,1-1.754-1.754A1.754,1.754,0,0,1,176.748,71.6Z" transform="translate(-138.245 -52.728)" fill="#eaa75e"/>
        <path id="Path_216405" data-name="Path 216405" d="M107.7,18.726a.54.54,0,1,1-.54-.54A.54.54,0,0,1,107.7,18.726Zm1.081,3.139a.54.54,0,1,1-.54-.54A.54.54,0,0,1,108.785,21.865Zm.108,3.345a.54.54,0,0,1-1.08,0A.54.54,0,0,1,108.892,25.211Zm-2.53-1.191a.54.54,0,0,1-1.08,0A.54.54,0,0,1,106.362,24.02Zm-3.287,4.974a.54.54,0,0,1-1.08,0A.54.54,0,0,1,103.075,28.994Zm3.1-1.282a.54.54,0,1,1-.54-.54A.54.54,0,0,1,106.173,27.712Zm-2.258,5.23a.54.54,0,0,1-1.08,0A.54.54,0,0,1,103.914,32.942Zm.882,3.72a.54.54,0,0,1-1.08,0A.54.54,0,0,1,104.8,36.662Zm-4.262.995a.54.54,0,1,1-.54-.54A.54.54,0,0,1,100.535,37.656Zm-1.25,3.7a.54.54,0,0,1-1.08,0A.54.54,0,0,1,99.285,41.352Zm3.8-1.6a.54.54,0,0,1-1.08,0A.54.54,0,0,1,103.085,39.753ZM100.8,45.09a.54.54,0,1,1-.54-.54A.54.54,0,0,1,100.8,45.09Zm3.023,2.353a.54.54,0,1,1-1.08,0A.54.54,0,0,1,103.818,47.442Z" transform="translate(-75.413 -8.492)" fill="#fff5e6"/>
        <path id="Path_216406" data-name="Path 216406" d="M50.549,44.779a.5.5,0,0,0,.415-.9c-5.749-2.645-14.379.889-16.586,10.011-.327,1.013.941,1.258.98.177a9.505,9.505,0,0,1,7.2-7.471c6.95-1.675,12.676,2.674,12.733,2.717a.5.5,0,0,0,.8-.459c-.75-5.584-4.314-7.456-7.172-8.044C43.695,39.527,38.3,43.223,34.97,46.611V44.77A2.383,2.383,0,0,0,36.845,42.6a2.391,2.391,0,0,0,2.693-3.45,2.441,2.441,0,0,0,.661-1.62,2.326,2.326,0,1,0-.265-4.348,2.275,2.275,0,0,0-.2-.66,2.346,2.346,0,0,0,1.882-4.254,2.354,2.354,0,0,0-3.5-2.626q-.031-.1-.071-.188a2.432,2.432,0,0,0,.27-4.738,2.429,2.429,0,0,0,.058-3.63,2.341,2.341,0,0,0-2.787-3.444,2.4,2.4,0,0,0-.11-.606A2.323,2.323,0,1,0,33.7,9.161,2.139,2.139,0,1,0,31.211,12.4a2.391,2.391,0,0,0-.419,1.161,2.326,2.326,0,0,0-1.748,3.991,2.3,2.3,0,0,0-.857,1.066,2.432,2.432,0,0,0-1.811,4.509,2.444,2.444,0,0,0,.852,3.748,2.45,2.45,0,0,0-.45.768,2.584,2.584,0,0,0-4,3.153,2.421,2.421,0,0,0,.12,4.533,2.462,2.462,0,0,0,2.52,3.6A2.458,2.458,0,0,0,28.6,41.351a2.222,2.222,0,0,0,1.066,1.63,2.235,2.235,0,0,0,1.434,2.85v1.813c-6.662-7.473-16.151-6.123-20.918,2.814a.5.5,0,0,0,.723.633c4.661-3.583,17.077-4.923,19.8,2.418v.756a.5.5,0,1,0,1,0c-.394-3.312,4.429-8.074,9.455-11.173,4.964-3.03,12.581-1.53,13.745,4.753-2.221-1.619-9.491-4.163-14.8-1.419a10.423,10.423,0,0,1,10.453-1.647Zm-13.1-3.1a1.37,1.37,0,0,1-.845-.288,2.39,2.39,0,0,0-.484-.662,2.452,2.452,0,0,0,.2-1.243,1.386,1.386,0,1,1,1.125,2.193Zm1.428-3.29a2.4,2.4,0,0,0-2.912.038,2.5,2.5,0,0,0-.2-.277,2.377,2.377,0,0,0,1.394-2.221,1.587,1.587,0,0,1,1.714,2.46Zm-2.445-7a1.374,1.374,0,0,1-.257-.027,2.581,2.581,0,0,0-1.1-1.136A1.372,1.372,0,1,1,36.432,31.4Zm1.229,3.411a1.3,1.3,0,0,1,0-2.607,1.3,1.3,0,0,1,0,2.607Zm-3.332-6.17a1.3,1.3,0,0,1-2.59,0A1.295,1.295,0,0,1,34.329,28.637Zm-2.838-1.688a1.352,1.352,0,1,1,1.891-.573,2.274,2.274,0,0,0-1.891.573Zm1.33,4.385a1.569,1.569,0,0,1,2.155,2.28,2.347,2.347,0,0,0-1.318.275,2.267,2.267,0,0,0-.912-1.164A2.549,2.549,0,0,0,32.822,31.334Zm3.121-3.678a1.3,1.3,0,0,1,0-2.59A1.295,1.295,0,0,1,35.943,27.656Zm-.7-3.533a1.436,1.436,0,0,1,0-2.872A1.436,1.436,0,0,1,35.243,24.123ZM33.2,21.369a2.183,2.183,0,0,0-.873-.809,2.245,2.245,0,0,0,.278-1.188,2.415,2.415,0,0,0,1.751-.139A2.4,2.4,0,0,0,34.8,20.3a2.434,2.434,0,0,0-1.594,1.07Zm-1.318-4.312a1.424,1.424,0,0,1,2.848,0,1.424,1.424,0,0,1-2.848,0Zm.165,6.381a2.329,2.329,0,0,0-.877.219,1.175,1.175,0,1,1,.877-.219Zm-1.795,5.894a2.575,2.575,0,0,0-1.43.478,2.313,2.313,0,0,0-.962-.532,1.453,1.453,0,1,1,2.392.053ZM29.4,30.623a1.574,1.574,0,0,1,2.412,1.76,2.255,2.255,0,0,0-2.129.939,2.376,2.376,0,0,0-.658-.311,2.329,2.329,0,0,0,.374-2.389ZM32.289,38a1.233,1.233,0,0,1-1.977.968,2.435,2.435,0,0,0-.421-1.327,1.227,1.227,0,0,1,2.4.358Zm-.6-2.129a2.144,2.144,0,0,0-.661-.091,1.262,1.262,0,1,1,.661.09ZM33.246,38.4a1.469,1.469,0,0,1,2.011,1.8,2.375,2.375,0,0,0-2.286.4,2.209,2.209,0,0,0-.45-.934,2.218,2.218,0,0,0,.725-1.271Zm1.538-1.026a1.387,1.387,0,0,1-1.38-1.509,2.25,2.25,0,0,0,.328-.779,1.386,1.386,0,1,1,1.052,2.287Zm7.428-2.069a1.331,1.331,0,0,1-2.663,0A1.331,1.331,0,0,1,42.213,35.305Zm-1.8-3.68a1.351,1.351,0,0,1,0-2.7,1.351,1.351,0,0,1,0,2.7Zm-1.049-5.348a1.359,1.359,0,0,1,1.316,1.668,2.345,2.345,0,0,0-2.057.817,1.357,1.357,0,0,1,.741-2.485ZM39.1,23.056a1.443,1.443,0,0,1-2.076,1.284,2.436,2.436,0,0,0,.413-2.7A1.438,1.438,0,0,1,39.1,23.056Zm-.924-4.181a1.424,1.424,0,0,1-2.848,0A1.424,1.424,0,0,1,38.174,18.875Zm-.428-3.046a1.328,1.328,0,0,1-.232.752A2.411,2.411,0,0,0,35.7,16.7a2.408,2.408,0,0,0-.578-1.239,1.34,1.34,0,0,1,2.624.37ZM35.433,9.384a1.33,1.33,0,0,1,0,2.659A1.33,1.33,0,0,1,35.433,9.384Zm-1.277,5.41a2.391,2.391,0,0,0-1.482-.069,2.325,2.325,0,0,0-.894-.875,1.408,1.408,0,1,1,2.376.944ZM30.817,10.4a1.145,1.145,0,0,1,2.291,0A1.145,1.145,0,0,1,30.817,10.4Zm-.162,4.153a1.336,1.336,0,0,1,1.132.624,2.4,2.4,0,0,0-.892,1.982A1.315,1.315,0,1,1,30.655,14.555Zm-.336,3.608a1.3,1.3,0,0,1,.967,2.164,2.156,2.156,0,0,0-1.206.41,1.3,1.3,0,0,1,.239-2.574Zm-4.385,2.751a1.446,1.446,0,0,1,2.1-1.276,2.3,2.3,0,0,0,.753,1.527,1.438,1.438,0,0,1-2.851-.251Zm1.9,2.388a1.434,1.434,0,1,1,.413,2.811A1.434,1.434,0,0,1,27.837,23.3Zm-.58,6.886a1.323,1.323,0,0,1,0,2.645,1.323,1.323,0,0,1,0-2.645Zm-.7,3.532a2.452,2.452,0,0,0-.41.614,2.439,2.439,0,0,0-.345-.144,2.4,2.4,0,0,0,.247-.7,2.3,2.3,0,0,0,.508.235Zm-1.511-5.749a1.591,1.591,0,0,1,1.564,1.316,2.324,2.324,0,0,0-1.617,1.735,2.4,2.4,0,0,0-1.113-.384,1.6,1.6,0,0,1,1.166-2.667Zm-2.794,5.075a1.422,1.422,0,0,1,2.844,0,1.422,1.422,0,0,1-2.844,0Zm3.5,4.741a1.453,1.453,0,0,1-1.658-2.362,2.4,2.4,0,0,0,.9-.357,1.46,1.46,0,0,1,1.4,2,2.466,2.466,0,0,0-.643.725Zm.661,1.228a1.454,1.454,0,0,1,2.907,0,1.454,1.454,0,0,1-2.907,0Zm2.378-2.267a2.408,2.408,0,0,0-1.3-.151,2.412,2.412,0,0,0-.53-1.6,1.436,1.436,0,0,1,2.335-.723,2.237,2.237,0,0,0,.4,1.666,1.461,1.461,0,0,1-.908.808Zm.845,3.955a2.455,2.455,0,0,0,.47-.7,2.2,2.2,0,0,0,1.5.149,1.223,1.223,0,1,1-1.968.553Zm1.372,11.124c-2.783-4.8-10.745-5.7-16.654-3.565,3.574-2.345,7.805-2.981,11.358-1.3a.5.5,0,0,0,.407-.909c-4-1.914-9.031-1.006-12.87,1.747,5.631-6.539,13.412-4.342,17.851,1.365v2.359a.5.5,0,0,0,.007.071q-.052.116-.1.235Zm-.471-8.115a1.222,1.222,0,0,1,.078-.423,2.212,2.212,0,0,0,1.754-.639,1.225,1.225,0,1,1-1.831,1.063Zm3.439,3.953a26.531,26.531,0,0,0-1.881,2.352V45.9a2.224,2.224,0,0,0,1.65-1.2c.076.024.153.046.231.063Zm.008-3.928a2.209,2.209,0,0,0-.817-1.746,1.381,1.381,0,1,1,.817,1.746Z" fill="#74815d"/>
      </g>
      <g id="sorghum-2" data-name="sorghum" transform="translate(30.202 186.749)">
        <path id="Path_216369-2" data-name="Path 216369" d="M41.025,263.775c-1.776-6.577-13.827-9.184-22.778-3.989a.371.371,0,0,1-.494-.523c8.149-12.537,20.306-6.87,25.125,1.259Z" transform="translate(-6.293 -202.766)" fill="#84994a"/>
        <path id="Path_216370-2" data-name="Path 216370" d="M159.45,243.421h3.358v12.39H159.45Z" transform="translate(-124.255 -195.682)" fill="#84994a"/>
        <path id="Path_216371-2" data-name="Path 216371" d="M156.691,252.129v-.965a4.571,4.571,0,0,1,.7-2.434c1.35-2.146,3.068-6,8.97-9.447,5.138-2.8,11.119-3.822,15.607-.05-8.836-.577-19.56,4.2-21.05,12.9Z" transform="translate(-121.96 -190.155)" fill="#aecc76"/>
        <path id="Path_216372-2" data-name="Path 216372" d="M220.106,256a.371.371,0,0,0,.565-.384,9.979,9.979,0,0,0-3.045-5.757c-11.428-2.147-18.109,6.792-18.109,6.792C205.553,250.067,216.411,253.278,220.106,256Z" transform="translate(-157.597 -200.765)" fill="#84994a"/>
        <path id="Path_216373-2" data-name="Path 216373" d="M115.966,89.125a1.721,1.721,0,1,1-1.721-1.721A1.721,1.721,0,0,1,115.966,89.125ZM126.287,72.45a3.461,3.461,0,1,1-3.461-3.461A3.461,3.461,0,0,1,126.287,72.45Z" transform="translate(-85.214 -50.529)" fill="#eaa75e"/>
        <path id="Path_216374-2" data-name="Path 216374" d="M178.726,15.187a2.036,2.036,0,1,1-2.036-2.036,2.036,2.036,0,0,1,2.036,2.036Z" transform="translate(-136.918 -4.063)" fill="#eaa75e"/>
        <path id="Path_216375-2" data-name="Path 216375" d="M154.181,13.246a1.99,1.99,0,1,1-1.99-1.99A1.99,1.99,0,0,1,154.181,13.246Z" transform="translate(-116.569 -2.487)" fill="#ffdb94"/>
        <path id="Path_216376-2" data-name="Path 216376" d="M159.7,35.463a2.314,2.314,0,1,1-2.314-2.314A2.314,2.314,0,0,1,159.7,35.463Z" transform="translate(-120.628 -20.705)" fill="#ffdb94"/>
        <path id="Path_216377-2" data-name="Path 216377" d="M144.145,49.851a2.283,2.283,0,1,1-2.314-2.314,2.314,2.314,0,0,1,2.314,2.314Z" transform="translate(-107.681 -32.678)" fill="#ffdb94"/>
        <path id="Path_216378-2" data-name="Path 216378" d="M184.9,50.8a2.086,2.086,0,1,1-2.086-2.086A2.086,2.086,0,0,1,184.9,50.8Z" transform="translate(-141.972 -33.656)" fill="#eaa75e"/>
        <path id="Path_216379-2" data-name="Path 216379" d="M128.672,58.487a2.2,2.2,0,1,1-2.2-2.2A2.2,2.2,0,0,1,128.672,58.487Zm-7,4.5a2.136,2.136,0,1,1-2.136-2.136A2.136,2.136,0,0,1,121.672,62.99Z" transform="translate(-89.275 -39.957)" fill="#ffdb94"/>
        <path id="Path_216380-2" data-name="Path 216380" d="M142.288,75.886a2.15,2.15,0,1,1-2.15-2.15A2.15,2.15,0,0,1,142.288,75.886Z" transform="translate(-106.407 -54.479)" fill="#ffdb94"/>
        <path id="Path_216381-2" data-name="Path 216381" d="M150.242,97.129a2.038,2.038,0,1,1-2.038-2.038A2.038,2.038,0,0,1,150.242,97.129Z" transform="translate(-113.212 -72.25)" fill="#ffdb94"/>
        <path id="Path_216382-2" data-name="Path 216382" d="M154.953,119.371a2.161,2.161,0,1,1-2.16-2.161,2.161,2.161,0,0,1,2.16,2.161Z" transform="translate(-116.929 -90.656)" fill="#ffdb94"/>
        <path id="Path_216383-2" data-name="Path 216383" d="M204.962,132.243a2.161,2.161,0,1,1-2.161-2.161A2.161,2.161,0,0,1,204.962,132.243Z" transform="translate(-158.544 -101.367)" fill="#eaa75e"/>
        <path id="Path_216384-2" data-name="Path 216384" d="M183.031,148.221a2.561,2.561,0,1,1-2.561-2.561A2.561,2.561,0,0,1,183.031,148.221Z" transform="translate(-139.63 -114.331)" fill="#eaa75e"/>
        <path id="Path_216385-2" data-name="Path 216385" d="M162,140.553a1.9,1.9,0,1,1-1.9-1.9,1.9,1.9,0,0,1,1.9,1.9Z" transform="translate(-123.23 -108.501)" fill="#ffdb94"/>
        <path id="Path_216386-2" data-name="Path 216386" d="M216.112,186.339a2.018,2.018,0,1,1-2.018-2.018A2.018,2.018,0,0,1,216.112,186.339Z" transform="translate(-168.058 -146.502)" fill="#eaa75e"/>
        <path id="Path_216387-2" data-name="Path 216387" d="M194.017,173.543a2.072,2.072,0,1,1-2.072-2.072A2.072,2.072,0,0,1,194.017,173.543Z" transform="translate(-149.582 -135.809)" fill="#eaa75e"/>
        <path id="Path_216388-2" data-name="Path 216388" d="M190.876,199.2a2.471,2.471,0,1,1-2.471-2.471A2.471,2.471,0,0,1,190.876,199.2Z" transform="translate(-146.307 -156.825)" fill="#eaa75e"/>
        <path id="Path_216389-2" data-name="Path 216389" d="M138.255,142.613a2.379,2.379,0,1,1-2.379-2.379A2.379,2.379,0,0,1,138.255,142.613ZM132.7,137.7a2.351,2.351,0,1,1-2.351-2.351A2.351,2.351,0,0,1,132.7,137.7Z" transform="translate(-98.096 -105.75)" fill="#ffdb94"/>
        <path id="Path_216390-2" data-name="Path 216390" d="M110.209,147.027a2.282,2.282,0,1,1-2.281-2.282A2.281,2.281,0,0,1,110.209,147.027Zm-5.9-2.724a2.437,2.437,0,1,1-2.438-2.437A2.437,2.437,0,0,1,104.311,144.3Z" transform="translate(-74.328 -111.174)" fill="#ffdb94"/>
        <path id="Path_216391-2" data-name="Path 216391" d="M121.639,163.412a2.18,2.18,0,1,1-2.18-2.18,2.18,2.18,0,0,1,2.18,2.18Zm-1.113-4.493a2.226,2.226,0,1,1-2.226-2.226A2.226,2.226,0,0,1,120.527,158.918Z" transform="translate(-88.172 -123.511)" fill="#ffdb94"/>
        <path id="Path_216392-2" data-name="Path 216392" d="M105.041,193.632a2.251,2.251,0,1,1-2.251-2.25,2.251,2.251,0,0,1,2.251,2.25Z" transform="translate(-75.245 -152.378)" fill="#ffdb94"/>
        <path id="Path_216393-2" data-name="Path 216393" d="M176.33,194.578a2.181,2.181,0,1,1-2.182-2.181A2.182,2.182,0,0,1,176.33,194.578Zm-3.039-5.113a2.244,2.244,0,1,1-2.243-2.243,2.244,2.244,0,0,1,2.243,2.243Z" transform="translate(-132.051 -148.916)" fill="#eaa75e"/>
        <path id="Path_216394-2" data-name="Path 216394" d="M150.882,181.39a2.055,2.055,0,1,1-2.055-2.055,2.055,2.055,0,0,1,2.055,2.055Z" transform="translate(-113.717 -142.353)" fill="#ffdb94"/>
        <path id="Path_216395-2" data-name="Path 216395" d="M166.289,215.7A2.293,2.293,0,1,1,164,213.411a2.293,2.293,0,0,1,2.293,2.293Z" transform="translate(-126.142 -170.71)" fill="#eaa75e"/>
        <path id="Path_216396-2" data-name="Path 216396" d="M170.828,235.112a2.2,2.2,0,1,1-2.2-2.2A2.2,2.2,0,0,1,170.828,235.112Z" transform="translate(-130.077 -186.939)" fill="#eaa75e"/>
        <path id="Path_216397-2" data-name="Path 216397" d="M152.7,244.846a2.012,2.012,0,1,1-2.012-2.012,2.013,2.013,0,0,1,2.012,2.012Z" transform="translate(-115.3 -195.194)" fill="#eaa75e"/>
        <path id="Path_216398-2" data-name="Path 216398" d="M146.415,227.017A1.912,1.912,0,1,1,144.5,225.1a1.912,1.912,0,0,1,1.912,1.912Z" transform="translate(-110.237 -180.441)" fill="#eaa75e"/>
        <path id="Path_216399-2" data-name="Path 216399" d="M147.575,204.776A2.079,2.079,0,1,1,145.5,202.7,2.079,2.079,0,0,1,147.575,204.776Z" transform="translate(-110.924 -161.794)" fill="#ffdb94"/>
        <path id="Path_216400-2" data-name="Path 216400" d="M101.6,177.588a2.313,2.313,0,1,1-2.313-2.313,2.313,2.313,0,0,1,2.313,2.313Zm-5.189-6.97a2.019,2.019,0,1,1-2.019-2.019A2.019,2.019,0,0,1,96.406,170.618Z" transform="translate(-68.444 -133.419)" fill="#ffdb94"/>
        <path id="Path_216401-2" data-name="Path 216401" d="M186.423,128.235a1.927,1.927,0,1,1-1.927-1.927,1.927,1.927,0,0,1,1.927,1.927Zm-5.03-4.569a2.111,2.111,0,1,1-2.111-2.111A2.111,2.111,0,0,1,181.393,123.667Z" transform="translate(-139.014 -94.273)" fill="#eaa75e"/>
        <path id="Path_216402-2" data-name="Path 216402" d="M126.84,111.834a2.134,2.134,0,1,1-2.134-2.134A2.134,2.134,0,0,1,126.84,111.834Z" transform="translate(-93.578 -84.407)" fill="#ffdb94"/>
        <path id="Path_216403-2" data-name="Path 216403" d="M193.536,101.144a2.015,2.015,0,1,1-2.014-2.015A2.014,2.014,0,0,1,193.536,101.144Z" transform="translate(-149.278 -75.61)" fill="#eaa75e"/>
        <path id="Path_216404-2" data-name="Path 216404" d="M175.931,76.349a2.179,2.179,0,1,1-2.179-2.179,2.179,2.179,0,0,1,2.179,2.179Zm1.682-4.452a2.048,2.048,0,1,1-2.048-2.048A2.048,2.048,0,0,1,177.613,71.9Z" transform="translate(-134.355 -51.245)" fill="#eaa75e"/>
        <path id="Path_216405-2" data-name="Path 216405" d="M109.3,18.816a.63.63,0,1,1-.63-.63A.63.63,0,0,1,109.3,18.816Zm1.262,3.666a.63.63,0,1,1-.63-.63.63.63,0,0,1,.63.63Zm.126,3.906a.63.63,0,0,1-1.261,0A.63.63,0,0,1,110.684,26.388ZM107.73,25a.631.631,0,0,1-1.261,0A.631.631,0,0,1,107.73,25Zm-3.838,5.807a.63.63,0,0,1-1.261,0A.63.63,0,0,1,103.891,30.805Zm3.617-1.5a.63.63,0,1,1-.63-.63A.63.63,0,0,1,107.508,29.309Zm-2.637,6.106a.63.63,0,0,1-1.261,0A.63.63,0,0,1,104.871,35.415Zm1.03,4.343a.63.63,0,0,1-1.261,0A.63.63,0,0,1,105.9,39.758Zm-4.976,1.162a.63.63,0,1,1-.63-.63A.63.63,0,0,1,100.925,40.92Zm-1.459,4.315a.63.63,0,0,1-1.261,0A.63.63,0,0,1,99.466,45.235Zm4.437-1.867a.63.63,0,0,1-1.261,0A.63.63,0,0,1,103.9,43.368ZM101.23,49.6a.63.63,0,1,1-.63-.63A.63.63,0,0,1,101.23,49.6Zm3.53,2.747a.63.63,0,1,1-1.261,0A.63.63,0,0,1,104.759,52.346Z" transform="translate(-73.291 -8.253)" fill="#fff5e6"/>
        <path id="Path_216406-2" data-name="Path 216406" d="M57.324,50.9a.581.581,0,0,0,.485-1.056C51.1,46.754,41.02,50.881,38.442,61.532c-.382,1.183,1.1,1.469,1.144.206a11.1,11.1,0,0,1,8.407-8.723c8.115-1.956,14.8,3.122,14.867,3.172a.581.581,0,0,0,.932-.536c-.876-6.52-5.037-8.706-8.374-9.392-6.1-1.492-12.4,2.823-16.285,6.778V50.889a2.782,2.782,0,0,0,2.189-2.537,2.792,2.792,0,0,0,3.145-4.028,2.85,2.85,0,0,0,.772-1.891,2.716,2.716,0,1,0-.31-5.076,2.656,2.656,0,0,0-.232-.771,2.74,2.74,0,0,0,2.2-4.967,2.748,2.748,0,0,0-4.09-3.066q-.036-.111-.083-.219a2.84,2.84,0,0,0,.315-5.532,2.836,2.836,0,0,0,.068-4.239,2.734,2.734,0,0,0-3.255-4.021,2.8,2.8,0,0,0-.128-.707,2.713,2.713,0,1,0-2.067-4.523A2.5,2.5,0,1,0,34.745,13.1a2.792,2.792,0,0,0-.49,1.355,2.716,2.716,0,0,0-2.041,4.66,2.691,2.691,0,0,0-1,1.245A2.84,2.84,0,0,0,29.1,25.622,2.853,2.853,0,0,0,30.093,30a2.861,2.861,0,0,0-.526.9A3.017,3.017,0,0,0,24.9,34.578a2.827,2.827,0,0,0,.14,5.293,2.874,2.874,0,0,0,2.943,4.208A2.87,2.87,0,0,0,31.695,46.9a2.594,2.594,0,0,0,1.244,1.9,2.61,2.61,0,0,0,1.674,3.328v2.117C26.835,45.519,15.755,47.1,10.19,57.53a.581.581,0,0,0,.845.739c5.442-4.184,19.94-5.748,23.116,2.823v.882a.581.581,0,1,0,1.162,0c-.46-3.867,5.172-9.428,11.039-13.046,5.8-3.538,14.69-1.786,16.049,5.549-2.594-1.89-11.082-4.86-17.283-1.657A12.171,12.171,0,0,1,57.324,50.9Zm-15.3-3.617a1.6,1.6,0,0,1-.987-.336,2.79,2.79,0,0,0-.566-.773,2.863,2.863,0,0,0,.238-1.452,1.618,1.618,0,1,1,1.314,2.561ZM43.7,43.44a2.8,2.8,0,0,0-3.4.045,2.912,2.912,0,0,0-.229-.323,2.776,2.776,0,0,0,1.628-2.594,1.853,1.853,0,0,1,2,2.872ZM40.84,35.272a1.6,1.6,0,0,1-.3-.032,3.014,3.014,0,0,0-1.281-1.326,1.6,1.6,0,1,1,1.581,1.358Zm1.435,3.983a1.522,1.522,0,0,1,0-3.043,1.522,1.522,0,0,1,0,3.043Zm-3.89-7.2a1.512,1.512,0,0,1-3.024,0A1.512,1.512,0,0,1,38.385,32.051Zm-3.313-1.971a1.579,1.579,0,1,1,2.208-.669,2.655,2.655,0,0,0-2.208.669ZM36.625,35.2a1.832,1.832,0,0,1,2.516,2.662,2.741,2.741,0,0,0-1.539.321,2.647,2.647,0,0,0-1.065-1.36A2.976,2.976,0,0,0,36.625,35.2Zm3.644-4.294a1.512,1.512,0,0,1,0-3.024A1.512,1.512,0,0,1,40.269,30.906Zm-.817-4.125a1.677,1.677,0,0,1,0-3.353A1.677,1.677,0,0,1,39.452,26.781Zm-2.381-3.216a2.549,2.549,0,0,0-1.019-.944,2.621,2.621,0,0,0,.325-1.387,2.82,2.82,0,0,0,2.044-.162,2.8,2.8,0,0,0,.512,1.244,2.842,2.842,0,0,0-1.861,1.249ZM35.532,18.53a1.663,1.663,0,0,1,3.325,0,1.663,1.663,0,0,1-3.325,0Zm.193,7.45a2.719,2.719,0,0,0-1.024.256,1.372,1.372,0,1,1,1.024-.256Zm-2.1,6.882a3.006,3.006,0,0,0-1.67.558,2.7,2.7,0,0,0-1.123-.621,1.7,1.7,0,1,1,2.792.062Zm-1,1.507a1.838,1.838,0,0,1,2.816,2.055,2.633,2.633,0,0,0-2.486,1.1,2.774,2.774,0,0,0-.768-.363,2.719,2.719,0,0,0,.437-2.789ZM36,42.983a1.439,1.439,0,0,1-2.308,1.13,2.843,2.843,0,0,0-.492-1.549,1.433,1.433,0,0,1,2.8.418ZM35.308,40.5a2.5,2.5,0,0,0-.772-.106,1.473,1.473,0,1,1,.772.106Zm1.813,2.953a1.715,1.715,0,0,1,2.348,2.1,2.773,2.773,0,0,0-2.669.472,2.579,2.579,0,0,0-.526-1.091,2.59,2.59,0,0,0,.846-1.484Zm1.8-1.2a1.619,1.619,0,0,1-1.611-1.762,2.628,2.628,0,0,0,.383-.909,1.619,1.619,0,1,1,1.228,2.671Zm8.674-2.416a1.554,1.554,0,0,1-3.109,0A1.554,1.554,0,0,1,47.59,39.837Zm-2.107-4.3a1.578,1.578,0,0,1,0-3.156,1.578,1.578,0,0,1,0,3.156ZM44.258,29.3a1.587,1.587,0,0,1,1.537,1.947,2.738,2.738,0,0,0-2.4.954,1.585,1.585,0,0,1,.865-2.9Zm-.306-3.761a1.685,1.685,0,0,1-2.424,1.5,2.845,2.845,0,0,0,.482-3.153,1.679,1.679,0,0,1,1.941,1.653Zm-1.079-4.882a1.663,1.663,0,0,1-3.325,0A1.663,1.663,0,0,1,42.874,20.652Zm-.5-3.556a1.55,1.55,0,0,1-.271.878,2.815,2.815,0,0,0-2.118.137,2.812,2.812,0,0,0-.675-1.447,1.564,1.564,0,0,1,3.063.432Zm-2.7-7.525a1.553,1.553,0,0,1,0,3.105A1.553,1.553,0,0,1,39.674,9.571Zm-1.491,6.316a2.792,2.792,0,0,0-1.73-.08,2.714,2.714,0,0,0-1.044-1.022,1.645,1.645,0,1,1,2.774,1.1Zm-3.9-5.128a1.337,1.337,0,0,1,2.675,0A1.337,1.337,0,0,1,34.284,10.759ZM34.1,15.608a1.56,1.56,0,0,1,1.322.728,2.8,2.8,0,0,0-1.042,2.315A1.536,1.536,0,1,1,34.1,15.608ZM33.7,19.821a1.523,1.523,0,0,1,1.13,2.526,2.518,2.518,0,0,0-1.408.479,1.517,1.517,0,0,1,.279-3.006Zm-5.119,3.213a1.688,1.688,0,0,1,2.451-1.49,2.684,2.684,0,0,0,.88,1.783,1.679,1.679,0,0,1-3.329-.293Zm2.222,2.788a1.675,1.675,0,1,1,.482,3.282A1.675,1.675,0,0,1,30.805,25.822Zm-.677,8.04a1.544,1.544,0,0,1,0,3.088,1.544,1.544,0,0,1,0-3.088Zm-.819,4.124a2.864,2.864,0,0,0-.478.717,2.848,2.848,0,0,0-.4-.168,2.8,2.8,0,0,0,.289-.822,2.688,2.688,0,0,0,.593.274Zm-1.764-6.713a1.858,1.858,0,0,1,1.826,1.537,2.714,2.714,0,0,0-1.888,2.026,2.8,2.8,0,0,0-1.3-.448,1.863,1.863,0,0,1,1.361-3.114ZM24.282,37.2a1.661,1.661,0,0,1,3.321,0,1.661,1.661,0,0,1-3.321,0Zm4.086,5.536a1.7,1.7,0,0,1-1.935-2.758,2.8,2.8,0,0,0,1.054-.417,1.705,1.705,0,0,1,1.632,2.33,2.88,2.88,0,0,0-.75.846Zm.772,1.434a1.7,1.7,0,0,1,3.394,0,1.7,1.7,0,0,1-3.394,0Zm2.776-2.647a2.812,2.812,0,0,0-1.517-.176,2.817,2.817,0,0,0-.618-1.868,1.676,1.676,0,0,1,2.727-.844,2.612,2.612,0,0,0,.47,1.945,1.706,1.706,0,0,1-1.06.943Zm.987,4.618a2.867,2.867,0,0,0,.549-.819,2.571,2.571,0,0,0,1.751.174,1.428,1.428,0,1,1-2.3.646Zm1.6,12.988c-3.25-5.609-12.546-6.658-19.446-4.163,4.174-2.738,9.113-3.48,13.262-1.52a.581.581,0,0,0,.475-1.061c-4.671-2.235-10.545-1.175-15.027,2.04,6.574-7.635,15.661-5.07,20.843,1.593v2.755a.583.583,0,0,0,.008.083q-.06.136-.114.274Zm-.55-9.475a1.427,1.427,0,0,1,.091-.494,2.582,2.582,0,0,0,2.048-.746,1.43,1.43,0,1,1-2.138,1.241Zm4.015,4.616a30.977,30.977,0,0,0-2.2,2.746v-4.8a2.6,2.6,0,0,0,1.926-1.4c.089.028.178.054.27.073Zm.01-4.586a2.579,2.579,0,0,0-.954-2.039,1.613,1.613,0,1,1,.954,2.039Z" fill="#74815d"/>
      </g>
    </g>
  </g>
</svg>
