<svg xmlns="http://www.w3.org/2000/svg" width="69.922" height="59.003" viewBox="0 0 69.922 59.003">
  <g id="Group_158497" data-name="Group 158497" transform="translate(-28 -194.387)">
    <g id="Group_158361" data-name="Group 158361" transform="translate(-3 12.411)">
      <g id="Shape_Abstract_Rain_by_Streamlinehq" data-name="Shape Abstract Rain by Streamlinehq" transform="translate(101.816 220.02) rotate(90)">
        <path id="Path_214891" data-name="Path 214891" d="M3.091,13.83c.187-.561.353-.546.834-.638,1.112,0,1.117,1.258,1.218,2.139a2.16,2.16,0,0,1-.1,1.485c-.148.2-.146.29-.419.29a2.444,2.444,0,0,1-.7-.161,1.35,1.35,0,0,1-.837-1.06A6.949,6.949,0,0,1,3.056,14.7,2.943,2.943,0,0,1,3.091,13.83Z" fill="#2e3120"/>
        <path id="Path_214892" data-name="Path 214892" d="M17.833,11.361c.2-.779.379-.758.9-.886.331,0,1,.165,1,.729,0,.76.245,1.487.312,2.241a3.816,3.816,0,0,1-.111,2.062c-.319.571-.653.375-1.2.179a1.855,1.855,0,0,1-.9-1.472,12.457,12.457,0,0,1-.035-1.646A5.262,5.262,0,0,1,17.833,11.361Z" fill="#2e3120"/>
        <path id="Path_214893" data-name="Path 214893" d="M9.866,12.569c.256-.561.484-.546,1.144-.638,1.323,0,1.49.988,1.67,2.139.074.474.263,1.077-.141,1.485-.2.2-.2.29-.574.29a4.426,4.426,0,0,1-.954-.161,1.523,1.523,0,0,1-1.149-1.06,5.078,5.078,0,0,1-.044-1.185A2.16,2.16,0,0,1,9.866,12.569Z" fill="#2e3120"/>
        <path id="Path_214894" data-name="Path 214894" d="M6.657,7.617c0-.767-.009-1.682,1.044-1.845,1.652,0,1.16,2.072,1.16,3.208a1.633,1.633,0,0,1-.551,1.36c-.338.227-1.146-.142-1.35-.372C6.509,9.46,6.657,8.208,6.657,7.617Z" fill="#2e3120"/>
        <path id="Path_214895" data-name="Path 214895" d="M14.829,20.313c0-.767-.01-1.682,1.044-1.845,1.652,0,1.159,2.072,1.159,3.208a1.633,1.633,0,0,1-.551,1.36c-.338.227-1.146-.142-1.35-.372C14.681,22.156,14.829,20.9,14.829,20.313Z" fill="#2e3120"/>
        <path id="Path_214896" data-name="Path 214896" d="M8.015,18.695c.1-.153.4-.176.549-.226.368,0,.713-.031.986.3a2.312,2.312,0,0,1,.188.675,6.2,6.2,0,0,1,.013,1.573c-.014.321-.181.884-.5.961a1.244,1.244,0,0,1-1.226-.442,1.748,1.748,0,0,1-.188-.807c-.018-.323-.06-.634-.058-.959A2.131,2.131,0,0,1,8.015,18.695Z" fill="#2e3120"/>
        <path id="Path_214897" data-name="Path 214897" d="M19.484,1.161c.087-.181.33-.208.454-.266.3,0,.59-.037.815.36a3.663,3.663,0,0,1,.156.8,10.406,10.406,0,0,1,.011,1.855c-.012.378-.15,1.043-.412,1.134A.888.888,0,0,1,19.5,4.519a2.8,2.8,0,0,1-.156-.952c-.015-.381-.05-.748-.048-1.132A3.432,3.432,0,0,1,19.484,1.161Z" fill="#2e3120"/>
        <path id="Path_214898" data-name="Path 214898" d="M13.023,4.762c.1-.229.4-.263.549-.337.368,0,.713-.046.986.456a4.846,4.846,0,0,1,.188,1.01,13.838,13.838,0,0,1,.013,2.351c-.014.48-.181,1.322-.5,1.437a1.06,1.06,0,0,1-1.226-.661,3.707,3.707,0,0,1-.188-1.206c-.019-.483-.061-.948-.058-1.434A4.543,4.543,0,0,1,13.023,4.762Z" fill="#2e3120"/>
      </g>
    </g>
    <g id="sugarcane-field" transform="translate(22 190.499)">
      <g id="Group_158496" data-name="Group 158496" transform="translate(6 3.919)">
        <path id="Path_216328" data-name="Path 216328" d="M14.288,47.963a.357.357,0,0,1-.007.354c-1.017,1.747-1.135,10.726-.354,13.645a.734.734,0,0,1-.715.921h-6.3A.741.741,0,0,1,6.194,62c1.268-6.5,1.209-6.8-.17-13.859,1.437-7.372,1.445-7.372,0-14.736a38.567,38.567,0,0,0,0-14.765c1.379-7.055,1.437-7.35.17-13.851a.735.735,0,0,1,.722-.877h6.3a.729.729,0,0,1,.715.914c-.781,2.927-.663,11.912.361,13.652a.362.362,0,0,1,0,.347c-1.1,1.872-1.157,12.126-.17,14.205a.844.844,0,0,1,0,.73C13.13,35.836,13.189,46.09,14.288,47.963Z" transform="translate(0.997 -3.91)" fill="#83bd57"/>
        <path id="Path_216329" data-name="Path 216329" d="M14.111,15.265H6.157c-.007-.007-.015-.022-.022-.029-.181-.979-.095-.363,0-1.224h7.976a.226.226,0,0,1,.015.059C14.445,15.027,14.366,14.372,14.111,15.265Zm0,29.486H6.157c-.007-.007-.015-.022-.022-.029l-.111-.6c0-.007.007-.022.007-.029.029-.133.052-.273.074-.405a1.715,1.715,0,0,0,.029-.192h7.976a.227.227,0,0,1,.015.059C14.419,44.436,14.4,43.735,14.111,44.752Zm-.192-14.426H6.208c-.059-.3-.118-.612-.184-.944.037-.184.074-.361.1-.531h7.932C14.3,29.814,14.215,29.275,13.919,30.325Z" transform="translate(0.997 0.104)" fill="#74a842"/>
        <path id="Path_216330" data-name="Path 216330" d="M17.444,22.292c-1.628,4.349-4.03,5.149-5.577,5.149a1.625,1.625,0,0,1-1.617-1.926,9.7,9.7,0,0,1,2.385-4.073A14.782,14.782,0,0,1,14.7,19.6c2.791-2.169,4.83-7.892,4.83-7.892C20.424,15.087,17.444,22.292,17.444,22.292Z" transform="translate(2.664 -0.81)" fill="#83bd57"/>
        <path id="Path_216331" data-name="Path 216331" d="M17.522,17.044a35.94,35.94,0,0,0,1.26-3.752c-.5,1.22-1.009,2.433-1.547,3.632-1.064,2.353-1.276,2.716-1.892,3.882a5.824,5.824,0,0,0-.311-.914,6.48,6.48,0,0,0,.133,1.248q-.474.873-1.008,1.71a4.738,4.738,0,0,0-.286-.943,5.715,5.715,0,0,0,.089,1.246,17.249,17.249,0,0,1-1.035,1.429,5.1,5.1,0,0,0-.31-1.05,5.9,5.9,0,0,0,.095,1.291,6.316,6.316,0,0,1-2.018,1.668,5.759,5.759,0,0,0,2.183-1.483,5.907,5.907,0,0,0,1.278-.229,5.243,5.243,0,0,0-1.015-.046,12.865,12.865,0,0,0,1.089-1.362,5.667,5.667,0,0,0,1.183-.217,5.209,5.209,0,0,0-1-.047c.385-.562.738-1.145,1.073-1.737a6.413,6.413,0,0,0,1.273-.352,5.71,5.71,0,0,0-1.117.071c.08-.144.163-.288.241-.433C16.484,19.475,17.039,18.274,17.522,17.044Z" transform="translate(2.851 -0.182)" fill="#74a842"/>
        <path id="Path_216332" data-name="Path 216332" d="M11.866,24.678a1.624,1.624,0,0,1-1.616-1.925,9.673,9.673,0,0,1,2.384-4.08c-.574,1.183-1.254,2.225-1.7,3.338C10.386,23.286,10.558,24.278,11.866,24.678Z" transform="translate(2.663 1.957)" fill="#74a842"/>
        <path id="Path_216333" data-name="Path 216333" d="M17.444,41.91c-1.628,4.349-4.03,5.149-5.577,5.149a1.625,1.625,0,0,1-1.617-1.926,9.7,9.7,0,0,1,2.385-4.073A14.782,14.782,0,0,1,14.7,39.222c2.791-2.169,4.83-7.892,4.83-7.892C20.424,34.705,17.444,41.91,17.444,41.91Z" transform="translate(2.664 6.987)" fill="#83bd57"/>
        <path id="Path_216334" data-name="Path 216334" d="M18.782,32.91a80.576,80.576,0,0,1-3.438,7.514,5.824,5.824,0,0,0-.311-.914,6.48,6.48,0,0,0,.133,1.248q-.474.873-1.008,1.71a4.738,4.738,0,0,0-.286-.943,5.715,5.715,0,0,0,.089,1.246A17.249,17.249,0,0,1,12.925,44.2a5.1,5.1,0,0,0-.31-1.05,5.9,5.9,0,0,0,.095,1.291,6.316,6.316,0,0,1-2.018,1.668,5.759,5.759,0,0,0,2.183-1.483,5.908,5.908,0,0,0,1.278-.229,5.243,5.243,0,0,0-1.015-.046,12.865,12.865,0,0,0,1.089-1.362,5.667,5.667,0,0,0,1.183-.217,5.208,5.208,0,0,0-1-.047c.385-.562.738-1.145,1.073-1.737a6.413,6.413,0,0,0,1.273-.352,5.711,5.711,0,0,0-1.117.071A38.1,38.1,0,0,0,18.782,32.91Z" transform="translate(2.851 7.614)" fill="#74a842"/>
        <path id="Path_216335" data-name="Path 216335" d="M11.866,44.3a1.624,1.624,0,0,1-1.616-1.925,9.673,9.673,0,0,1,2.384-4.08c-.574,1.183-1.254,2.225-1.7,3.338a5.66,5.66,0,0,0-.283.821,1.436,1.436,0,0,0,.009.724A1.73,1.73,0,0,0,11.866,44.3Z" transform="translate(2.663 9.753)" fill="#74a842"/>
        <path id="Path_216336" data-name="Path 216336" d="M3.416,31.735c3.112,8.313,12.032,6.781,5.16-.911a15.855,15.855,0,0,0-2.211-1.973c-2.995-2.327-5.183-8.468-5.183-8.468C.217,24,3.416,31.735,3.416,31.735Z" transform="translate(-1 2.636)" fill="#83bd57"/>
        <path id="Path_216337" data-name="Path 216337" d="M1.557,22.078A86.449,86.449,0,0,0,5.246,30.14a6.248,6.248,0,0,1,.334-.981A6.949,6.949,0,0,1,5.437,30.5q.509.937,1.082,1.834a5.078,5.078,0,0,1,.307-1.012,6.13,6.13,0,0,1-.1,1.338,18.564,18.564,0,0,0,1.111,1.534,5.471,5.471,0,0,1,.333-1.127,6.326,6.326,0,0,1-.1,1.385,6.778,6.778,0,0,0,2.166,1.79A6.179,6.179,0,0,1,7.9,34.648,6.339,6.339,0,0,1,6.525,34.4a5.621,5.621,0,0,1,1.089-.05,13.815,13.815,0,0,1-1.168-1.462,6.077,6.077,0,0,1-1.27-.233,5.6,5.6,0,0,1,1.069-.05c-.413-.6-.792-1.229-1.151-1.864a6.889,6.889,0,0,1-1.366-.377,6.145,6.145,0,0,1,1.2.076A40.864,40.864,0,0,1,1.557,22.078Z" transform="translate(-0.779 3.31)" fill="#74a842"/>
        <path id="Path_216338" data-name="Path 216338" d="M7.247,34.3A1.743,1.743,0,0,0,8.981,32.23a10.38,10.38,0,0,0-2.558-4.378c.616,1.27,1.346,2.388,1.819,3.582C8.831,32.793,8.652,33.866,7.247,34.3Z" transform="translate(1.155 5.605)" fill="#74a842"/>
      </g>
      <path id="Path_216339" data-name="Path 216339" d="M30.288,47.971a.357.357,0,0,1-.007.354c-1.017,1.747-1.135,10.726-.354,13.645a.734.734,0,0,1-.715.921h-6.3a.741.741,0,0,1-.722-.885c1.268-6.5,1.209-6.8-.17-13.859,1.437-7.372,1.445-7.372,0-14.736a38.567,38.567,0,0,0,0-14.765c1.379-7.055,1.437-7.35.17-13.851a.735.735,0,0,1,.722-.877c4.509.284,7.438-.67,7.01.914-.781,2.927-.663,11.912.361,13.652a.362.362,0,0,1,0,.347c-1.1,1.872-1.157,12.126-.17,14.205a.844.844,0,0,1,0,.73C29.13,35.845,29.189,46.1,30.288,47.971Z" transform="translate(6.368 0)" fill="#83bd57"/>
      <path id="Path_216340" data-name="Path 216340" d="M30.111,15.265H22.157c-.007-.007-.015-.022-.022-.029l-.111-.6c0-.007.007-.022.007-.029.029-.133.052-.273.074-.405a1.714,1.714,0,0,0,.029-.192h7.976a.226.226,0,0,1,.015.059C30.445,15.027,30.366,14.372,30.111,15.265Zm0,29.486H22.157c-.007-.007-.015-.022-.022-.029l-.111-.6c0-.007.007-.022.007-.029.029-.133.052-.273.074-.405a1.714,1.714,0,0,0,.029-.192h7.976a.227.227,0,0,1,.015.059C30.445,44.514,30.366,43.858,30.111,44.752Zm.007-15.009a4.773,4.773,0,0,0-.2.582H22.208c-.059-.3-.118-.612-.184-.944.037-.184.074-.361.1-.531h7.932a1.06,1.06,0,0,0,.059.162A.844.844,0,0,1,30.118,29.743Z" transform="translate(6.368 4.023)" fill="#74a842"/>
      <path id="Path_216341" data-name="Path 216341" d="M33.445,22.292c-2.49,6.652-7.719,5.865-7.194,3.224a9.7,9.7,0,0,1,2.385-4.073A14.782,14.782,0,0,1,30.7,19.6c2.791-2.169,4.83-7.892,4.83-7.892C36.426,15.087,33.445,22.292,33.445,22.292Z" transform="translate(8.033 3.109)" fill="#83bd57"/>
      <path id="Path_216342" data-name="Path 216342" d="M34.782,13.292a80.577,80.577,0,0,1-3.438,7.514,5.824,5.824,0,0,0-.311-.914,6.48,6.48,0,0,0,.133,1.248q-.474.873-1.008,1.71a4.729,4.729,0,0,0-.286-.943,5.715,5.715,0,0,0,.089,1.246,17.25,17.25,0,0,1-1.035,1.429,5.1,5.1,0,0,0-.31-1.05,5.9,5.9,0,0,0,.095,1.291,6.316,6.316,0,0,1-2.018,1.668,5.759,5.759,0,0,0,2.183-1.483,5.908,5.908,0,0,0,1.278-.229,5.243,5.243,0,0,0-1.015-.046,12.865,12.865,0,0,0,1.089-1.362,5.667,5.667,0,0,0,1.183-.217,5.209,5.209,0,0,0-1-.047c.385-.562.738-1.145,1.073-1.737a6.413,6.413,0,0,0,1.273-.352,5.711,5.711,0,0,0-1.117.071A38.106,38.106,0,0,0,34.782,13.292Z" transform="translate(8.223 3.737)" fill="#74a842"/>
      <path id="Path_216343" data-name="Path 216343" d="M27.866,24.678a1.624,1.624,0,0,1-1.616-1.925,9.673,9.673,0,0,1,2.384-4.08c-.574,1.183-1.254,2.225-1.7,3.338a5.66,5.66,0,0,0-.283.821A1.57,1.57,0,0,0,27.866,24.678Z" transform="translate(8.035 5.876)" fill="#74a842"/>
      <path id="Path_216344" data-name="Path 216344" d="M33.445,41.91c-2.49,6.652-7.719,5.865-7.194,3.224a9.7,9.7,0,0,1,2.385-4.073A14.782,14.782,0,0,1,30.7,39.222c2.791-2.169,4.83-7.892,4.83-7.892C36.426,34.705,33.445,41.91,33.445,41.91Z" transform="translate(8.033 10.905)" fill="#83bd57"/>
      <path id="Path_216345" data-name="Path 216345" d="M33.522,36.662a35.94,35.94,0,0,0,1.26-3.752c-.5,1.22-1.009,2.433-1.547,3.632-1.064,2.353-1.276,2.716-1.892,3.882a5.824,5.824,0,0,0-.311-.914,6.48,6.48,0,0,0,.133,1.248q-.474.873-1.008,1.71a4.729,4.729,0,0,0-.286-.943,5.715,5.715,0,0,0,.089,1.246A17.25,17.25,0,0,1,28.925,44.2a5.1,5.1,0,0,0-.31-1.05,5.9,5.9,0,0,0,.095,1.291,6.316,6.316,0,0,1-2.018,1.668,5.759,5.759,0,0,0,2.183-1.483,5.908,5.908,0,0,0,1.278-.229,5.243,5.243,0,0,0-1.015-.046,12.864,12.864,0,0,0,1.089-1.362,5.668,5.668,0,0,0,1.183-.217,5.208,5.208,0,0,0-1-.047c.385-.562.738-1.145,1.073-1.737.192-.036.384-.071.574-.124a5.188,5.188,0,0,0,.7-.228,5.188,5.188,0,0,0-.735.021c-.128.01-.254.033-.382.05A36.885,36.885,0,0,0,33.522,36.662Z" transform="translate(8.223 11.533)" fill="#74a842"/>
      <path id="Path_216346" data-name="Path 216346" d="M27.866,44.3a1.624,1.624,0,0,1-1.616-1.925,9.673,9.673,0,0,1,2.384-4.08C27.433,40.767,25.259,43.5,27.866,44.3Z" transform="translate(8.035 13.672)" fill="#74a842"/>
      <path id="Path_216347" data-name="Path 216347" d="M19.416,31.735c1.747,4.666,4.324,5.525,5.984,5.525a1.744,1.744,0,0,0,1.735-2.066,10.41,10.41,0,0,0-2.56-4.37,15.855,15.855,0,0,0-2.211-1.973c-2.995-2.327-5.183-8.468-5.183-8.468C16.217,24,19.416,31.735,19.416,31.735Z" transform="translate(4.371 6.555)" fill="#83bd57"/>
      <path id="Path_216348" data-name="Path 216348" d="M18.909,26.1a38.506,38.506,0,0,1-1.352-4.026c.537,1.31,1.083,2.611,1.659,3.9s1.166,2.565,1.836,3.8c.063.122.129.242.194.364a6.248,6.248,0,0,1,.334-.981,6.948,6.948,0,0,1-.143,1.339q.509.937,1.082,1.834a5.078,5.078,0,0,1,.307-1.012,6.13,6.13,0,0,1-.1,1.338,18.565,18.565,0,0,0,1.111,1.534,5.471,5.471,0,0,1,.333-1.127,6.326,6.326,0,0,1-.1,1.385,6.778,6.778,0,0,0,2.166,1.79A6.179,6.179,0,0,1,23.9,34.648a6.339,6.339,0,0,1-1.371-.245,5.621,5.621,0,0,1,1.089-.05,13.816,13.816,0,0,1-1.168-1.462,6.078,6.078,0,0,1-1.27-.233,5.6,5.6,0,0,1,1.069-.05c-.413-.6-.791-1.229-1.151-1.864a6.888,6.888,0,0,1-1.366-.377,6.145,6.145,0,0,1,1.2.076A39.515,39.515,0,0,1,18.909,26.1Z" transform="translate(4.593 7.229)" fill="#74a842"/>
      <path id="Path_216349" data-name="Path 216349" d="M23.247,34.3a1.743,1.743,0,0,0,1.734-2.066,10.379,10.379,0,0,0-2.558-4.378C23.721,30.53,26.033,33.444,23.247,34.3Z" transform="translate(6.526 9.523)" fill="#74a842"/>
      <g id="Group_158495" data-name="Group 158495" transform="translate(36.743 3.919)">
        <path id="Path_216350" data-name="Path 216350" d="M46.288,47.963a.357.357,0,0,1-.007.354c-1.017,1.747-1.135,10.726-.354,13.645a.734.734,0,0,1-.715.921h-6.3A.741.741,0,0,1,38.194,62c1.268-6.5,1.209-6.8-.17-13.859,1.437-7.372,1.445-7.372,0-14.736a38.567,38.567,0,0,0,0-14.765c1.379-7.055,1.437-7.35.17-13.851a.735.735,0,0,1,.722-.877h6.3a.729.729,0,0,1,.715.914c-.781,2.927-.663,11.912.361,13.652a.362.362,0,0,1,0,.347c-1.1,1.872-1.157,12.126-.17,14.205a.844.844,0,0,1,0,.73C45.13,35.836,45.189,46.09,46.288,47.963Z" transform="translate(-31.003 -3.91)" fill="#83bd57"/>
        <path id="Path_216351" data-name="Path 216351" d="M46.111,15.265H38.157c-.007-.007-.015-.022-.022-.029-.178-.964-.1-.34,0-1.224h7.976a.226.226,0,0,1,.015.059C46.419,14.949,46.4,14.248,46.111,15.265ZM46.28,44.3a.859.859,0,0,0-.081.184.543.543,0,0,0-.022.059.67.67,0,0,0-.022.066c-.015.044-.029.088-.044.14H38.157c-.007-.007-.015-.022-.022-.029l-.111-.6c0-.007.007-.022.007-.029.029-.133.052-.273.074-.405a1.714,1.714,0,0,0,.029-.192h7.976a.228.228,0,0,1,.015.059,2.9,2.9,0,0,0,.1.28c.015.037.037.074.052.1A.352.352,0,0,1,46.28,44.3Zm-.162-14.559a4.774,4.774,0,0,0-.2.582H38.208c-.059-.3-.118-.612-.184-.944.037-.184.074-.361.1-.531h7.932A1.037,1.037,0,0,1,46.118,29.743Z" transform="translate(-31.003 0.104)" fill="#74a842"/>
        <path id="Path_216352" data-name="Path 216352" d="M49.444,22.292c-1.628,4.349-4.03,5.149-5.577,5.149a1.625,1.625,0,0,1-1.617-1.926c.432-2.185,2.574-4.47,4.446-5.912,2.791-2.169,4.83-7.892,4.83-7.892C52.424,15.087,49.444,22.292,49.444,22.292Z" transform="translate(-29.336 -0.81)" fill="#83bd57"/>
        <path id="Path_216353" data-name="Path 216353" d="M49.522,17.044a35.941,35.941,0,0,0,1.26-3.752c-.5,1.22-1.009,2.433-1.547,3.632-1.064,2.353-1.276,2.716-1.892,3.882a5.824,5.824,0,0,0-.311-.914,6.479,6.479,0,0,0,.133,1.248q-.474.873-1.008,1.71a4.738,4.738,0,0,0-.286-.943,5.715,5.715,0,0,0,.089,1.246,17.248,17.248,0,0,1-1.035,1.429,5.1,5.1,0,0,0-.31-1.05,5.9,5.9,0,0,0,.095,1.291,6.318,6.318,0,0,1-2.018,1.668,5.759,5.759,0,0,0,2.183-1.483,5.907,5.907,0,0,0,1.278-.229,5.243,5.243,0,0,0-1.015-.046,12.866,12.866,0,0,0,1.089-1.362,5.667,5.667,0,0,0,1.183-.217,5.209,5.209,0,0,0-1-.047c.385-.562.738-1.145,1.073-1.737a6.413,6.413,0,0,0,1.273-.352,5.71,5.71,0,0,0-1.117.071A36.908,36.908,0,0,0,49.522,17.044Z" transform="translate(-29.149 -0.182)" fill="#74a842"/>
        <path id="Path_216354" data-name="Path 216354" d="M43.866,24.678a1.624,1.624,0,0,1-1.616-1.925,9.673,9.673,0,0,1,2.384-4.08C43.444,21.127,41.274,23.886,43.866,24.678Z" transform="translate(-29.337 1.957)" fill="#74a842"/>
        <path id="Path_216355" data-name="Path 216355" d="M49.444,41.91c-1.628,4.349-4.03,5.149-5.577,5.149a1.625,1.625,0,0,1-1.617-1.926,9.7,9.7,0,0,1,2.385-4.073A14.782,14.782,0,0,1,46.7,39.222c2.791-2.169,4.83-7.892,4.83-7.892C52.424,34.705,49.444,41.91,49.444,41.91Z" transform="translate(-29.336 6.987)" fill="#83bd57"/>
        <path id="Path_216356" data-name="Path 216356" d="M49.522,36.662a35.939,35.939,0,0,0,1.26-3.752c-.5,1.22-1.009,2.433-1.547,3.632s-1.087,2.391-1.711,3.543c-.058.114-.121.226-.18.339a5.824,5.824,0,0,0-.311-.914,6.48,6.48,0,0,0,.133,1.248q-.474.873-1.008,1.71c-.022-.1-.037-.194-.064-.29a4.591,4.591,0,0,0-.222-.653,4.567,4.567,0,0,0,.015.69c.013.188.043.372.074.557-.15.226-.3.45-.458.67-.184.259-.376.513-.577.759-.027-.133-.051-.266-.088-.4a4.574,4.574,0,0,0-.222-.653,4.566,4.566,0,0,0,.015.69c.014.2.046.4.08.6-.148.17-.294.343-.455.5a5.658,5.658,0,0,1-1.563,1.167,5.759,5.759,0,0,0,2.183-1.483,5.908,5.908,0,0,0,1.278-.229,5.243,5.243,0,0,0-1.015-.046c.214-.235.419-.478.615-.722.165-.208.321-.424.474-.64a5.668,5.668,0,0,0,1.183-.217,5.208,5.208,0,0,0-1-.047c.385-.562.738-1.145,1.073-1.737.192-.036.384-.071.574-.124a5.188,5.188,0,0,0,.7-.228,5.187,5.187,0,0,0-.735.021c-.128.01-.254.033-.382.05.08-.144.163-.288.241-.433C48.484,39.093,49.039,37.892,49.522,36.662Z" transform="translate(-29.149 7.614)" fill="#74a842"/>
        <path id="Path_216357" data-name="Path 216357" d="M43.866,44.3a1.624,1.624,0,0,1-1.616-1.925,9.673,9.673,0,0,1,2.384-4.08c-.574,1.183-1.254,2.225-1.7,3.338a5.661,5.661,0,0,0-.283.821,1.438,1.438,0,0,0,.009.724A1.73,1.73,0,0,0,43.866,44.3Z" transform="translate(-29.337 9.753)" fill="#74a842"/>
        <path id="Path_216358" data-name="Path 216358" d="M35.416,31.735c1.747,4.666,4.324,5.525,5.984,5.525a1.744,1.744,0,0,0,1.735-2.066,10.41,10.41,0,0,0-2.56-4.37,15.855,15.855,0,0,0-2.211-1.973c-2.995-2.327-5.183-8.468-5.183-8.468C32.217,24,35.416,31.735,35.416,31.735Z" transform="translate(-33 2.636)" fill="#83bd57"/>
        <path id="Path_216359" data-name="Path 216359" d="M33.557,22.078c.537,1.31,1.083,2.611,1.659,3.9,1.142,2.525,1.369,2.914,2.03,4.165a6.247,6.247,0,0,1,.334-.981,6.949,6.949,0,0,1-.143,1.339q.509.937,1.082,1.834a5.078,5.078,0,0,1,.307-1.012,6.13,6.13,0,0,1-.1,1.338,18.566,18.566,0,0,0,1.111,1.534,5.471,5.471,0,0,1,.333-1.127,6.327,6.327,0,0,1-.1,1.385c.159.183.316.368.488.538a6.069,6.069,0,0,0,1.678,1.252A6.179,6.179,0,0,1,39.9,34.648a6.339,6.339,0,0,1-1.371-.245,5.621,5.621,0,0,1,1.089-.05,13.816,13.816,0,0,1-1.168-1.462,6.078,6.078,0,0,1-1.27-.233,5.6,5.6,0,0,1,1.069-.05c-.413-.6-.791-1.229-1.151-1.864a6.889,6.889,0,0,1-1.366-.377,6.145,6.145,0,0,1,1.2.076A40.86,40.86,0,0,1,33.557,22.078Z" transform="translate(-32.779 3.31)" fill="#74a842"/>
        <path id="Path_216360" data-name="Path 216360" d="M39.247,34.3a1.743,1.743,0,0,0,1.734-2.066,10.38,10.38,0,0,0-2.558-4.378C39.711,30.509,42.044,33.441,39.247,34.3Z" transform="translate(-30.845 5.605)" fill="#74a842"/>
      </g>
    </g>
  </g>
</svg>
