<svg xmlns="http://www.w3.org/2000/svg" width="45.88" height="58.891" viewBox="0 0 45.88 58.891">
  <g id="Group_158492" data-name="Group 158492" transform="translate(-35.042 -189.902)">
    <g id="Shape_Abstract_Rain_by_Streamlinehq" data-name="Shape Abstract Rain by Streamlinehq" transform="translate(81.816 223.02) rotate(90)">
      <path id="Path_214891" data-name="Path 214891" d="M3.091,13.83c.187-.561.353-.546.834-.638,1.112,0,1.117,1.258,1.218,2.139a2.16,2.16,0,0,1-.1,1.485c-.148.2-.146.29-.419.29a2.444,2.444,0,0,1-.7-.161,1.35,1.35,0,0,1-.837-1.06A6.949,6.949,0,0,1,3.056,14.7,2.943,2.943,0,0,1,3.091,13.83Z" fill="#2e3120"/>
      <path id="Path_214892" data-name="Path 214892" d="M17.833,11.361c.2-.779.379-.758.9-.886.331,0,1,.165,1,.729,0,.76.245,1.487.312,2.241a3.816,3.816,0,0,1-.111,2.062c-.319.571-.653.375-1.2.179a1.855,1.855,0,0,1-.9-1.472,12.457,12.457,0,0,1-.035-1.646A5.262,5.262,0,0,1,17.833,11.361Z" fill="#2e3120"/>
      <path id="Path_214893" data-name="Path 214893" d="M9.866,12.569c.256-.561.484-.546,1.144-.638,1.323,0,1.49.988,1.67,2.139.074.474.263,1.077-.141,1.485-.2.2-.2.29-.574.29a4.426,4.426,0,0,1-.954-.161,1.523,1.523,0,0,1-1.149-1.06,5.078,5.078,0,0,1-.044-1.185A2.16,2.16,0,0,1,9.866,12.569Z" fill="#2e3120"/>
      <path id="Path_214894" data-name="Path 214894" d="M6.657,7.617c0-.767-.009-1.682,1.044-1.845,1.652,0,1.16,2.072,1.16,3.208a1.633,1.633,0,0,1-.551,1.36c-.338.227-1.146-.142-1.35-.372C6.509,9.46,6.657,8.208,6.657,7.617Z" fill="#2e3120"/>
      <path id="Path_214895" data-name="Path 214895" d="M14.829,20.313c0-.767-.01-1.682,1.044-1.845,1.652,0,1.159,2.072,1.159,3.208a1.633,1.633,0,0,1-.551,1.36c-.338.227-1.146-.142-1.35-.372C14.681,22.156,14.829,20.9,14.829,20.313Z" fill="#2e3120"/>
      <path id="Path_214896" data-name="Path 214896" d="M8.015,18.695c.1-.153.4-.176.549-.226.368,0,.713-.031.986.3a2.312,2.312,0,0,1,.188.675,6.2,6.2,0,0,1,.013,1.573c-.014.321-.181.884-.5.961a1.244,1.244,0,0,1-1.226-.442,1.748,1.748,0,0,1-.188-.807c-.018-.323-.06-.634-.058-.959A2.131,2.131,0,0,1,8.015,18.695Z" fill="#2e3120"/>
      <path id="Path_214897" data-name="Path 214897" d="M19.484,1.161c.087-.181.33-.208.454-.266.3,0,.59-.037.815.36a3.663,3.663,0,0,1,.156.8,10.406,10.406,0,0,1,.011,1.855c-.012.378-.15,1.043-.412,1.134A.888.888,0,0,1,19.5,4.519a2.8,2.8,0,0,1-.156-.952c-.015-.381-.05-.748-.048-1.132A3.432,3.432,0,0,1,19.484,1.161Z" fill="#2e3120"/>
      <path id="Path_214898" data-name="Path 214898" d="M13.023,4.762c.1-.229.4-.263.549-.337.368,0,.713-.046.986.456a4.846,4.846,0,0,1,.188,1.01,13.838,13.838,0,0,1,.013,2.351c-.014.48-.181,1.322-.5,1.437a1.06,1.06,0,0,1-1.226-.661,3.707,3.707,0,0,1-.188-1.206c-.019-.483-.061-.948-.058-1.434A4.543,4.543,0,0,1,13.023,4.762Z" fill="#2e3120"/>
    </g>
    <g id="wheat" transform="translate(13.922 181.972)">
      <path id="Path_214809" data-name="Path 214809" d="M61.965,27.712a1.1,1.1,0,0,1,.095,1.545c-.616.7-1.253,1.535-2.013,2.537A82.675,82.675,0,0,1,48.934,44.027c-13.3,12.18-13.868,22.93-13.207,26.785a1.095,1.095,0,0,1-2.158.37c-.8-4.66.093-16.137,13.887-28.77A78.608,78.608,0,0,0,58.175,30.629c.81-1.068,1.512-1.995,2.246-2.823a1.1,1.1,0,0,1,1.545-.094Z" transform="translate(-3.308 -5.271)" fill="#c46d33" fill-rule="evenodd"/>
      <path id="Path_214810" data-name="Path 214810" d="M70.485,27.305c.033-2.038,1.27-6.246,5.956-6.765C76.108,22.912,74.451,27.587,70.485,27.305Z" transform="translate(-13.338 -3.407)" fill="#f79b47"/>
      <path id="Path_214811" data-name="Path 214811" d="M69.841,28.221a1.46,1.46,0,0,1-1.356-1.48,9.252,9.252,0,0,1,1.472-4.728,7.675,7.675,0,0,1,5.782-3.464A1.46,1.46,0,0,1,77.346,20.2,12.631,12.631,0,0,1,75.5,25.186,6.166,6.166,0,0,1,69.841,28.221Zm.629-1.448a4.251,4.251,0,0,0,.939-.142c2.29-.619,3.573-3.081,4.16-5.106A11.229,11.229,0,0,0,75.9,20a7.284,7.284,0,0,0-1.54.336,6.6,6.6,0,0,0-4.231,4.979c-.063.277-.108.542-.139.79a6.193,6.193,0,0,0-.047.66A4.547,4.547,0,0,0,70.47,26.773Z" transform="translate(-12.798 -2.867)" fill="#c36d32" fill-rule="evenodd"/>
      <path id="Path_214812" data-name="Path 214812" d="M65.1,31.008c-.866-1.846-1.6-6.168,2.378-8.694C68.22,24.591,68.786,29.519,65.1,31.008Z" transform="translate(-11.698 -3.887)" fill="#f2a637"/>
      <path id="Path_214813" data-name="Path 214813" d="M65.106,31.821a1.46,1.46,0,0,1-1.868-.733,9.243,9.243,0,0,1-.755-4.894,7.677,7.677,0,0,1,3.672-5.652,1.46,1.46,0,0,1,2.17.779,12.633,12.633,0,0,1,.532,5.288,6.167,6.167,0,0,1-3.751,5.212Zm-.071-1.576a4.254,4.254,0,0,0,.781-.542c1.785-1.562,1.856-4.337,1.492-6.414a11.152,11.152,0,0,0-.372-1.515,7.287,7.287,0,0,0-1.235.978,6.6,6.6,0,0,0-1.613,6.331,7.535,7.535,0,0,0,.223.771,6.314,6.314,0,0,0,.248.614,4.683,4.683,0,0,0,.476-.224Z" transform="translate(-11.158 -3.346)" fill="#bc7104" fill-rule="evenodd"/>
      <path id="Path_214814" data-name="Path 214814" d="M59.021,37.52c-1.091-1.838-2.3-6.274,1.6-9.314,1.007,2.3,2.1,7.386-1.6,9.314Z" transform="translate(-9.951 -5.479)" fill="#f2a637"/>
      <path id="Path_214815" data-name="Path 214815" d="M59.155,38.273a1.46,1.46,0,0,1-1.93-.549,9.629,9.629,0,0,1-1.275-4.993,7.98,7.98,0,0,1,3.233-6.216,1.46,1.46,0,0,1,2.235.566A13.173,13.173,0,0,1,62.5,32.514,6.4,6.4,0,0,1,59.155,38.273Zm-.2-1.575a4.461,4.461,0,0,0,.709-.59c1.781-1.828,1.549-4.817.938-6.975a11.631,11.631,0,0,0-.52-1.468,7.69,7.69,0,0,0-1.138,1.083,6.926,6.926,0,0,0-1.071,6.9c.089.255.186.495.288.714a6.454,6.454,0,0,0,.321.615,5.142,5.142,0,0,0,.474-.281Z" transform="translate(-9.41 -4.938)" fill="#bc7104" fill-rule="evenodd"/>
      <path id="Path_214816" data-name="Path 214816" d="M52.056,44.879C50.9,42.93,49.62,38.227,53.754,35,54.822,37.443,55.976,42.834,52.056,44.879Z" transform="translate(-8.051 -7.315)" fill="#f2a637"/>
      <path id="Path_214817" data-name="Path 214817" d="M52.191,45.633a1.46,1.46,0,0,1-1.93-.55,10.122,10.122,0,0,1-1.339-5.247,8.374,8.374,0,0,1,3.394-6.524,1.46,1.46,0,0,1,2.235.566A13.871,13.871,0,0,1,55.693,39.6,6.69,6.69,0,0,1,52.191,45.633Zm-.172-1.592a4.776,4.776,0,0,0,.687-.56c1.985-1.958,1.708-5.235,1.032-7.556a12.216,12.216,0,0,0-.525-1.462,8.241,8.241,0,0,0-1.14,1.073A7.351,7.351,0,0,0,50.9,43.013c.087.239.18.465.275.673a7.174,7.174,0,0,0,.34.653,5.265,5.265,0,0,0,.5-.3Z" transform="translate(-7.511 -6.775)" fill="#bc7104" fill-rule="evenodd"/>
      <path id="Path_214818" data-name="Path 214818" d="M45.96,52.61c-1.365-1.976-3.058-6.855,1.078-10.562C48.342,44.55,49.954,50.165,45.96,52.61Z" transform="translate(-6.298 -9.219)" fill="#f2a637"/>
      <path id="Path_214819" data-name="Path 214819" d="M46.181,53.314a1.46,1.46,0,0,1-1.963-.416,10.633,10.633,0,0,1-1.781-5.4,8.782,8.782,0,0,1,3.086-7.075,1.46,1.46,0,0,1,2.268.412,14.612,14.612,0,0,1,1.613,5.93,7,7,0,0,1-3.224,6.552Zm-.253-1.6a5.04,5.04,0,0,0,.625-.575c2.052-2.238,1.481-5.786.57-8.218a12.848,12.848,0,0,0-.627-1.417,8.739,8.739,0,0,0-1.068,1.138,7.8,7.8,0,0,0-.721,8.147q.148.325.3.612a7.547,7.547,0,0,0,.406.665,5.555,5.555,0,0,0,.51-.352Z" transform="translate(-5.758 -8.679)" fill="#bc7104" fill-rule="evenodd"/>
      <path id="Path_214820" data-name="Path 214820" d="M40.318,61.557c-1.833-1.9-4.492-6.858-.461-11.513,1.85,2.472,4.533,8.234.461,11.513Z" transform="translate(-4.493 -11.379)" fill="#f2a637"/>
      <path id="Path_214821" data-name="Path 214821" d="M40.689,62.152a1.456,1.456,0,0,1-1.962-.118,11.161,11.161,0,0,1-2.811-5.46,9.269,9.269,0,0,1,2.3-8.023,1.467,1.467,0,0,1,1.155-.507,1.45,1.45,0,0,1,1.114.579A15.309,15.309,0,0,1,43.2,54.688,7.409,7.409,0,0,1,40.689,62.152ZM40.6,60.225q.108-.128.206-.257c2.115-2.805.812-6.7-.647-9.2a13.506,13.506,0,0,0-.837-1.27,9.758,9.758,0,0,0-.915,1.236c-2.654,4.27-.295,8.547,1.376,10.278a6.057,6.057,0,0,0,.817-.792Z" transform="translate(-3.953 -10.839)" fill="#bc7104" fill-rule="evenodd"/>
      <path id="Path_214822" data-name="Path 214822" d="M65.8,34.744c.816-1.868,3.579-5.273,8.1-3.947-1.221,2.061-4.551,5.736-8.1,3.948Z" transform="translate(-12.072 -6.098)" fill="#f79b47"/>
      <path id="Path_214823" data-name="Path 214823" d="M64.6,35.507a1.46,1.46,0,0,1-.681-1.888,9.249,9.249,0,0,1,3.18-3.8,7.675,7.675,0,0,1,6.67-.968A1.46,1.46,0,0,1,74.616,31a12.631,12.631,0,0,1-3.623,3.888A6.167,6.167,0,0,1,64.6,35.507Zm1.138-1.093a4.259,4.259,0,0,0,.922.23c2.351.312,4.484-1.466,5.806-3.109a11.212,11.212,0,0,0,.894-1.279,7.284,7.284,0,0,0-1.55-.283,6.6,6.6,0,0,0-5.822,2.963,7.688,7.688,0,0,0-.433.677,6.359,6.359,0,0,0-.3.591,4.6,4.6,0,0,0,.482.211Z" transform="translate(-11.531 -5.557)" fill="#c36d32" fill-rule="evenodd"/>
      <path id="Path_214824" data-name="Path 214824" d="M59.748,41.505c.986-1.9,4.119-5.261,8.758-3.551C67.081,40.023,63.335,43.63,59.748,41.505Z" transform="translate(-10.437 -7.986)" fill="#f79b47"/>
      <path id="Path_214825" data-name="Path 214825" d="M58.464,42.22a1.46,1.46,0,0,1-.551-1.93,9.625,9.625,0,0,1,3.57-3.715,7.978,7.978,0,0,1,6.987-.531,1.46,1.46,0,0,1,.7,2.2,13.168,13.168,0,0,1-4.045,3.788,6.394,6.394,0,0,1-6.659.192Zm1.233-1a4.48,4.48,0,0,0,.875.292c2.492.549,4.909-1.224,6.421-2.881a11.71,11.71,0,0,0,.973-1.216,7.683,7.683,0,0,0-1.52-.4,6.925,6.925,0,0,0-6.429,2.728c-.17.211-.322.42-.455.62a6.687,6.687,0,0,0-.354.6A4.808,4.808,0,0,0,59.7,41.219Z" transform="translate(-9.897 -7.445)" fill="#c36d32" fill-rule="evenodd"/>
      <path id="Path_214826" data-name="Path 214826" d="M52.827,49.1c1.047-2.011,4.368-5.578,9.287-3.766C60.6,47.533,56.631,51.357,52.827,49.1Z" transform="translate(-8.567 -9.973)" fill="#f79b47"/>
      <path id="Path_214827" data-name="Path 214827" d="M51.543,49.82a1.46,1.46,0,0,1-.551-1.93,10.122,10.122,0,0,1,3.753-3.9,8.372,8.372,0,0,1,7.334-.557,1.46,1.46,0,0,1,.7,2.2,13.874,13.874,0,0,1-4.26,3.99,6.7,6.7,0,0,1-6.972.2Zm1.263-.986a4.776,4.776,0,0,0,.839.288c2.71.654,5.349-1.309,6.964-3.107a12.238,12.238,0,0,0,.966-1.216,8.2,8.2,0,0,0-1.512-.4,7.35,7.35,0,0,0-6.972,2.948c-.158.2-.3.4-.427.588a7.083,7.083,0,0,0-.375.633A5.247,5.247,0,0,0,52.805,48.834Z" transform="translate(-8.027 -9.433)" fill="#c36d32" fill-rule="evenodd"/>
      <path id="Path_214828" data-name="Path 214828" d="M47.653,56.306c1.27-2.038,5.072-5.533,10.119-3.214C56,55.286,51.485,59,47.653,56.307Z" transform="translate(-7.169 -11.996)" fill="#f79b47"/>
      <path id="Path_214829" data-name="Path 214829" d="M46.273,56.961a1.46,1.46,0,0,1-.4-1.967,10.634,10.634,0,0,1,4.247-3.783,8.784,8.784,0,0,1,7.719.015,1.46,1.46,0,0,1,.525,2.245,14.617,14.617,0,0,1-4.8,3.839A7.005,7.005,0,0,1,46.273,56.961Zm1.365-.867a5.006,5.006,0,0,0,.777.345c2.87.993,5.9-.944,7.765-2.747a12.852,12.852,0,0,0,1.051-1.14,8.742,8.742,0,0,0-1.468-.527A7.8,7.8,0,0,0,48,54.606c-.161.176-.307.35-.44.522a7.54,7.54,0,0,0-.448.638,5.518,5.518,0,0,0,.525.328Z" transform="translate(-6.629 -11.456)" fill="#c36d32" fill-rule="evenodd"/>
      <path id="Path_214830" data-name="Path 214830" d="M47.8,56.218q-.076.112-.147.226C51.486,59.137,56,55.423,57.772,53.23a8.934,8.934,0,0,0-1.012-.394C54.976,54.869,51.228,57.768,47.8,56.218Z" transform="translate(-7.169 -12.134)" fill="#e58c3a" fill-rule="evenodd"/>
      <path id="Path_214831" data-name="Path 214831" d="M41.137,64.28a9.041,9.041,0,0,1,11.47-3.118C50.556,63.478,45.391,67.343,41.137,64.28Z" transform="translate(-5.409 -14.125)" fill="#f79b47"/>
      <path id="Path_214832" data-name="Path 214832" d="M39.741,64.9a1.446,1.446,0,0,1-.379-1.985,11.468,11.468,0,0,1,4.791-3.885,10.031,10.031,0,0,1,8.529.3,1.5,1.5,0,0,1,.82,1.022,1.4,1.4,0,0,1-.317,1.238,15.932,15.932,0,0,1-5.422,3.943,7.96,7.96,0,0,1-8.02-.632Zm1.206-.92a5.99,5.99,0,0,0,.949.482c3.313,1.325,6.914-.8,9.081-2.751a13.743,13.743,0,0,0,1.085-1.087,10.3,10.3,0,0,0-1.481-.579,8.908,8.908,0,0,0-9.073,2.583,9.367,9.367,0,0,0-.618.708c-.109.139-.209.275-.3.405C40.709,63.829,40.828,63.909,40.947,63.983Z" transform="translate(-4.863 -13.59)" fill="#c36d32" fill-rule="evenodd"/>
      <path id="Path_214833" data-name="Path 214833" d="M41.28,64.277q-.073.1-.143.2c4.255,3.063,9.419-.8,11.471-3.118a10.345,10.345,0,0,0-1.011-.423C49.541,63.1,45.157,66.2,41.28,64.277Z" transform="translate(-5.409 -14.323)" fill="#e68c3a" fill-rule="evenodd"/>
      <path id="Path_214834" data-name="Path 214834" d="M28.131,25.187A5.951,5.951,0,0,1,24.956,17.9C26.727,19.054,29.84,22.125,28.131,25.187Z" transform="translate(-0.944 -2.694)" fill="#fecb01"/>
      <path id="Path_214835" data-name="Path 214835" d="M28.865,25.358a1.46,1.46,0,0,1-1.915.6,8.333,8.333,0,0,1-3.3-3.008,6.941,6.941,0,0,1-.62-6.059,1.46,1.46,0,0,1,2.179-.754,11.314,11.314,0,0,1,3.342,3.394,5.608,5.608,0,0,1,.309,5.827ZM27.794,24.23a3.722,3.722,0,0,0,.265-.985c.239-1.921-1.092-3.726-2.4-4.919a9.979,9.979,0,0,0-1.239-.966,6.318,6.318,0,0,0-.327,1.557,5.8,5.8,0,0,0,2.274,4.928,6.9,6.9,0,0,0,.717.517,5.756,5.756,0,0,0,.509.285A3.909,3.909,0,0,0,27.794,24.23Z" transform="translate(-0.403 -2.154)" fill="#b26633" fill-rule="evenodd"/>
      <path id="Path_214836" data-name="Path 214836" d="M27.986,29.7a5.138,5.138,0,0,1-4.866-4.839C24.908,25.224,28.383,26.7,27.986,29.7Z" transform="translate(-0.54 -4.575)" fill="#dcac01"/>
      <path id="Path_214837" data-name="Path 214837" d="M28.892,29.351a1.46,1.46,0,0,1-1.559,1.263,7.39,7.39,0,0,1-3.707-1.4,6.192,6.192,0,0,1-2.5-4.816,1.46,1.46,0,0,1,1.747-1.5,9.976,9.976,0,0,1,3.844,1.7,5.042,5.042,0,0,1,2.179,4.764Zm-1.416-.591a3.192,3.192,0,0,0-.163-1.084,5.339,5.339,0,0,0-3.216-2.89,8.76,8.76,0,0,0-1.517-.465,5.306,5.306,0,0,0,.312,1.584,4.994,4.994,0,0,0,3.121,2.936,6.118,6.118,0,0,0,.934.253,4.82,4.82,0,0,0,.5.066,3.79,3.79,0,0,0,.031-.4Z" transform="translate(0 -4.035)" fill="#975428" fill-rule="evenodd"/>
      <path id="Path_214838" data-name="Path 214838" d="M29.592,36.575A5.856,5.856,0,0,1,23.36,31.85c2.075.137,6.225,1.275,6.232,4.725Z" transform="translate(-0.605 -6.463)" fill="#dcac01"/>
      <path id="Path_214839" data-name="Path 214839" d="M30.512,36.032a1.46,1.46,0,0,1-1.376,1.46,8.216,8.216,0,0,1-4.29-1,6.854,6.854,0,0,1-3.46-4.918,1.46,1.46,0,0,1,1.532-1.722,11.141,11.141,0,0,1,4.512,1.3,5.543,5.543,0,0,1,3.083,4.873Zm-1.486-.452a3.657,3.657,0,0,0-.257-1c-.724-1.74-2.708-2.642-4.395-3.036a9.842,9.842,0,0,0-1.554-.238,6.2,6.2,0,0,0,.482,1.518,5.709,5.709,0,0,0,4.289,3.106,6.823,6.823,0,0,0,.887.1,5.365,5.365,0,0,0,.575,0,4.021,4.021,0,0,0-.026-.455Z" transform="translate(-0.065 -5.923)" fill="#975428" fill-rule="evenodd"/>
      <path id="Path_214840" data-name="Path 214840" d="M31.545,44.752c-2,.006-6.145-1.127-6.743-5.71C27.134,39.323,31.747,40.859,31.545,44.752Z" transform="translate(-0.995 -8.407)" fill="#dcac01"/>
      <path id="Path_214841" data-name="Path 214841" d="M32.463,44.287a1.46,1.46,0,0,1-1.454,1.384,9.1,9.1,0,0,1-4.678-1.357,7.558,7.558,0,0,1-3.516-5.624,1.46,1.46,0,0,1,1.622-1.638,12.416,12.416,0,0,1,4.932,1.719,6.075,6.075,0,0,1,3.094,5.515ZM31,43.7a4.16,4.16,0,0,0-.166-.947c-.658-2.2-3.061-3.4-5.043-3.942a10.965,10.965,0,0,0-1.533-.305,7.155,7.155,0,0,0,.37,1.534,6.467,6.467,0,0,0,4.919,4.015,7.571,7.571,0,0,0,.806.127,6.326,6.326,0,0,0,.648.034A4.608,4.608,0,0,0,31,43.7Z" transform="translate(-0.455 -7.866)" fill="#975428" fill-rule="evenodd"/>
      <path id="Path_214842" data-name="Path 214842" d="M29.191,44.345a7.529,7.529,0,0,0,2.355.407c.2-3.893-4.411-5.429-6.743-5.71q.026.2.061.39c2.047.82,4.28,2.389,4.326,4.912Z" transform="translate(-0.995 -8.407)" fill="#bb890a" fill-rule="evenodd"/>
      <path id="Path_214843" data-name="Path 214843" d="M33.308,52.011c-2.115-.082-6.454-1.468-6.881-6.346C28.882,46.068,33.7,47.9,33.308,52.011Z" transform="translate(-1.434 -10.196)" fill="#dcac01"/>
      <path id="Path_214844" data-name="Path 214844" d="M34.22,51.609a1.46,1.46,0,0,1-1.511,1.321A9.549,9.549,0,0,1,27.865,51.3a7.916,7.916,0,0,1-3.433-6.046,1.46,1.46,0,0,1,1.69-1.568,13.074,13.074,0,0,1,5.107,2.027,6.347,6.347,0,0,1,2.991,5.9Zm-1.431-.683A4.426,4.426,0,0,0,32.676,50c-.566-2.451-3.159-3.863-5.276-4.517a11.52,11.52,0,0,0-1.515-.363,7.673,7.673,0,0,0,.292,1.544,6.86,6.86,0,0,0,5.143,4.589c.266.065.521.114.762.149a6.521,6.521,0,0,0,.685.064,4.949,4.949,0,0,0,.022-.545Z" transform="translate(-0.893 -9.656)" fill="#975428" fill-rule="evenodd"/>
      <path id="Path_214845" data-name="Path 214845" d="M30.945,51.517a7.936,7.936,0,0,0,2.362.495c.388-4.112-4.425-5.944-6.881-6.347.014.152.031.3.051.444,2.143.95,4.5,2.719,4.468,5.409Z" transform="translate(-1.434 -10.196)" fill="#bb890a" fill-rule="evenodd"/>
      <path id="Path_214846" data-name="Path 214846" d="M35.558,60.931c-2.325.092-7.149-1.069-7.847-6.454C30.424,54.71,35.79,56.327,35.558,60.931Z" transform="translate(-1.781 -12.577)" fill="#dcac01"/>
      <path id="Path_214847" data-name="Path 214847" d="M36.472,60.465a1.457,1.457,0,0,1-1.394,1.386,10.021,10.021,0,0,1-5.338-1.379,8.347,8.347,0,0,1-4.012-6.349,1.467,1.467,0,0,1,.391-1.2,1.449,1.449,0,0,1,1.174-.445,13.672,13.672,0,0,1,5.66,1.8,6.7,6.7,0,0,1,3.518,6.193Zm-1.495-1.079q-.032-.231-.085-.458c-.677-2.848-3.784-4.234-6.211-4.76a12.115,12.115,0,0,0-1.51-.234,8.5,8.5,0,0,0,.332,1.509A7.214,7.214,0,0,0,33.566,60.3l.131.019a7.731,7.731,0,0,0,1.321.069A5.346,5.346,0,0,0,34.978,59.386Z" transform="translate(-1.242 -12.035)" fill="#975428" fill-rule="evenodd"/>
      <path id="Path_214848" data-name="Path 214848" d="M30.925,29.445a5.138,5.138,0,0,1,.427-6.848C32.258,24.179,33.443,27.765,30.925,29.445Z" transform="translate(-2.347 -3.963)" fill="#fecb01"/>
      <path id="Path_214849" data-name="Path 214849" d="M31.2,30.119a1.46,1.46,0,0,1-1.978-.339,7.393,7.393,0,0,1-1.39-3.712,6.2,6.2,0,0,1,1.968-5.06,1.46,1.46,0,0,1,2.283.322,9.965,9.965,0,0,1,1.26,4.008,5.042,5.042,0,0,1-2.143,4.78Zm-.49-1.454a3.2,3.2,0,0,0,.708-.839,5.339,5.339,0,0,0,.05-4.323,8.752,8.752,0,0,0-.651-1.447,5.342,5.342,0,0,0-.985,1.279,5,5,0,0,0-.148,4.282,6.135,6.135,0,0,0,.426.868,5.021,5.021,0,0,0,.28.419A3.425,3.425,0,0,0,30.705,28.665Z" transform="translate(-1.807 -3.423)" fill="#b26633" fill-rule="evenodd"/>
      <path id="Path_214850" data-name="Path 214850" d="M33.084,35.972a5.857,5.857,0,0,1,.728-7.787C34.791,30.02,36.012,34.146,33.084,35.972Z" transform="translate(-2.92 -5.473)" fill="#fecb01"/>
      <path id="Path_214851" data-name="Path 214851" d="M33.316,36.67a1.46,1.46,0,0,1-1.967-.4A8.223,8.223,0,0,1,29.935,32.1a6.854,6.854,0,0,1,2.354-5.533,1.46,1.46,0,0,1,2.272.393,11.157,11.157,0,0,1,1.27,4.523A5.544,5.544,0,0,1,33.316,36.67Zm-.4-1.5a3.661,3.661,0,0,0,.711-.743c1.1-1.533.817-3.694.263-5.335a9.835,9.835,0,0,0-.618-1.446,6.2,6.2,0,0,0-1.036,1.209,5.711,5.711,0,0,0-.377,5.282,6.908,6.908,0,0,0,.381.808c.1.181.2.344.3.488A4.126,4.126,0,0,0,32.917,35.169Z" transform="translate(-2.379 -4.933)" fill="#b26633" fill-rule="evenodd"/>
      <path id="Path_214852" data-name="Path 214852" d="M35.426,44.326c-1.059-1.695-2.283-5.815,1.3-8.74C37.712,37.716,38.84,42.445,35.426,44.326Z" transform="translate(-3.571 -7.473)" fill="#fecb01"/>
      <path id="Path_214853" data-name="Path 214853" d="M35.59,45.064a1.46,1.46,0,0,1-1.942-.505,9.1,9.1,0,0,1-1.314-4.69,7.557,7.557,0,0,1,2.924-5.954,1.46,1.46,0,0,1,2.248.515,12.415,12.415,0,0,1,1.138,5.1A6.073,6.073,0,0,1,35.59,45.064Zm-.268-1.552a4.16,4.16,0,0,0,.717-.641c1.524-1.721,1.279-4.4.69-6.364a10.955,10.955,0,0,0-.548-1.463,7.123,7.123,0,0,0-1.109,1.122,6.465,6.465,0,0,0-.817,6.3,7.769,7.769,0,0,0,.317.752,6.256,6.256,0,0,0,.314.569,4.59,4.59,0,0,0,.437-.273Z" transform="translate(-3.03 -6.932)" fill="#b26633" fill-rule="evenodd"/>
      <path id="Path_214854" data-name="Path 214854" d="M37.35,51.775c-1.045-1.841-2.155-6.258,1.765-9.193C40.067,44.881,41.049,49.937,37.35,51.775Z" transform="translate(-4.118 -9.363)" fill="#fecb01"/>
      <path id="Path_214855" data-name="Path 214855" d="M37.459,52.542a1.46,1.46,0,0,1-1.919-.587,9.555,9.555,0,0,1-1.168-4.977,7.917,7.917,0,0,1,3.327-6.1,1.46,1.46,0,0,1,2.223.609,13.049,13.049,0,0,1,.971,5.408,6.348,6.348,0,0,1-3.434,5.652Zm-.174-1.576a4.5,4.5,0,0,0,.724-.581c1.784-1.773,1.616-4.722,1.056-6.865a11.531,11.531,0,0,0-.49-1.478A7.563,7.563,0,0,0,37.416,43.1a6.857,6.857,0,0,0-1.187,6.789c.085.26.177.5.275.726a6.459,6.459,0,0,0,.307.616,4.926,4.926,0,0,0,.474-.27Z" transform="translate(-3.578 -8.823)" fill="#b26633" fill-rule="evenodd"/>
      <path id="Path_214856" data-name="Path 214856" d="M38.283,59.918a7.972,7.972,0,0,1,4.68-9.378C43.284,53.248,42.8,58.916,38.283,59.918Z" transform="translate(-4.578 -11.513)" fill="#fecb01"/>
      <path id="Path_214857" data-name="Path 214857" d="M38.034,60.789A1.445,1.445,0,0,1,36.3,59.752a10.288,10.288,0,0,1,.259-5.527,9.021,9.021,0,0,1,5.3-5.543,1.5,1.5,0,0,1,1.309.069,1.4,1.4,0,0,1,.714,1.06,14.2,14.2,0,0,1-.6,5.957,7.2,7.2,0,0,1-5.253,5.022Zm.067-1.5a5.237,5.237,0,0,0,1.036-.425c2.616-1.422,3.334-4.812,3.358-7.317a12.335,12.335,0,0,0-.077-1.542A8.964,8.964,0,0,0,41,50.747a7.839,7.839,0,0,0-3.468,7.209,8.329,8.329,0,0,0,.115.994c.027.153.058.3.092.434C37.861,59.355,37.983,59.325,38.1,59.29Z" transform="translate(-4.031 -10.979)" fill="#b26633" fill-rule="evenodd"/>
      <path id="Path_214858" data-name="Path 214858" d="M46.4,18.888a1.1,1.1,0,0,1,.646,1.407c-.336.9-.669,1.921-1.063,3.118a162.6,162.6,0,0,1-5.819,15.343c-5.277,12.193-7.658,19.223-6.159,28.832a1.095,1.095,0,1,1-2.163.337c-1.6-10.278,1.024-17.819,6.313-30.038a158.251,158.251,0,0,0,5.717-15.065c.406-1.236.756-2.3,1.122-3.288a1.1,1.1,0,0,1,1.407-.646Z" transform="translate(-2.771 -2.942)" fill="#8b4e25" fill-rule="evenodd"/>
      <path id="Path_214859" data-name="Path 214859" d="M51.594,18.39c-.706-1.913-1.071-6.282,3.11-8.46C55.252,12.262,55.394,17.221,51.594,18.39Z" transform="translate(-8.116 -0.54)" fill="#ffcb45"/>
      <path id="Path_214860" data-name="Path 214860" d="M51.483,19.244a1.46,1.46,0,0,1-1.8-.89,9.257,9.257,0,0,1-.336-4.941A7.68,7.68,0,0,1,53.49,8.095a1.46,1.46,0,0,1,2.1.962,12.623,12.623,0,0,1,.079,5.314,6.165,6.165,0,0,1-4.182,4.873Zm.063-1.576a4.247,4.247,0,0,0,.825-.473c1.912-1.4,2.219-4.163,2.035-6.263a11.077,11.077,0,0,0-.242-1.542,7.289,7.289,0,0,0-1.314.868A6.6,6.6,0,0,0,50.7,16.429a7.867,7.867,0,0,0,.157.787,6.183,6.183,0,0,0,.195.633,4.615,4.615,0,0,0,.493-.182Z" transform="translate(-7.576)" fill="#b26633" fill-rule="evenodd"/>
      <path id="Path_214861" data-name="Path 214861" d="M46.729,24.174c-1.474-1.409-3.723-5.173-.922-8.966C47.323,17.063,49.63,21.454,46.729,24.174Z" transform="translate(-6.31 -1.967)" fill="#e9a626"/>
      <path id="Path_214862" data-name="Path 214862" d="M47.187,24.7a1.46,1.46,0,0,1-2.007-.009A9.251,9.251,0,0,1,42.709,20.4a7.678,7.678,0,0,1,1.383-6.6,1.46,1.46,0,0,1,2.3-.056A12.625,12.625,0,0,1,48.8,18.483,6.169,6.169,0,0,1,47.187,24.7Zm-.635-1.445a4.269,4.269,0,0,0,.533-.787c1.1-2.1.164-4.714-.925-6.52a11.23,11.23,0,0,0-.893-1.279,7.281,7.281,0,0,0-.8,1.358,6.6,6.6,0,0,0,.782,6.486,7.839,7.839,0,0,0,.486.639,6.491,6.491,0,0,0,.452.483,4.646,4.646,0,0,0,.363-.38Z" transform="translate(-5.769 -1.426)" fill="#8b4e25" fill-rule="evenodd"/>
      <path id="Path_214863" data-name="Path 214863" d="M43.391,32.494c-1.681-1.321-4.409-5.021-1.871-9.263C43.289,25.013,46.141,29.361,43.391,32.494Z" transform="translate(-5.233 -4.134)" fill="#e9a626"/>
      <path id="Path_214864" data-name="Path 214864" d="M43.946,32.917a1.46,1.46,0,0,1-2,.185,9.638,9.638,0,0,1-2.991-4.2,7.978,7.978,0,0,1,.77-6.964,1.46,1.46,0,0,1,2.288-.279,13.162,13.162,0,0,1,2.974,4.675,6.391,6.391,0,0,1-1.042,6.579Zm-.756-1.4a4.487,4.487,0,0,0,.448-.806c1-2.348-.295-5.051-1.644-6.843a11.63,11.63,0,0,0-1.015-1.181,7.7,7.7,0,0,0-.67,1.421A6.926,6.926,0,0,0,41.8,30.934c.175.206.352.394.525.562a6.725,6.725,0,0,0,.523.458,5.079,5.079,0,0,0,.34-.433Z" transform="translate(-4.692 -3.594)" fill="#8b4e25" fill-rule="evenodd"/>
      <path id="Path_214865" data-name="Path 214865" d="M39.587,41.85c-1.782-1.4-4.675-5.324-1.984-9.823C39.48,33.917,42.5,38.528,39.587,41.85Z" transform="translate(-4.158 -6.511)" fill="#e9a626"/>
      <path id="Path_214866" data-name="Path 214866" d="M40.143,42.272a1.46,1.46,0,0,1-2,.185A10.116,10.116,0,0,1,35,38.048a8.371,8.371,0,0,1,.809-7.31,1.46,1.46,0,0,1,2.289-.28,13.882,13.882,0,0,1,3.132,4.925,6.693,6.693,0,0,1-1.087,6.889Zm-.736-1.423a4.749,4.749,0,0,0,.438-.77c1.144-2.543-.3-5.5-1.766-7.418a12.227,12.227,0,0,0-1.017-1.174,8.206,8.206,0,0,0-.677,1.411,7.354,7.354,0,0,0,1.608,7.4c.168.192.336.369.5.528a6.943,6.943,0,0,0,.553.486,5.413,5.413,0,0,0,.361-.46Z" transform="translate(-3.617 -5.971)" fill="#8b4e25" fill-rule="evenodd"/>
      <path id="Path_214867" data-name="Path 214867" d="M38.938,40.95a7.617,7.617,0,0,0,.952.9c2.917-3.321-.107-7.932-1.984-9.822q-.151.252-.279.5C39.055,34.579,40.678,38.239,38.938,40.95Z" transform="translate(-4.46 -6.511)" fill="#ca8b12" fill-rule="evenodd"/>
      <path id="Path_214868" data-name="Path 214868" d="M36.685,51.291C34.7,49.941,31.358,46,33.876,41.053c2.122,1.862,5.652,6.516,2.81,10.239Z" transform="translate(-3.203 -8.95)" fill="#e9a626"/>
      <path id="Path_214869" data-name="Path 214869" d="M37.3,51.637a1.46,1.46,0,0,1-1.981.321,10.64,10.64,0,0,1-3.611-4.4,8.783,8.783,0,0,1,.323-7.712,1.46,1.46,0,0,1,2.264-.435,14.624,14.624,0,0,1,3.645,4.947A7,7,0,0,1,37.3,51.637Zm-.812-1.4a5.02,5.02,0,0,0,.376-.763c1.106-2.828-.708-5.93-2.436-7.869a12.855,12.855,0,0,0-1.1-1.095,8.742,8.742,0,0,0-.585,1.446,7.8,7.8,0,0,0,2.27,7.858c.17.167.339.321.5.46a7.681,7.681,0,0,0,.62.474A5.541,5.541,0,0,0,36.492,50.239Z" transform="translate(-2.662 -8.41)" fill="#8b4e25" fill-rule="evenodd"/>
      <path id="Path_214870" data-name="Path 214870" d="M35.668,50.211a8.393,8.393,0,0,0,1.27,1.08c2.842-3.722-.689-8.377-2.81-10.238q-.118.234-.22.466c1.551,2.086,3.343,5.792,1.76,8.692Z" transform="translate(-3.455 -8.95)" fill="#ca8b12" fill-rule="evenodd"/>
      <path id="Path_214871" data-name="Path 214871" d="M34.613,61.739c-2.4-1.108-6.665-4.773-4.588-10.57C32.644,52.806,37.227,57.211,34.613,61.739Z" transform="translate(-2.257 -11.683)" fill="#e9a626"/>
      <path id="Path_214872" data-name="Path 214872" d="M35.333,61.927a1.457,1.457,0,0,1-1.872.6,11.159,11.159,0,0,1-4.594-4.077,9.272,9.272,0,0,1-.752-8.312,1.467,1.467,0,0,1,.895-.89,1.447,1.447,0,0,1,1.248.139,15.309,15.309,0,0,1,4.725,4.673A7.407,7.407,0,0,1,35.333,61.927Zm-.782-1.763q.054-.155.1-.314c.959-3.379-1.662-6.539-3.924-8.34a13.519,13.519,0,0,0-1.241-.882,9.875,9.875,0,0,0-.406,1.482c-.932,4.941,2.811,8.077,5,9.087a6.089,6.089,0,0,0,.477-1.033Z" transform="translate(-1.717 -11.142)" fill="#8b4e25" fill-rule="evenodd"/>
      <path id="Path_214873" data-name="Path 214873" d="M33.316,60.834a9.058,9.058,0,0,0,1.569.948c2.554-4.425-1.764-8.732-4.406-10.454C32.515,53.471,34.985,57.4,33.316,60.834Z" transform="translate(-2.529 -11.726)" fill="#ca8c13" fill-rule="evenodd"/>
      <path id="Path_214874" data-name="Path 214874" d="M49.734,26.836c.086-2.036,1.433-6.21,6.13-6.608-.394,2.363-2.173,6.993-6.13,6.608Z" transform="translate(-7.731 -3.323)" fill="#ffcb45"/>
      <path id="Path_214875" data-name="Path 214875" d="M49.052,27.748a1.46,1.46,0,0,1-1.317-1.514,9.248,9.248,0,0,1,1.595-4.688A7.678,7.678,0,0,1,55.2,18.234a1.46,1.46,0,0,1,1.563,1.695,12.617,12.617,0,0,1-1.975,4.933,6.166,6.166,0,0,1-5.736,2.886Zm.667-1.43a4.25,4.25,0,0,0,.943-.118c2.3-.558,3.652-2.986,4.291-5a11.328,11.328,0,0,0,.371-1.515,7.285,7.285,0,0,0-1.548.295,6.6,6.6,0,0,0-4.36,4.866,7.771,7.771,0,0,0-.159.787,6.357,6.357,0,0,0-.064.659,4.6,4.6,0,0,0,.525.022Z" transform="translate(-7.191 -2.783)" fill="#b26633" fill-rule="evenodd"/>
      <path id="Path_214876" data-name="Path 214876" d="M46.5,35.3c.236-2.125,1.941-6.394,6.884-6.475C52.807,31.266,50.616,35.981,46.5,35.3Z" transform="translate(-6.859 -5.645)" fill="#ffcb45"/>
      <path id="Path_214877" data-name="Path 214877" d="M45.723,36.2a1.46,1.46,0,0,1-1.211-1.6A9.631,9.631,0,0,1,46.5,29.841a7.978,7.978,0,0,1,6.323-3.018,1.46,1.46,0,0,1,1.444,1.8,13.172,13.172,0,0,1-2.4,4.992A6.4,6.4,0,0,1,45.723,36.2Zm.788-1.379a4.448,4.448,0,0,0,.921-.044c2.523-.388,4.136-2.914,4.947-5.006a11.553,11.553,0,0,0,.468-1.485,7.678,7.678,0,0,0-1.56.18,6.925,6.925,0,0,0-5.009,4.866c-.082.258-.149.507-.2.743a6.662,6.662,0,0,0-.115.685,5.03,5.03,0,0,0,.548.061Z" transform="translate(-6.318 -5.105)" fill="#b26633" fill-rule="evenodd"/>
      <path id="Path_214878" data-name="Path 214878" d="M42.828,44.822c.249-2.253,2.058-6.78,7.3-6.865C49.511,40.548,47.189,45.548,42.828,44.822Z" transform="translate(-5.865 -8.113)" fill="#ffcb45"/>
      <path id="Path_214879" data-name="Path 214879" d="M42.047,45.721a1.46,1.46,0,0,1-1.211-1.6,10.124,10.124,0,0,1,2.089-5,8.371,8.371,0,0,1,6.638-3.167,1.46,1.46,0,0,1,1.444,1.8,13.882,13.882,0,0,1-2.532,5.258A6.691,6.691,0,0,1,42.047,45.721Zm.821-1.375a4.789,4.789,0,0,0,.886-.034c2.764-.369,4.515-3.153,5.371-5.412a12.247,12.247,0,0,0,.461-1.483,8.154,8.154,0,0,0-1.556.169,7.351,7.351,0,0,0-5.437,5.266c-.075.244-.136.479-.185.7a7.088,7.088,0,0,0-.121.727A5.254,5.254,0,0,0,42.868,44.346Z" transform="translate(-5.325 -7.573)" fill="#b26633" fill-rule="evenodd"/>
      <path id="Path_214880" data-name="Path 214880" d="M40.359,54.1c.1-2.4,1.684-7.314,7.218-7.785C47.113,49.1,45.02,54.556,40.359,54.1Z" transform="translate(-5.198 -10.373)" fill="#ffcb45"/>
      <path id="Path_214881" data-name="Path 214881" d="M39.678,55.016A1.46,1.46,0,0,1,38.361,53.5a10.627,10.627,0,0,1,1.83-5.386,8.781,8.781,0,0,1,6.722-3.793,1.46,1.46,0,0,1,1.563,1.695A14.6,14.6,0,0,1,46.2,51.724,7.006,7.006,0,0,1,39.678,55.016Zm.759-1.427a5.06,5.06,0,0,0,.847-.083c2.986-.552,4.666-3.729,5.4-6.219a12.742,12.742,0,0,0,.353-1.509,8.743,8.743,0,0,0-1.538.266,7.8,7.8,0,0,0-5.479,6.072c-.053.232-.094.457-.126.671a7.469,7.469,0,0,0-.075.776,5.415,5.415,0,0,0,.619.026Z" transform="translate(-4.658 -9.832)" fill="#b26633" fill-rule="evenodd"/>
      <path id="Path_214882" data-name="Path 214882" d="M36.382,63.049A9.041,9.041,0,0,1,45.953,56c-1.076,2.9-4.5,8.371-9.571,7.05Z" transform="translate(-4.124 -12.979)" fill="#ffcb45"/>
      <path id="Path_214883" data-name="Path 214883" d="M35.458,63.9a1.445,1.445,0,0,1-1.071-1.714,11.455,11.455,0,0,1,3.064-5.354,10.034,10.034,0,0,1,8.061-2.8,1.5,1.5,0,0,1,1.134.658,1.406,1.406,0,0,1,.152,1.27A15.912,15.912,0,0,1,43.165,61.6,7.961,7.961,0,0,1,35.458,63.9Zm.793-1.293a6.017,6.017,0,0,0,1.058.107c3.569.039,6.159-3.245,7.475-5.846a13.743,13.743,0,0,0,.62-1.406,10.262,10.262,0,0,0-1.591-.005,8.909,8.909,0,0,0-7.528,5.687c-.129.308-.236.605-.321.883-.051.169-.095.331-.131.485Q36.044,62.571,36.251,62.612Z" transform="translate(-3.575 -12.448)" fill="#b26633" fill-rule="evenodd"/>
      <path id="Path_214884" data-name="Path 214884" d="M47.486,40.271a.73.73,0,0,1-.109,1.026,10.332,10.332,0,0,0-.872.8,3.056,3.056,0,0,0-.591.76.73.73,0,1,1-1.366-.513,4.176,4.176,0,0,1,.908-1.263,11.817,11.817,0,0,1,1-.92.73.73,0,0,1,1.026.11Z" transform="translate(-6.317 -8.665)" fill="#ffe5a4" fill-rule="evenodd"/>
      <path id="Path_214885" data-name="Path 214885" d="M43.733,42.7a.365.365,0,0,1-.055.514,10.567,10.567,0,0,0-.9.828,3.235,3.235,0,0,0-.67.886.365.365,0,1,1-.683-.257,3.84,3.84,0,0,1,.828-1.136,11.452,11.452,0,0,1,.971-.89.365.365,0,0,1,.513.055Zm4.7-13.552a.365.365,0,0,1-.055.514,10.567,10.567,0,0,0-.9.828,3.25,3.25,0,0,0-.67.885.365.365,0,0,1-.683-.255,3.836,3.836,0,0,1,.828-1.138,11.551,11.551,0,0,1,.971-.889.365.365,0,0,1,.514.055Zm2.712-6.616a.365.365,0,0,1-.055.513,10.578,10.578,0,0,0-.9.828,3.237,3.237,0,0,0-.671.886.365.365,0,0,1-.683-.256,3.833,3.833,0,0,1,.828-1.137,11.445,11.445,0,0,1,.972-.89.365.365,0,0,1,.513.055Zm-9.2,27.174a.365.365,0,0,1-.055.513,10.568,10.568,0,0,0-.9.828,3.235,3.235,0,0,0-.67.886.365.365,0,1,1-.684-.256,3.849,3.849,0,0,1,.829-1.137,11.341,11.341,0,0,1,.971-.89.365.365,0,0,1,.513.055Z" transform="translate(-4.997 -3.909)" fill="#ffe5a4" fill-rule="evenodd"/>
    </g>
  </g>
</svg>
